<svg width="196" height="164" viewBox="0 0 196 164" fill="none" xmlns="http://www.w3.org/2000/svg">
<path opacity="0.1" d="M63.5374 5.82417C69.2686 0.719291 78.2647 -0.327209 86.4543 0.0792179C112.175 1.35936 135.392 13.7838 155.476 27.8399C162.747 32.9271 169.905 38.4109 174.623 45.4184C184.237 59.6826 181.381 79.4424 168.023 91.1934C163.477 95.1909 157.967 98.2617 152.311 100.973C142.253 105.803 131.401 109.681 119.986 110.79C111.847 111.576 103.607 110.937 95.5131 109.84C72.9043 106.765 50.7154 99.9797 32.1092 88.372C23.9509 83.2808 16.2616 76.9508 12.8987 68.7182C9.53569 60.4856 11.6881 50.0402 20.019 45.1572C23.4643 43.1408 27.5847 42.2298 31.6167 41.3737C37.5539 40.1152 43.5853 38.8743 48.9417 36.316C54.4767 33.6732 61.028 28.5625 59.9292 22.7115C58.7598 16.4423 57.8141 10.929 63.5374 5.82417Z" fill="#0044FF"/>
<path d="M134.391 131.331C134.391 131.331 139.308 122.616 146.711 120.105C149.823 119.071 152.517 117.055 154.387 114.36C155.264 113.073 156.022 111.709 156.651 110.284" stroke="#535461" stroke-width="2" stroke-miterlimit="10"/>
<path d="M161.309 108.672C160.465 109.493 156.535 110.339 156.535 110.339C156.535 110.339 157.498 106.434 158.342 105.615C158.747 105.221 159.292 105.005 159.857 105.013C160.421 105.021 160.959 105.254 161.353 105.659C161.746 106.064 161.963 106.61 161.954 107.175C161.946 107.74 161.714 108.278 161.309 108.672Z" fill="#0044FF"/>
<path d="M159.086 115.738C157.932 115.968 154.18 114.542 154.18 114.542C154.18 114.542 157.112 111.794 158.263 111.558C158.817 111.448 159.392 111.562 159.862 111.876C160.331 112.191 160.657 112.678 160.767 113.233C160.877 113.787 160.763 114.362 160.449 114.832C160.135 115.302 159.647 115.628 159.093 115.738H159.086Z" fill="#0044FF"/>
<path d="M150.992 123.383C149.88 122.991 147.355 119.869 147.355 119.869C147.355 119.869 151.279 118.973 152.385 119.358C152.655 119.445 152.905 119.585 153.12 119.77C153.335 119.955 153.511 120.181 153.638 120.435C153.765 120.689 153.839 120.965 153.858 121.248C153.876 121.531 153.838 121.815 153.745 122.083C153.652 122.351 153.507 122.598 153.317 122.809C153.128 123.021 152.898 123.192 152.642 123.313C152.386 123.434 152.108 123.502 151.824 123.515C151.541 123.527 151.258 123.482 150.992 123.383Z" fill="#0044FF"/>
<path d="M143.566 127.79C142.406 127.593 139.389 124.941 139.389 124.941C139.389 124.941 143.099 123.393 144.259 123.586C144.536 123.629 144.803 123.727 145.043 123.874C145.283 124.021 145.491 124.214 145.656 124.442C145.821 124.67 145.939 124.928 146.004 125.202C146.068 125.476 146.078 125.76 146.032 126.038C145.987 126.315 145.886 126.581 145.737 126.82C145.588 127.058 145.393 127.265 145.164 127.428C144.935 127.591 144.675 127.707 144.401 127.769C144.127 127.831 143.843 127.838 143.566 127.79Z" fill="#0044FF"/>
<path d="M150.896 111.491C150.896 112.669 153.023 116.08 153.023 116.08C153.023 116.08 155.154 112.669 155.154 111.493C155.154 110.928 154.93 110.386 154.53 109.987C154.131 109.587 153.59 109.363 153.025 109.363C152.46 109.363 151.919 109.587 151.52 109.987C151.121 110.386 150.896 110.928 150.896 111.493V111.491Z" fill="#0044FF"/>
<path d="M142.277 116.753C142.63 117.876 145.679 120.495 145.679 120.495C145.679 120.495 146.692 116.602 146.34 115.479C146.171 114.94 145.795 114.49 145.295 114.228C144.795 113.966 144.211 113.914 143.672 114.083C143.133 114.252 142.683 114.628 142.422 115.129C142.16 115.63 142.108 116.214 142.277 116.753Z" fill="#0044FF"/>
<path d="M134.601 123.016C134.758 124.183 137.323 127.281 137.323 127.281C137.323 127.281 138.978 123.615 138.822 122.449C138.746 121.889 138.452 121.382 138.003 121.039C137.554 120.696 136.987 120.546 136.428 120.621C135.868 120.696 135.361 120.991 135.019 121.44C134.676 121.889 134.526 122.456 134.601 123.016Z" fill="#0044FF"/>
<path opacity="0.25" d="M161.309 108.672C160.465 109.493 156.535 110.339 156.535 110.339C156.535 110.339 157.498 106.434 158.342 105.615C158.747 105.221 159.292 105.005 159.857 105.013C160.421 105.021 160.959 105.254 161.353 105.659C161.746 106.064 161.963 106.61 161.954 107.175C161.946 107.74 161.714 108.278 161.309 108.672Z" fill="black"/>
<path opacity="0.25" d="M159.086 115.738C157.932 115.968 154.18 114.542 154.18 114.542C154.18 114.542 157.112 111.794 158.263 111.558C158.817 111.448 159.392 111.562 159.862 111.876C160.331 112.191 160.657 112.678 160.767 113.233C160.877 113.787 160.763 114.362 160.449 114.832C160.135 115.302 159.647 115.628 159.093 115.738H159.086Z" fill="black"/>
<path opacity="0.25" d="M150.992 123.383C149.88 122.991 147.355 119.869 147.355 119.869C147.355 119.869 151.279 118.973 152.385 119.358C152.655 119.445 152.905 119.585 153.12 119.77C153.335 119.955 153.511 120.181 153.638 120.435C153.765 120.689 153.839 120.965 153.858 121.248C153.876 121.531 153.838 121.815 153.745 122.083C153.652 122.351 153.507 122.598 153.317 122.809C153.128 123.021 152.898 123.192 152.642 123.313C152.386 123.434 152.108 123.502 151.824 123.515C151.541 123.527 151.258 123.482 150.992 123.383Z" fill="black"/>
<path opacity="0.25" d="M143.566 127.79C142.406 127.593 139.389 124.941 139.389 124.941C139.389 124.941 143.099 123.393 144.259 123.586C144.536 123.629 144.803 123.727 145.043 123.874C145.283 124.021 145.491 124.214 145.656 124.442C145.821 124.67 145.939 124.928 146.004 125.202C146.068 125.476 146.078 125.76 146.032 126.038C145.987 126.315 145.886 126.581 145.737 126.82C145.588 127.058 145.393 127.265 145.164 127.428C144.935 127.591 144.675 127.707 144.401 127.769C144.127 127.831 143.843 127.838 143.566 127.79Z" fill="black"/>
<path opacity="0.25" d="M150.896 111.491C150.896 112.669 153.023 116.08 153.023 116.08C153.023 116.08 155.154 112.669 155.154 111.493C155.154 110.928 154.93 110.386 154.53 109.987C154.131 109.587 153.59 109.363 153.025 109.363C152.46 109.363 151.919 109.587 151.52 109.987C151.121 110.386 150.896 110.928 150.896 111.493V111.491Z" fill="black"/>
<path opacity="0.25" d="M142.277 116.753C142.63 117.876 145.679 120.495 145.679 120.495C145.679 120.495 146.692 116.602 146.34 115.479C146.171 114.94 145.795 114.49 145.295 114.228C144.795 113.966 144.211 113.914 143.672 114.083C143.133 114.252 142.683 114.628 142.422 115.129C142.16 115.63 142.108 116.214 142.277 116.753Z" fill="black"/>
<path opacity="0.25" d="M134.601 123.016C134.758 124.183 137.323 127.281 137.323 127.281C137.323 127.281 138.978 123.615 138.822 122.449C138.746 121.889 138.452 121.382 138.003 121.039C137.554 120.696 136.987 120.546 136.428 120.621C135.868 120.696 135.361 120.991 135.019 121.44C134.676 121.889 134.526 122.456 134.601 123.016Z" fill="black"/>
<path d="M134.674 131.155C134.674 131.155 135.639 121.192 141.392 115.895C143.818 113.687 145.464 110.752 146.081 107.529C146.364 105.996 146.504 104.44 146.501 102.881" stroke="#535461" stroke-width="2" stroke-miterlimit="10"/>
<path d="M150.105 99.5284C149.666 100.62 146.417 102.988 146.417 102.988C146.417 102.988 145.718 99.0258 146.158 97.9361C146.257 97.6698 146.409 97.4261 146.604 97.2194C146.799 97.0127 147.034 96.8471 147.294 96.7325C147.554 96.6179 147.834 96.5565 148.118 96.552C148.402 96.5475 148.684 96.5999 148.948 96.7062C149.211 96.8125 149.451 96.9705 149.652 97.1709C149.854 97.3713 150.013 97.61 150.121 97.873C150.229 98.1361 150.283 98.418 150.281 98.7023C150.278 98.9866 150.218 99.2675 150.105 99.5284Z" fill="#0044FF"/>
<path d="M150.935 106.889C149.974 107.566 145.96 107.786 145.96 107.786C145.96 107.786 147.529 104.081 148.485 103.404C148.713 103.243 148.972 103.128 149.244 103.067C149.517 103.006 149.799 102.999 150.075 103.047C150.35 103.095 150.614 103.197 150.85 103.347C151.086 103.496 151.29 103.691 151.451 103.92C151.612 104.149 151.727 104.407 151.788 104.68C151.849 104.953 151.856 105.236 151.808 105.511C151.76 105.787 151.658 106.051 151.508 106.287C151.359 106.523 151.164 106.728 150.935 106.889Z" fill="#0044FF"/>
<path d="M146.633 117.162C145.455 117.26 141.884 115.422 141.884 115.422C141.884 115.422 145.104 113.015 146.268 112.915C146.83 112.867 147.389 113.046 147.82 113.41C148.252 113.775 148.521 114.296 148.568 114.86C148.616 115.423 148.437 115.982 148.073 116.413C147.708 116.845 147.188 117.114 146.625 117.162H146.633Z" fill="#0044FF"/>
<path d="M141.627 124.2C140.489 124.495 136.656 123.289 136.656 123.289C136.656 123.289 139.42 120.37 140.558 120.075C140.831 119.998 141.116 119.977 141.397 120.012C141.678 120.047 141.949 120.138 142.194 120.279C142.44 120.42 142.655 120.609 142.826 120.834C142.998 121.059 143.123 121.317 143.194 121.591C143.266 121.865 143.281 122.151 143.241 122.431C143.2 122.712 143.104 122.981 142.958 123.224C142.812 123.467 142.619 123.678 142.391 123.845C142.162 124.012 141.903 124.132 141.627 124.198V124.2Z" fill="#0044FF"/>
<path d="M141.729 106.325C142.204 107.401 145.532 109.663 145.532 109.663C145.532 109.663 146.099 105.681 145.622 104.605C145.387 104.1 144.962 103.706 144.441 103.51C143.919 103.314 143.341 103.331 142.831 103.557C142.321 103.782 141.92 104.199 141.714 104.718C141.508 105.236 141.514 105.815 141.729 106.329V106.325Z" fill="#0044FF"/>
<path d="M135.981 114.632C136.756 115.516 140.605 116.674 140.605 116.674C140.605 116.674 139.956 112.704 139.179 111.821C138.996 111.605 138.772 111.428 138.52 111.3C138.268 111.172 137.993 111.095 137.711 111.075C137.429 111.054 137.146 111.09 136.878 111.18C136.61 111.27 136.363 111.412 136.151 111.599C135.938 111.785 135.765 112.012 135.642 112.267C135.518 112.521 135.446 112.797 135.43 113.08C135.414 113.362 135.455 113.645 135.549 113.911C135.644 114.178 135.79 114.423 135.981 114.632Z" fill="#0044FF"/>
<path d="M131.499 123.472C132.115 124.475 135.714 126.266 135.714 126.266C135.714 126.266 135.743 122.245 135.125 121.241C134.979 121.003 134.787 120.796 134.561 120.632C134.334 120.467 134.078 120.349 133.806 120.284C133.534 120.219 133.252 120.209 132.976 120.253C132.7 120.297 132.435 120.395 132.197 120.541C131.959 120.688 131.751 120.88 131.587 121.106C131.423 121.333 131.305 121.589 131.24 121.862C131.176 122.134 131.165 122.416 131.209 122.692C131.253 122.968 131.351 123.233 131.497 123.472H131.499Z" fill="#0044FF"/>
<path opacity="0.1" d="M73.4145 163.746C86.2965 163.746 96.7395 161.994 96.7395 159.833C96.7395 157.671 86.2965 155.919 73.4145 155.919C60.5325 155.919 50.0895 157.671 50.0895 159.833C50.0895 161.994 60.5325 163.746 73.4145 163.746Z" fill="#0044FF"/>
<path opacity="0.1" d="M119.325 133.708C132.207 133.708 142.65 131.956 142.65 129.794C142.65 127.633 132.207 125.881 119.325 125.881C106.443 125.881 95.9998 127.633 95.9998 129.794C95.9998 131.956 106.443 133.708 119.325 133.708Z" fill="#0044FF"/>
<path d="M120.873 78.1505L120.851 78.9143L119.525 125.746H117.296L118.389 78.9143L118.41 78.0327L120.873 78.1505Z" fill="#B77B7F"/>
<path d="M133.777 117.823L132.107 117.819L107.299 117.766L105.977 117.764L106.681 115.593H133.601L133.777 117.823Z" fill="#DDA2A6"/>
<path opacity="0.1" d="M120.873 78.1505L120.851 78.9143H118.389L118.41 78.0327L120.873 78.1505Z" fill="black"/>
<path d="M121.813 77.0059H117.678V78.5628H121.813V77.0059Z" fill="#B77B7F"/>
<path opacity="0.1" d="M107.519 115.593L107.299 117.766L105.977 117.764L106.681 115.593H107.519Z" fill="black"/>
<path d="M111.08 76.9766L111.011 77.652L105.508 131.968L102.987 131.848L108.786 77.652L108.851 77.0355L111.08 76.9766Z" fill="#DDA2A6"/>
<path opacity="0.1" d="M133.777 117.823L132.107 117.819L131.882 115.593H133.601L133.777 117.823Z" fill="black"/>
<path d="M136.416 131.848L133.893 131.968L128.391 77.652L128.323 76.9766L130.55 77.0355L130.614 77.652L136.416 131.848Z" fill="#DDA2A6"/>
<path d="M147.147 23.4243H91.5497V76.7703H147.147V23.4243Z" fill="white"/>
<path d="M120.433 5.58261V18.4646H118.265V5.58261C118.259 5.43627 118.282 5.29019 118.334 5.15315C118.386 5.01611 118.464 4.89095 118.566 4.7852C118.667 4.67945 118.789 4.5953 118.923 4.53781C119.058 4.48032 119.203 4.45068 119.349 4.45068C119.495 4.45068 119.64 4.48032 119.775 4.53781C119.91 4.5953 120.031 4.67945 120.132 4.7852C120.234 4.89095 120.313 5.01611 120.364 5.15315C120.416 5.29019 120.439 5.43627 120.433 5.58261Z" fill="#DDA2A6"/>
<path opacity="0.1" d="M120.433 17.2925H118.263V18.4646H120.433V17.2925Z" fill="black"/>
<path d="M121.285 18.1722V22.425H117.425V18.1722C117.425 18.1028 117.439 18.034 117.465 17.9698C117.491 17.9056 117.53 17.8473 117.579 17.7982C117.628 17.7491 117.687 17.7102 117.751 17.6837C117.815 17.6573 117.884 17.6438 117.953 17.644H120.761C120.9 17.6451 121.033 17.7012 121.131 17.8001C121.23 17.8991 121.285 18.0328 121.285 18.1722Z" fill="#DDA2A6"/>
<path opacity="0.1" d="M119.348 21.1644C119.801 21.1644 120.168 20.7969 120.168 20.3437C120.168 19.8904 119.801 19.5229 119.348 19.5229C118.895 19.5229 118.528 19.8904 118.528 20.3437C118.528 20.7969 118.895 21.1644 119.348 21.1644Z" fill="black"/>
<path d="M119.348 20.9876C119.801 20.9876 120.168 20.6202 120.168 20.1669C120.168 19.7136 119.801 19.3462 119.348 19.3462C118.895 19.3462 118.528 19.7136 118.528 20.1669C118.528 20.6202 118.895 20.9876 119.348 20.9876Z" fill="#B77B7F"/>
<path opacity="0.1" d="M121.285 21.8989H117.414V22.4271H121.285V21.8989Z" fill="black"/>
<path opacity="0.1" d="M122.868 22.6035H115.83V23.7776H122.868V22.6035Z" fill="black"/>
<path d="M122.868 22.25H115.83V23.4241H122.868V22.25Z" fill="#DDA2A6"/>
<path opacity="0.1" d="M105.112 75.3955H134.67C135.008 75.3955 135.333 75.53 135.572 75.7693C135.811 76.0086 135.945 76.3333 135.945 76.6717V76.9505H103.836V76.6717C103.836 76.3333 103.971 76.0086 104.21 75.7693C104.449 75.53 104.773 75.3955 105.112 75.3955Z" fill="black"/>
<path opacity="0.1" d="M108.851 77.0355L111.08 76.9766L111.011 77.652H108.786L108.851 77.0355Z" fill="black"/>
<path opacity="0.1" d="M121.813 77.0059H117.678V77.6518H121.813V77.0059Z" fill="black"/>
<path opacity="0.1" d="M130.614 77.652H128.391L128.323 76.9766L130.55 77.0355L130.614 77.652Z" fill="black"/>
<path d="M105.112 75.7432H134.67C135.008 75.7432 135.333 75.8776 135.572 76.117C135.811 76.3563 135.945 76.6809 135.945 77.0194V77.2982H103.836V77.0194C103.836 76.6809 103.971 76.3563 104.21 76.117C104.449 75.8776 104.773 75.7432 105.112 75.7432Z" fill="#DDA2A6"/>
<path d="M98.6308 50.977C98.1854 50.7414 93.3332 47.0737 93.3332 47.0737L85.5026 42.1043C85.5026 42.1043 85.4615 41.9865 85.3869 41.7843C87.5353 39.3437 87.0664 35.8017 84.8807 33.3121C82.2319 30.2924 70.2633 23.7915 66.6571 29.3519C66.1528 30.1373 66.1352 31.0287 66.0037 31.8926C65.6957 33.909 64.7029 35.8626 63.145 37.5079C61.9442 38.7783 60.3687 39.9485 59.678 41.3857C59.678 41.368 59.6643 41.3503 59.6584 41.3307C59.4917 41.6387 59.3707 41.9695 59.2994 42.3124C58.956 44.0657 60.1332 45.7464 60.7591 47.4526C60.9692 48.0304 61.1217 48.6276 61.2143 49.2354C61.23 49.1137 61.2438 48.9939 61.2575 48.8722C61.41 49.7377 61.462 50.6179 61.4125 51.4953C57.0665 52.3808 57.0646 59.8202 57.0646 59.8202C57.0646 59.8202 56.5289 62.7771 56.6192 63.8432C56.7094 64.9093 56.7075 67.2144 56.7075 67.77C56.7075 68.3257 56.1718 71.7911 56.1189 72.2074C56.1194 72.2132 56.1194 72.2191 56.1189 72.225C56.0404 72.6805 55.2261 74.8756 57.1941 75.3665C57.3314 75.4018 57.4766 75.4313 57.6277 75.4588C57.712 77.2357 57.8651 80.9563 57.7297 81.7849C57.7297 81.7849 58.4459 86.7837 59.0404 88.0541C59.4163 88.7989 59.8561 89.5097 60.3549 90.1785C60.3118 90.4829 60.2091 90.7758 60.0528 91.0404C59.7487 91.4783 59.9056 91.8376 60.4138 91.9927C60.3961 92.1439 60.3765 92.3147 60.3549 92.5071C60.1372 94.4352 59.8114 98.2677 60.3647 100.21C61.1241 102.872 61.1692 103.759 61.1692 103.759C61.1692 103.759 61.1692 104.557 61.4831 105C61.7971 105.444 62.3759 109.571 62.3759 110.237C62.3759 110.902 63.8945 116.891 63.4471 118.31C62.9998 119.73 63.3589 121.727 63.3589 121.727C63.3589 121.727 63.0901 125.231 62.7702 125.985C62.4504 126.739 62.3229 138.895 62.8134 142.044C63.3039 145.193 63.6178 147.811 63.6178 147.811C63.6178 147.811 63.3059 150.695 63.5727 151.093C63.8396 151.492 64.332 153.889 63.9749 154.021C63.6178 154.152 63.4393 155.13 63.4393 155.13C63.6281 155.417 63.8318 155.695 64.0495 155.961C63.9118 155.913 63.7775 155.856 63.6473 155.79C63.7885 155.986 64.0004 156.265 64.2614 156.575L64.0161 159.766C64.0058 159.89 64.0395 160.014 64.1112 160.117C64.1828 160.219 64.2881 160.293 64.4086 160.325C65.192 160.538 66.0186 160.535 66.8002 160.315C67.5817 160.095 68.2891 159.667 68.8467 159.077C71.0796 156.815 71.8389 157.125 72.2411 155.751C72.2843 155.603 72.3215 155.458 72.3529 155.321C72.6414 154.095 71.3366 153.184 70.2987 153.707C70.4419 152.737 70.5537 151.635 70.4458 151.013C70.2221 149.727 70.2673 146.356 70.2673 146.356L69.9553 130.207C69.9553 130.207 70.5341 127.012 71.2051 125.771C71.8761 124.53 71.7937 120.181 71.7937 120.181L72.5531 105.896L73.2673 98.9314C73.2673 98.9314 73.9814 96.536 74.8742 99.1984C74.8742 99.1984 74.3837 104.564 74.6073 105.852C74.831 107.14 75.143 113.394 74.9193 114.768C74.6956 116.143 73.7146 123.686 74.3307 125.593C74.9468 127.499 75.6335 129.81 75.4961 130.566C75.3588 131.322 74.9075 147.689 74.9075 147.689C74.9075 147.689 76.1142 150.83 75.2215 151.859C74.3287 152.888 75.1763 156.964 75.1763 156.964C75.1763 156.964 75.2842 157.041 75.4687 157.147L75.4432 157.486L75.1626 161.156C75.1526 161.281 75.1863 161.405 75.2579 161.507C75.3295 161.61 75.4346 161.684 75.555 161.717C76.3385 161.931 77.1651 161.927 77.9467 161.707C78.7283 161.487 79.4356 161.059 79.9932 160.469C82.226 158.205 82.9853 158.517 83.3876 157.141C83.4307 156.993 83.468 156.85 83.5013 156.711C83.8153 155.374 82.226 154.404 81.1626 155.277L81.1096 155.323C81.054 155.37 80.9957 155.414 80.935 155.454C80.9068 155.475 80.8773 155.494 80.8467 155.511C81.0704 154.498 81.3961 152.762 81.2391 151.949C81.0154 150.752 81.4608 147.116 81.4608 147.116C81.4608 147.116 82.7558 142.767 82.8009 141.029L83.158 127.189C83.158 127.189 83.1148 121.554 83.2934 120.179C83.4719 118.805 84.9003 106.915 86.3287 103.365C87.4255 100.647 87.916 93.7126 87.6256 90.1962C87.6099 90.0234 87.5942 89.8565 87.5746 89.7014C89.3267 88.4075 89.5013 86.2556 89.5013 86.2556C89.5013 86.2556 87.8924 83.1809 86.3444 81.8791C84.7963 80.5774 84.4628 78.3391 84.5177 77.3868C84.544 76.8066 84.353 76.2374 83.9821 75.7906C83.9821 75.7906 83.2679 73.4836 82.7911 73.248C82.7521 73.2281 82.7169 73.2015 82.6871 73.1694C82.3634 72.8219 82.6125 71.8284 82.6125 71.8284V71.797C82.6694 71.5673 83.0049 70.079 82.9049 69.6981C82.7852 69.2858 82.9637 67.3322 82.9637 67.3322C82.9637 67.3322 84.0958 63.961 83.9173 61.2986C83.7388 58.6362 86.2404 58.8738 86.2404 58.8738L93.965 58.7933H94.844C95.154 58.5299 95.4372 58.2366 95.6897 57.9176C97.1612 57.7429 100.138 57.1872 100.471 55.5615C100.924 53.4037 99.0781 51.2145 98.6308 50.977ZM62.8428 75.5903L62.8958 74.2375C63.0783 74.3946 63.1999 74.4947 63.1999 74.4947C63.2984 74.8487 63.3032 75.2222 63.2137 75.5785C63.1657 75.7459 63.0807 75.9002 62.9648 76.0301C62.849 76.16 62.7053 76.262 62.5446 76.3286C62.5073 76.3448 62.4712 76.3638 62.4367 76.3855L62.3621 75.6217L62.8428 75.5903ZM90.861 51.833C90.5334 51.6858 89.4307 51.7152 88.8637 51.7152C88.2966 51.7152 87.3764 51.242 87.3764 51.242C87.1802 50.8592 86.0952 50.6314 85.1299 50.5018C84.3961 48.6915 83.364 46.9264 83.2247 45.0396C83.2247 44.9709 83.2247 44.9022 83.2149 44.8334L83.3267 45.0298C83.3267 45.0298 87.8238 47.9003 88.33 48.7603C88.7224 49.416 90.6119 50.8808 91.4869 51.5365C91.3664 51.6938 91.1975 51.807 91.0062 51.8585C90.9564 51.8639 90.906 51.8551 90.861 51.833Z" fill="url(#paint0_linear)"/>
<path d="M83.4347 156.722C83.4014 156.86 83.3661 157.003 83.3229 157.149C82.9305 158.523 82.179 158.205 79.9874 160.449C79.4413 161.035 78.7456 161.46 77.9754 161.679C77.2053 161.897 76.3901 161.901 75.6179 161.69C75.4974 161.658 75.392 161.585 75.3202 161.483C75.2484 161.381 75.2149 161.257 75.2255 161.132L75.5021 157.492L75.6336 155.741C75.6336 155.741 79.1339 156.722 80.9155 155.476C80.9752 155.435 81.0329 155.391 81.0881 155.344C81.1019 155.332 81.115 155.319 81.1274 155.305C81.3573 155.114 81.641 155.001 81.9388 154.98C82.2366 154.959 82.5335 155.031 82.7878 155.188C83.0422 155.344 83.2414 155.576 83.3574 155.851C83.4734 156.126 83.5004 156.431 83.4347 156.722Z" fill="#67647E"/>
<path d="M72.4473 155.348C72.4139 155.485 72.3786 155.629 72.3354 155.774C71.943 157.148 71.1915 156.83 68.9999 159.074C68.4538 159.66 67.7581 160.085 66.9879 160.304C66.2178 160.523 65.4026 160.527 64.6304 160.315C64.5099 160.283 64.4045 160.21 64.3327 160.108C64.2609 160.006 64.2274 159.882 64.238 159.758L64.5147 156.118L64.6461 154.366C64.6461 154.366 68.1464 155.348 69.928 154.101C69.9877 154.06 70.0454 154.016 70.1006 153.97C70.1144 153.957 70.1275 153.944 70.1399 153.93C70.3698 153.74 70.6535 153.626 70.9513 153.605C71.2491 153.584 71.546 153.657 71.8004 153.813C72.0547 153.969 72.2539 154.201 72.3699 154.477C72.4859 154.752 72.513 155.057 72.4473 155.348Z" fill="#67647E"/>
<path opacity="0.1" d="M68.8311 155.893L68.9723 157.786C66.9632 159.795 64.5714 156.804 63.871 155.823C65.7133 156.773 68.8311 155.893 68.8311 155.893Z" fill="black"/>
<path opacity="0.1" d="M80.6407 156.663L80.9036 156.489C79.0691 159.281 76.3438 157.993 75.4942 157.492L75.6257 155.741C75.6257 155.741 79.126 156.722 80.9075 155.476C80.7682 156.159 80.6407 156.663 80.6407 156.663Z" fill="black"/>
<path d="M86.2287 103.803C84.8199 107.323 83.4131 119.117 83.2365 120.492C83.0599 121.866 83.1051 127.446 83.1051 127.446L82.7519 141.168C82.7068 142.886 81.4314 147.2 81.4314 147.2C81.4314 147.2 80.9919 150.809 81.2117 151.996C81.4314 153.184 80.6407 156.316 80.6407 156.316L80.9036 156.139C78.7042 159.477 75.2294 156.976 75.2294 156.976C75.2294 156.976 74.3935 152.927 75.2745 151.914C76.1554 150.901 74.9664 147.777 74.9664 147.777C74.9664 147.777 75.4059 131.536 75.5374 130.788C75.6689 130.04 75.0096 127.75 74.3935 125.858C73.7774 123.965 74.7467 116.482 74.9664 115.118C75.1862 113.753 74.8781 107.547 74.6584 106.271C74.4386 104.994 74.9213 99.6676 74.9213 99.6676C74.0423 97.0268 73.3379 99.4045 73.3379 99.4045L72.6335 106.314L71.886 120.488C71.886 120.488 71.9743 124.807 71.315 126.034C70.6558 127.261 70.0829 130.434 70.0829 130.434L70.3909 146.458C70.3909 146.458 70.3477 149.795 70.5675 151.078C70.7873 152.36 70.0829 155.656 70.0829 155.656C67.6205 161.462 63.665 155.167 63.665 155.167C63.665 155.167 63.8416 154.199 64.1928 154.068C64.544 153.936 64.0613 151.559 63.8004 151.162C63.5394 150.765 63.8435 147.905 63.8435 147.905C63.8435 147.905 63.5355 145.309 63.0587 142.183C62.5819 139.058 62.7075 126.998 63.0155 126.25C63.3236 125.502 63.5865 122.025 63.5865 122.025C63.5865 122.025 63.2353 120.044 63.6748 118.634C64.1143 117.224 62.6192 111.285 62.6192 110.623C62.6192 109.962 62.0482 105.87 61.7402 105.43C61.4322 104.99 61.4322 104.197 61.4322 104.197C61.4322 104.197 61.389 103.318 60.6473 100.677C60.1019 98.7487 60.4237 94.9475 60.6375 93.0332C60.714 92.3244 60.7808 91.8728 60.7808 91.8728C60.7808 91.8728 86.0069 87.7791 87.0135 88.7039C87.2489 88.9218 87.4059 89.6699 87.4981 90.736C87.7983 94.223 87.3039 101.115 86.2287 103.803Z" fill="#444053"/>
<path opacity="0.1" d="M76.6813 123.593C76.799 123.593 79.5851 123.829 80.6054 123.623C81.6257 123.417 76.6813 123.593 76.6813 123.593Z" fill="black"/>
<path opacity="0.1" d="M76.8873 125.237C76.8873 125.237 80.7349 125.912 80.9311 125.561C81.1273 125.209 76.8873 125.237 76.8873 125.237Z" fill="black"/>
<path opacity="0.1" d="M65.1286 124.532C65.1286 124.532 67.1221 124.621 68.2071 125.121C69.2921 125.622 65.1286 124.532 65.1286 124.532Z" fill="black"/>
<path d="M57.8846 75.178C57.8846 75.178 58.2064 81.3098 58.0318 82.3956C58.0318 82.3956 58.7342 87.3551 59.3209 88.6156C59.9075 89.8762 61.1691 91.4626 61.1691 91.4626L62.8997 79.2894L62.4876 75.1191L57.8846 75.178Z" fill="#EFB7B9"/>
<path d="M76.0653 47.2424C79.8059 47.2424 82.8383 44.2079 82.8383 40.4647C82.8383 36.7215 79.8059 33.687 76.0653 33.687C72.3246 33.687 69.2922 36.7215 69.2922 40.4647C69.2922 44.2079 72.3246 47.2424 76.0653 47.2424Z" fill="#EFB7B9"/>
<path d="M72.5473 43.6317C72.5473 43.6317 70.4361 47.7706 68.325 49.7065C66.2138 51.6424 80.992 53.8434 81.3432 53.8434C81.6944 53.8434 78.7043 45.0414 79.2321 43.9792C79.7599 42.917 72.5473 43.6317 72.5473 43.6317Z" fill="#EFB7B9"/>
<path opacity="0.1" d="M87.502 90.736C87.1703 90.9894 86.8043 91.1944 86.415 91.3447C83.7191 92.401 80.7858 93.8677 78.7924 93.2826C76.7989 92.6975 72.5766 93.2826 72.5766 93.2826C72.5766 93.2826 64.0711 92.5777 62.3739 92.988C61.6008 93.1746 61.0004 93.1667 60.608 93.0332C60.6846 92.3244 60.7513 91.8728 60.7513 91.8728C60.7513 91.8728 86.0069 87.7791 87.0134 88.7039C87.2528 88.9218 87.4058 89.6699 87.502 90.736Z" fill="black"/>
<path d="M89.3483 86.8247C89.3483 86.8247 89.1148 89.76 86.415 90.8163C83.7152 91.8726 80.7859 93.3393 78.7924 92.7542C76.799 92.1691 72.5766 92.7542 72.5766 92.7542C72.5766 92.7542 64.0711 92.0493 62.3739 92.4597C60.6767 92.87 59.7918 92.3438 60.3196 91.58C60.8474 90.8163 60.7905 88.2933 60.7905 87.237C60.7905 86.1807 60.2019 81.8965 60.7297 81.1327C61.2575 80.369 61.7264 77.4356 62.782 76.9644C62.9405 76.8976 63.082 76.7961 63.1961 76.6673C63.3102 76.5385 63.394 76.3857 63.4413 76.2203C63.5285 75.867 63.5238 75.4972 63.4275 75.1463C63.4275 75.1463 63.249 74.999 63.0037 74.7811C62.3818 74.2254 61.3301 73.1946 61.6676 72.8569C62.1365 72.3857 61.6676 69.3346 61.6676 69.3346C61.6676 69.3346 60.5531 66.9883 60.9651 66.1087C61.3772 65.2291 57.3864 60.5915 57.3864 60.5915C57.3864 60.5915 57.3864 52.6122 62.1954 52.2588C62.1954 52.2588 65.5976 52.3766 66.0076 50.851C66.4177 49.3254 69.1155 48.4438 69.1155 48.4438L75.2744 49.7947C75.2744 49.7947 80.727 50.9727 81.7257 50.2639C82.7244 49.5551 83.4915 51.2024 83.4915 51.2024C83.4915 51.2024 86.8918 51.3792 87.243 52.084C87.5942 52.7889 86.1305 59.653 86.1305 59.653C86.1305 59.653 83.6662 59.4193 83.8428 62.0601C84.0193 64.7009 82.8931 68.0466 82.8931 68.0466C82.8931 68.0466 82.7165 69.9825 82.8343 70.3929C82.9441 70.7718 82.6027 72.2483 82.5478 72.476V72.5055C82.5478 72.5055 82.3025 73.4872 82.6204 73.8367C82.6498 73.8683 82.6843 73.8948 82.7224 73.9152C83.1933 74.1489 83.8997 76.4382 83.8997 76.4382C84.2658 76.8826 84.4539 77.4473 84.4274 78.0227C84.3705 78.9632 84.7218 81.1916 86.2463 82.4836C87.7708 83.7755 89.3483 86.8247 89.3483 86.8247Z" fill="#A36468"/>
<path d="M63.1921 73.2337V73.4831L63.0861 76.2319C63.0861 76.2319 59.4779 76.5244 57.5139 76.0355C55.5498 75.5466 56.3759 73.3653 56.4544 72.9137C56.4551 72.9078 56.4551 72.9019 56.4544 72.896C56.5113 72.4837 57.043 69.0517 57.043 68.494C57.043 67.9364 57.043 65.6471 56.9547 64.5908C56.8664 63.5345 57.3863 60.5913 57.3863 60.5913L57.767 60.124L61.8991 61.7085L63.1921 73.2337Z" fill="#A36468"/>
<path opacity="0.1" d="M63.1824 73.4893L63.0764 76.2381C63.0764 76.2381 59.4682 76.5306 57.5042 76.0417C55.5401 75.5529 56.3662 73.3715 56.4446 72.9199L63.1824 73.4893Z" fill="black"/>
<path opacity="0.1" d="M63.4413 76.2223C63.5285 75.869 63.5238 75.4992 63.4275 75.1483C63.4275 75.1483 63.249 75.001 63.0037 74.7831C66.1097 74.3492 78.4098 72.6606 82.5517 72.4761V72.5055C82.5517 72.5055 82.3065 73.4872 82.6243 73.8367L63.4413 76.2223Z" fill="black"/>
<path opacity="0.1" d="M83.0149 78.3389C83.0149 78.3389 83.7781 82.6584 80.9332 84.1781C80.9312 84.1859 82.546 82.0438 83.0149 78.3389Z" fill="black"/>
<path opacity="0.1" d="M64.3949 84.3016C64.3949 84.3016 71.2621 83.1236 72.6061 84.0385C73.9501 84.9535 64.3949 84.3016 64.3949 84.3016Z" fill="black"/>
<path opacity="0.1" d="M80.6406 57.5698C80.6406 57.5698 79.585 61.9129 80.3757 62.9103C81.1664 63.9077 80.6406 57.5698 80.6406 57.5698Z" fill="black"/>
<path opacity="0.1" d="M60.7591 54.02C60.7591 54.02 61.7264 55.6339 61.1397 57.3068C60.5531 58.9796 60.7591 54.02 60.7591 54.02Z" fill="black"/>
<path opacity="0.1" d="M58.7599 68.1646C58.7599 68.1646 59.9921 68.8969 59.582 70.0416C59.1719 71.1862 58.7599 68.1646 58.7599 68.1646Z" fill="black"/>
<path opacity="0.1" d="M58.648 64.8188C58.648 64.8188 59.7899 65.4354 59.9371 66.3444C60.0842 67.2535 58.648 64.8188 58.648 64.8188Z" fill="black"/>
<path opacity="0.1" d="M75.5961 99.9128C75.5961 99.9128 82.7812 100.647 84.2174 98.9448C84.2174 98.9546 77.7367 100.237 75.5961 99.9128Z" fill="black"/>
<path opacity="0.1" d="M63.1922 99.5024C63.1922 99.5024 70.9051 101.323 72.4296 99.8833C72.4296 99.8833 65.8017 100.382 63.1922 99.5024Z" fill="black"/>
<path opacity="0.1" d="M76.1536 102.292C76.1536 102.292 79.3792 102.292 80.8743 102.381C82.3694 102.469 76.1536 102.292 76.1536 102.292Z" fill="black"/>
<path opacity="0.1" d="M63.72 103.667C63.72 103.667 65.3034 105.458 67.0927 105.136C68.8821 104.814 63.72 103.667 63.72 103.667Z" fill="black"/>
<path d="M66.8298 30.3627C66.3334 31.1344 66.3157 32.0277 66.1862 32.8838C65.8841 34.8845 64.905 36.8224 63.3726 38.4559C61.9658 39.9521 60.0371 41.3088 59.6722 43.1367C59.3269 44.8724 60.4982 46.5432 61.1123 48.2416C62.731 52.6966 60.4708 57.3695 59.8115 61.9678C59.629 63.2381 59.8488 64.8619 61.4125 65.284C61.9011 65.4175 62.4603 65.3999 62.8998 65.6119C63.4884 65.8946 63.6689 66.4817 63.7768 67.0099C64.1704 68.8991 64.3063 70.833 64.181 72.7587C64.1104 73.8386 64.0319 75.0815 65.0522 75.8236C65.5152 76.1633 66.1391 76.3361 66.7415 76.499C68.3484 76.933 70.4262 77.2844 71.5093 76.2654C71.9645 75.8393 72.1352 75.2385 72.7022 74.9008C73.5518 74.3962 74.7565 74.7379 75.8258 74.7909C78.0214 74.9008 80.0384 73.6128 80.9036 72.0598C81.7689 70.5067 81.6885 68.722 81.3745 67.0472C81.0606 65.3724 80.4995 63.7094 80.4602 62.009C80.4465 61.42 80.4995 60.8212 80.8369 60.2989C81.4903 59.2878 83.0109 58.8283 84.0508 58.0331C85.9991 56.5409 85.9932 54.0965 85.2849 52.0506C84.5766 50.0047 83.3052 48.0433 83.1482 45.9287C83.0782 45.4175 83.1796 44.8975 83.4367 44.4502C83.7153 44.0203 84.2019 43.6983 84.6139 43.3429C87.4569 40.9397 87.1214 36.9932 84.7709 34.2915C82.1692 31.2973 70.3811 24.8475 66.8298 30.3627Z" fill="#E78830"/>
<g opacity="0.1">
<path opacity="0.1" d="M61.4734 50.0914C61.6951 48.3067 61.6539 46.5376 61.0241 44.8C60.7141 43.9479 60.2648 43.1016 59.9371 42.2476C59.7734 42.5564 59.6545 42.8869 59.5839 43.2293C59.2386 44.9649 60.41 46.6358 61.0241 48.3341C61.2308 48.9038 61.3813 49.4924 61.4734 50.0914Z" fill="black"/>
<path opacity="0.1" d="M64.0927 69.3171C64.2178 67.3914 64.0825 65.4577 63.6905 63.5682C63.5806 63.04 63.4001 62.4549 62.8115 62.1722C62.372 61.9602 61.8128 61.9759 61.3243 61.8443C61.0241 61.7723 60.7443 61.6326 60.5063 61.436C60.2683 61.2393 60.0783 60.9908 59.9508 60.7095C59.8606 61.1571 59.7821 61.6028 59.7173 62.0505C59.5349 63.3208 59.7546 64.9446 61.3184 65.3667C61.8069 65.4982 62.3661 65.4806 62.8056 65.6926C63.3942 65.9753 63.5747 66.5624 63.6846 67.0906C63.8646 67.9668 63.9904 68.8533 64.0613 69.7451C64.0751 69.5998 64.0829 69.4584 64.0927 69.3171Z" fill="black"/>
<path opacity="0.1" d="M80.8172 68.6201C79.95 70.1791 77.933 71.4612 75.7375 71.3512C74.6682 71.2963 73.4634 70.9585 72.6158 71.4612C72.0488 71.7969 71.8761 72.3997 71.4209 72.8258C70.3379 73.8369 68.2601 73.4933 66.6531 73.0594C66.0508 72.8945 65.4288 72.7237 64.9638 72.384C64.5207 72.0578 64.2216 71.572 64.1299 71.0292C64.1417 71.632 64.1299 72.2367 64.0927 72.8395C64.022 73.9194 63.9435 75.1622 64.9638 75.9063C65.4288 76.2441 66.0508 76.4168 66.6531 76.5798C68.2601 77.0137 70.3379 77.3652 71.4209 76.3462C71.8761 75.9201 72.0488 75.3193 72.6158 74.9718C73.4634 74.4672 74.6682 74.8088 75.7375 74.8618C77.933 74.9718 79.95 73.6838 80.8172 72.1307C81.6492 70.6307 81.6119 68.9343 81.3215 67.3145C81.2121 67.7702 81.0425 68.2092 80.8172 68.6201Z" fill="black"/>
<path opacity="0.1" d="M84.5335 39.9111C84.1136 40.2645 83.627 40.5885 83.3563 41.0185C83.0992 41.4658 82.9978 41.9858 83.0679 42.4969C83.1248 43.1395 83.2606 43.7725 83.472 44.3818C83.7988 44.0331 84.1567 43.715 84.5414 43.4315C86.4642 41.8078 86.9312 39.4772 86.3072 37.3018C85.978 38.3236 85.3623 39.2293 84.5335 39.9111Z" fill="black"/>
<path opacity="0.1" d="M83.9625 54.5916C82.9246 55.3868 81.402 55.8482 80.7506 56.8593C80.4112 57.3816 80.3582 57.9844 80.3719 58.5675C80.396 59.2542 80.4801 59.9374 80.6231 60.6095C80.6602 60.53 80.7028 60.4533 80.7506 60.3797C81.402 59.3686 82.9246 58.9091 83.9625 58.114C85.7421 56.7513 85.8912 54.5955 85.3654 52.6733C85.0986 53.438 84.6102 54.1059 83.9625 54.5916Z" fill="black"/>
</g>
<path d="M94.6262 58.7734C94.6262 58.7734 99.7001 58.5103 100.14 56.3682C100.579 54.2261 98.7661 52.0487 98.3227 51.819C97.8793 51.5892 93.0958 47.9452 93.0958 47.9452L85.3849 43.017C85.3849 43.017 81.6903 32.4145 80.8722 36.4729C80.054 40.5313 83.2482 45.9209 83.2482 45.9209C83.2482 45.9209 87.6746 48.7678 88.173 49.618C88.6713 50.4681 91.7223 52.6986 91.7223 52.6986L94.6262 58.7734Z" fill="#EFB7B9"/>
<path d="M97.3536 55.31C96.1529 58.3631 94.597 59.5667 94.597 59.5667H93.7317L86.1248 59.6453L85.2477 57.2479L86.4799 52.0527L87.2412 52.0841C87.2412 52.0841 88.1516 52.5534 88.7069 52.5534C89.2621 52.5534 90.3511 52.524 90.6689 52.6692C90.7133 52.691 90.7633 52.6985 90.8121 52.6908C91.1006 52.6614 91.4008 52.2294 91.4008 52.2294C91.4008 52.2294 98.5564 52.2589 97.3536 55.31Z" fill="#A36468"/>
<path opacity="0.1" d="M97.3535 55.3101C96.1527 58.3632 94.5968 59.5668 94.5968 59.5668H93.7315C94.1828 58.3573 95.1344 55.8756 95.4974 55.3023C95.8525 54.7604 92.6661 53.4115 90.8022 52.6831C91.0906 52.6536 91.3908 52.2217 91.3908 52.2217C91.3908 52.2217 98.5562 52.259 97.3535 55.3101Z" fill="black"/>
<path opacity="0.1" d="M17.8196 151.533C22.607 151.533 26.4879 150.773 26.4879 149.837C26.4879 148.9 22.607 148.14 17.8196 148.14C13.0321 148.14 9.15118 148.9 9.15118 149.837C9.15118 150.773 13.0321 151.533 17.8196 151.533Z" fill="#0044FF"/>
<path opacity="0.1" d="M162.317 139.882C165.804 139.882 168.631 139.329 168.631 138.647C168.631 137.965 165.804 137.412 162.317 137.412C158.83 137.412 156.003 137.965 156.003 138.647C156.003 139.329 158.83 139.882 162.317 139.882Z" fill="#0044FF"/>
<path opacity="0.1" d="M189.686 144.887C193.173 144.887 196 144.334 196 143.652C196 142.97 193.173 142.417 189.686 142.417C186.199 142.417 183.372 142.97 183.372 143.652C183.372 144.334 186.199 144.887 189.686 144.887Z" fill="#0044FF"/>
<path opacity="0.1" d="M147.307 155.195C150.795 155.195 153.621 154.642 153.621 153.96C153.621 153.278 150.795 152.725 147.307 152.725C143.82 152.725 140.994 153.278 140.994 153.96C140.994 154.642 143.82 155.195 147.307 155.195Z" fill="#0044FF"/>
<path d="M32.4024 102.746C32.4024 102.746 33.8229 104.605 31.7471 107.409C29.6712 110.213 27.9623 112.581 28.6568 114.33C28.6568 114.33 31.7863 109.121 34.335 109.049C36.8837 108.976 35.2062 105.88 32.4024 102.746Z" fill="#0044FF"/>
<path opacity="0.1" d="M32.4024 102.746C32.5267 102.928 32.6245 103.126 32.6928 103.335C35.1787 106.259 36.5031 108.986 34.1133 109.055C31.8884 109.117 29.218 113.101 28.5784 114.106C28.5988 114.185 28.6244 114.261 28.6549 114.336C28.6549 114.336 31.7844 109.127 34.3331 109.055C36.8818 108.982 35.2062 105.88 32.4024 102.746Z" fill="black"/>
<path d="M35.0413 105.114C35.0413 105.768 34.9687 106.292 34.8784 106.292C34.7882 106.292 34.7136 105.762 34.7136 105.114C34.7136 104.466 34.8058 104.768 34.8961 104.768C34.9864 104.768 35.0413 104.452 35.0413 105.114Z" fill="#FFD037"/>
<path d="M35.9479 105.895C35.375 106.208 34.8747 106.398 34.8315 106.318C34.7883 106.237 35.2239 105.925 35.7909 105.607C36.358 105.289 36.1382 105.522 36.1834 105.607C36.2285 105.691 36.5208 105.581 35.9479 105.895Z" fill="#FFD037"/>
<path d="M24.9054 102.746C24.9054 102.746 23.4848 104.605 25.5607 107.409C27.6366 110.213 29.3455 112.581 28.6568 114.33C28.6568 114.33 25.5175 109.121 22.9669 109.049C20.4162 108.976 22.1016 105.88 24.9054 102.746Z" fill="#0044FF"/>
<path opacity="0.1" d="M24.9055 102.746C24.7812 102.928 24.6834 103.126 24.6151 103.335C22.1291 106.259 20.8048 108.986 23.1945 109.055C25.4195 109.117 28.0997 113.101 28.7295 114.106C28.7088 114.184 28.6839 114.261 28.655 114.336C28.655 114.336 25.5157 109.127 22.965 109.055C20.4143 108.982 22.1017 105.88 24.9055 102.746Z" fill="black"/>
<path d="M22.2663 105.114C22.2663 105.768 22.3389 106.292 22.4291 106.292C22.5194 106.292 22.594 105.762 22.594 105.114C22.594 104.466 22.5017 104.768 22.4115 104.768C22.3212 104.768 22.2663 104.452 22.2663 105.114Z" fill="#FFD037"/>
<path d="M21.36 105.895C21.9349 106.208 22.4332 106.398 22.4784 106.318C22.5235 106.237 22.0859 105.925 21.5169 105.607C20.9479 105.289 21.1697 105.522 21.1245 105.607C21.0794 105.691 20.7871 105.581 21.36 105.895Z" fill="#FFD037"/>
<path opacity="0.1" d="M28.6531 128.541C36.8506 128.541 43.4961 127.521 43.4961 126.262C43.4961 125.003 36.8506 123.982 28.6531 123.982C20.4555 123.982 13.8101 125.003 13.8101 126.262C13.8101 127.521 20.4555 128.541 28.6531 128.541Z" fill="#0044FF"/>
<path d="M36.2931 111.827L36.2225 112.416L36.1224 113.235L36.0812 113.576L35.9812 114.397L35.938 114.739L35.8379 115.557L34.7039 124.872C34.6018 125.704 33.2441 126.352 31.6038 126.352H25.7137C24.0734 126.352 22.7177 125.704 22.6156 124.872L21.4796 115.555L21.3795 114.737L21.3383 114.395L21.2363 113.574L21.1951 113.233L21.095 112.414L21.0244 111.825C20.9675 111.354 21.7013 110.957 22.6294 110.957H34.6999C35.6162 110.959 36.352 111.356 36.2931 111.827Z" fill="#65617D"/>
<path d="M36.2206 112.406L36.1225 113.227H21.1834L21.0853 112.406H36.2206Z" fill="#9D9CB5"/>
<path d="M36.0793 113.568L35.9812 114.387H21.3266L21.2266 113.568H36.0793Z" fill="#9D9CB5"/>
<path d="M35.9379 114.729L35.8379 115.548H21.4677L21.3677 114.729H35.9379Z" fill="#9D9CB5"/>
<path opacity="0.1" d="M35.3153 30.6342C38.7286 30.6342 41.4957 27.8651 41.4957 24.4494C41.4957 21.0337 38.7286 18.2646 35.3153 18.2646C31.9019 18.2646 29.1348 21.0337 29.1348 24.4494C29.1348 27.8651 31.9019 30.6342 35.3153 30.6342Z" fill="#0044FF"/>
<path opacity="0.1" d="M22.3656 13.5523C24.4787 13.5523 26.1916 11.8382 26.1916 9.72368C26.1916 7.60917 24.4787 5.89502 22.3656 5.89502C20.2526 5.89502 18.5396 7.60917 18.5396 9.72368C18.5396 11.8382 20.2526 13.5523 22.3656 13.5523Z" fill="#0044FF"/>
<path opacity="0.1" d="M2.35459 20.6204C3.65493 20.6204 4.70906 19.5655 4.70906 18.2643C4.70906 16.9631 3.65493 15.9082 2.35459 15.9082C1.05425 15.9082 0.00012207 16.9631 0.00012207 18.2643C0.00012207 19.5655 1.05425 20.6204 2.35459 20.6204Z" fill="#0044FF"/>
<defs>
<linearGradient id="paint0_linear" x1="78.2116" y1="161.867" x2="78.2116" y2="27.1765" gradientUnits="userSpaceOnUse">
<stop stop-color="#808080" stop-opacity="0.25"/>
<stop offset="0.54" stop-color="#808080" stop-opacity="0.12"/>
<stop offset="1" stop-color="#808080" stop-opacity="0.1"/>
</linearGradient>
</defs>
</svg>
