<?xml version="1.0" encoding="utf-8"?>
<!-- Generator: Adobe Illustrator 22.0.1, SVG Export Plug-In . SVG Version: 6.00 Build 0)  -->
<svg version="1.1" id="Layer_1" xmlns="http://www.w3.org/2000/svg" xmlns:xlink="http://www.w3.org/1999/xlink" x="0px" y="0px"
	 viewBox="0 0 506.2 434" style="enable-background:new 0 0 506.2 434;" xml:space="preserve">
<style type="text/css">
	.st0{fill:#2693CF;}
	.st1{fill:#80C241;}
	.st2{fill:#2DAFE1;}
	.st3{fill:#358A9F;}
	.st4{fill:#4EB64D;}
	.st5{fill:#4AB49F;}
	.st6{fill:#72CEF2;}
</style>
<g>
	<path class="st0" d="M289.7,253.1c0,19.9-16.2,36.1-36.1,36.1c0,0,0,0,0,0c-4.9,0-20.3,0-28.2,7.9c-7.9,7.9-7.9,23.3-7.9,28.2
		c0,19.9-16.1,36.1-36.1,36.1h0c-19.9,0-36.1-16.2-36.1-36.1c0-19.9,16.2-36.1,36.1-36.1h0c4.9,0,20.3,0,28.2-7.9
		c7.9-7.9,7.9-23.3,7.9-28.2c0-20,16.1-36.1,36.1-36.1h0C273.5,217,289.7,233.2,289.7,253.1z"/>
	<circle class="st1" cx="109.1" cy="253.1" r="36.1"/>
	<path class="st2" d="M506.4,180.9c0,19.9-16.1,36.1-36.1,36.1h0c-4.9,0-20.3,0-28.2,7.9c-7.9,7.9-7.9,23.3-7.9,28.2
		c0,19.9-16.2,36.1-36.1,36.1h0c-19.9,0-36.1-16.2-36.1-36.1c0-20,16.2-36.1,36.1-36.1h0c4.9,0,20.3,0,28.2-7.9
		c7.9-7.9,7.9-23.3,7.9-28.2c0-20,16.2-36.1,36.1-36.1h0C490.3,144.8,506.4,160.9,506.4,180.9z"/>
	<path class="st3" d="M361.9,180.9c0,19.9-16.2,36.1-36.1,36.1h0c-19.9,0-36.1-16.2-36.1-36.1c0-2.5,0-7.6-1-13
		c-1-5.5-3-11.3-6.9-15.2c-7.9-7.9-23.3-7.9-28.2-7.9h0c-4.9,0-20.3,0-28.2,7.9c-7.9,7.9-7.9,23.3-7.9,28.2
		c0,19.9-16.2,36.1-36.1,36.1h0c-19.9,0-36.1-16.2-36.1-36.1c0-20,16.2-36.1,36.1-36.1h0c4.9,0,20.3,0,28.2-7.9
		c7.9-7.9,7.9-23.3,7.9-28.2c0-19.9,16.1-36.1,36.1-36.1h0c19.9,0,36.1,16.2,36.1,36.1c0,2.5,0,7.6,1,13c1,5.5,3,11.3,6.9,15.2
		c7.9,7.9,23.3,7.9,28.2,7.9h0C345.8,144.8,361.9,160.9,361.9,180.9z"/>
	<circle class="st4" cx="36.8" cy="180.9" r="36.1"/>
	<circle class="st5" cx="109.1" cy="108.7" r="36.1"/>
	<path class="st6" d="M434.2,108.6c0,20-16.2,36.1-36.1,36.1h0c-19.9,0-36.1-16.2-36.1-36.1c0-2.5,0-7.5-1-13
		c-1-5.5-3-11.3-6.9-15.2c-7.9-7.9-23.3-7.9-28.2-7.9h0c-19.9,0-36.1-16.2-36.1-36.1c0-19.9,16.2-36.1,36.1-36.1
		c19.9,0,36.1,16.2,36.1,36.1c0,2.5,0,7.5,1,13c1,5.5,3,11.3,6.9,15.2c7.9,7.9,23.3,7.9,28.2,7.9h0C418,72.5,434.2,88.7,434.2,108.6
		z"/>
	<circle class="st0" cx="109.1" cy="397.6" r="36.1"/>
</g>
</svg>
