<svg width="738" height="735" viewBox="0 0 738 735" fill="none" xmlns="http://www.w3.org/2000/svg">
<g clip-path="url(#clip0)">
<path d="M737.6 301.76C737.66 274.3 731.97 267.09 719.6 256.65L385.88 5.49C381.181 1.93367 375.455 -0.00161078 369.562 -0.0250531C363.669 -0.0484953 357.927 1.84117 353.2 5.36L25.38 249.47C12.94 259.85 1.29 271.95 1.23 299.41H0.87001L0.0299989 675.41V692.15C0.0168523 697.536 1.06501 702.872 3.11456 707.852C5.16412 712.833 8.17491 717.361 11.9749 721.178C15.775 724.994 20.2898 728.025 25.2614 730.097C30.2331 732.168 35.5641 733.24 40.95 733.25H57.11L367.96 733.94L694.96 734.67C700.346 734.683 705.682 733.635 710.662 731.585C715.643 729.536 720.171 726.525 723.988 722.725C727.805 718.925 730.835 714.41 732.907 709.439C734.978 704.467 736.05 699.136 736.06 693.75L736.93 301.7L737.6 301.76Z" fill="url(#paint0_linear)"/>
<path d="M7.01678 301.158L730.015 302.799L729.221 652.798C729.175 671.83 721.573 690.065 708.085 703.493C694.598 716.921 676.33 724.443 657.298 724.405L76.5297 723.087C57.8399 723.045 39.9324 715.58 26.7468 702.334C13.5611 689.088 6.17731 671.147 6.21971 652.458L7.01678 301.158Z" fill="#E44545"/>
<path d="M7.03001 301.14L6.22001 666.76C6.18814 681.648 12.069 695.939 22.5699 706.492C33.0708 717.046 47.3324 722.998 62.22 723.04L672.98 724.36" fill="#F5F5F5"/>
<path d="M730.07 302.75L729.26 668.36C729.218 683.248 723.266 697.509 712.712 708.01C702.159 718.511 687.868 724.392 672.98 724.36L62.25 723" fill="white"/>
<path d="M353.13 15.27L31.13 252.59C18.91 262.68 7.47 274.45 7.41 301.15L730.8 303.44C730.86 276.74 725.27 269.73 713.1 259.58L385.23 15.36C380.593 11.9122 374.973 10.0429 369.195 10.0267C363.417 10.0105 357.786 11.8483 353.13 15.27V15.27Z" fill="#E44545"/>
<path opacity="0.3" d="M352.72 15.2434L30.72 252.563C18.5 262.653 7.06 274.423 7 301.123L730.39 303.413C730.45 276.713 724.86 269.703 712.69 259.553L384.82 15.3334C380.183 11.8857 374.563 10.0163 368.785 10.0001C363.007 9.98391 357.376 11.8217 352.72 15.2434Z" fill="black"/>
<rect x="158" y="78.5625" width="111.104" height="481.451" transform="rotate(-45 158 78.5625)" fill="black" fill-opacity="0.1"/>
<rect width="111.104" height="481.451" transform="matrix(-0.707107 -0.707107 -0.707107 0.707107 577 78.5625)" fill="black" fill-opacity="0.1"/>
<rect x="163" y="81.3675" width="108" height="468" transform="rotate(-45 163 81.3675)" fill="white"/>
<rect width="108" height="468" transform="matrix(-0.707107 -0.707107 -0.707107 0.707107 570.293 81.3675)" fill="white"/>
</g>
<defs>
<linearGradient id="paint0_linear" x1="368.8" y1="734.72" x2="368.8" y2="4.36396e-05" gradientUnits="userSpaceOnUse">
<stop stop-color="#808080" stop-opacity="0.25"/>
<stop offset="0.54" stop-color="#808080" stop-opacity="0.12"/>
<stop offset="1" stop-color="#808080" stop-opacity="0.1"/>
</linearGradient>
<clipPath id="clip0">
<rect width="737.61" height="734.73" fill="white"/>
</clipPath>
</defs>
</svg>
