<svg width="1150" height="756" viewBox="0 0 1150 756" fill="none" xmlns="http://www.w3.org/2000/svg">
<g clip-path="url(#clip0)">
<path opacity="0.1" d="M1065.62 619.94C1062.03 623.093 1058.37 626.157 1054.62 629.13C1053.99 629.64 1053.34 630.13 1052.7 630.65C1039.34 641.016 1025.31 650.493 1010.7 659.02L1007.97 660.61C1007.31 661.01 1006.66 661.38 1005.97 661.75C990.71 670.56 974.88 678.67 958.86 686.35L958.69 686.44L957.48 687.01C944.56 693.203 931.447 699.13 918.14 704.79L917.82 704.91C911.82 707.437 905.82 709.897 899.82 712.29C897.37 713.29 894.91 714.22 892.45 715.17C887.82 716.94 883.18 718.68 878.5 720.35L877.92 720.57L876.92 720.92L875.67 721.38C863.463 725.74 851.093 729.767 838.56 733.46L838.34 733.52C829.6 736.067 820.803 738.423 811.95 740.59L810.74 740.89C797.74 744.03 784.53 746.73 771.24 748.89L768.18 749.38C758.46 750.907 748.673 752.153 738.82 753.12C683.43 758.47 627.38 754.12 572.33 746.66C461.17 731.58 351.48 703.31 251.44 659C232.24 650.5 213.413 641.4 194.96 631.7C194.81 631.62 194.68 631.54 194.53 631.47C183.483 625.663 172.587 619.613 161.84 613.32C158.69 611.5 155.56 609.64 152.45 607.77C148.623 605.463 144.813 603.13 141.02 600.77C136.02 597.65 131.02 594.45 126.02 591.18L123.68 589.62L122.78 589.01C121.51 588.16 120.26 587.31 119 586.45C72.0001 554.45 30.0901 515.67 10.2901 467.14C-12.5899 411.14 2.05006 340.14 58.7201 307.04C78.2001 295.64 100.84 289.45 123.72 284.34L126.06 283.82C129.93 282.97 133.8 282.15 137.65 281.33C151.14 278.47 164.7 275.63 178.13 272.46C185.13 270.81 192.06 269.08 198.95 267.21L201.77 266.43C218.387 261.972 234.637 256.249 250.38 249.31H250.48C252.17 248.56 253.84 247.78 255.48 246.98C256.54 246.48 257.6 245.98 258.66 245.43C275.66 236.97 293.66 225.24 307.51 211.26C308.62 210.14 309.7 209 310.75 207.86C311.56 206.97 312.36 206.07 313.13 205.17C322.84 193.85 329.56 181.28 330.84 167.94C331.271 163.457 331.069 158.936 330.24 154.51C328.67 146.12 327.15 137.91 326.03 129.9C323.94 114.85 323.23 100.46 326.13 86.59C329.08 72.45 335.77 58.84 348.54 45.64C350.467 43.64 352.543 41.64 354.77 39.64C365.097 30.5796 376.783 23.1964 389.4 17.76C390.96 17.0933 392.53 16.4267 394.11 15.76C429.19 1.56001 471.34 -1.39999 510.72 0.560012C547.511 2.45339 584.069 7.53917 619.98 15.76C622.83 16.4 625.68 17.07 628.51 17.76C659.059 25.1601 689.117 34.4547 718.51 45.59C794.89 74.32 866.98 114.21 934.33 158.23C934.99 158.66 935.65 159.09 936.33 159.53C939.143 161.363 941.94 163.203 944.72 165.05C950.1 168.617 955.433 172.207 960.72 175.82L964.29 178.25C966.05 179.45 967.8 180.653 969.54 181.86L974.9 185.57C975.153 185.722 975.393 185.892 975.62 186.08L980.18 189.24C982.82 191.08 985.44 192.93 988.07 194.79L993.71 198.79C994.88 199.63 996.06 200.46 997.23 201.31L1003.23 205.69L1004.57 206.69C1004.85 206.89 1005.13 207.09 1005.4 207.31L1005.57 207.42C1021.83 219.35 1037.7 231.72 1052.57 244.83L1054.49 246.53L1054.69 246.71C1056.31 248.15 1057.93 249.61 1059.52 251.08C1078.94 268.76 1096.34 287.76 1110.56 308.76C1175.88 405.76 1156.49 540.07 1065.62 619.94Z" fill="#77ACE8"/>
<path d="M811.56 353.76C811.56 353.76 817.38 323.26 836.08 323.1L849.76 351.24L840.56 357.49C840.56 357.49 820.8 358.12 811.56 353.76Z" fill="#65617D"/>
<path opacity="0.1" d="M849.72 351.2L840.56 357.49C840.56 357.49 826.62 357.93 816.66 355.49C814.907 355.083 813.199 354.503 811.56 353.76C811.56 353.76 811.56 353.59 811.66 353.27C811.657 353.23 811.657 353.19 811.66 353.15C812.521 349.323 813.706 345.577 815.2 341.95C815.77 340.58 816.43 339.17 817.13 337.76C819.87 332.49 823.72 327.32 828.99 324.76C830.937 323.806 833.055 323.251 835.22 323.13H835.78H836.05L836.36 323.75L840.98 333.26L849.72 351.2Z" fill="black"/>
<path d="M1005.04 477.91C1005.04 477.91 1024.69 476.03 1026.42 477.44C1028.15 478.85 1039.31 486.09 1045.92 481.53C1052.53 476.97 1048.12 461.09 1048.12 460.46C1048.12 459.83 1047.49 437.35 1047.49 437.35L1035.7 421.47L1020.92 393.65L990.74 390.65L991.52 434.83L991.37 457.47L1005.04 477.91Z" fill="#65617D"/>
<path opacity="0.1" d="M1005.04 477.91C1005.04 477.91 1024.69 476.03 1026.42 477.44C1028.15 478.85 1039.31 486.09 1045.92 481.53C1052.53 476.97 1048.12 461.09 1048.12 460.46C1048.12 459.83 1047.49 437.35 1047.49 437.35L1035.7 421.47L1020.92 393.65L990.74 390.65L991.52 434.83L991.37 457.47L1005.04 477.91Z" fill="black"/>
<path d="M832.11 322.28C832.11 322.28 830.56 341.46 818.56 341.76C818.56 341.76 815.18 339.76 810.62 336.31C800.12 328.46 783.47 313.36 788.07 299.31C794.67 279.19 826.74 316.31 826.74 316.31L829.21 319.07L832.11 322.28Z" fill="#A5636D"/>
<path opacity="0.1" d="M832.11 322.28C832.11 322.28 830.56 341.46 818.56 341.76C818.56 341.76 815.18 339.76 810.62 336.31L809.62 335C811.647 336.063 813.883 336.667 816.17 336.77C819.17 336.83 822.55 335.77 824.72 331.38C825.974 328.912 827.079 326.37 828.03 323.77C828.596 322.244 828.999 320.662 829.23 319.05L832.11 322.28Z" fill="black"/>
<path d="M826.92 357.02L824.23 353.56L815.23 341.91L810.56 335.96C812.585 337.018 814.817 337.619 817.1 337.72C820.1 337.79 823.48 336.72 825.65 332.33C826.908 329.864 828.014 327.322 828.96 324.72C830.45 320.48 830.42 318.3 829.89 317.56C829.36 316.82 833.23 320.41 835.09 322.18L835.16 322.24L836.02 323.06L836.35 323.7L840.9 332.81C840.9 332.81 840.9 332.94 840.9 333.19C841.32 336.08 842.85 354.42 826.92 357.02Z" fill="#E7EFFD"/>
<path d="M1000.64 232.35L977.37 257.2C977.37 257.2 947.51 245.2 950.65 241.2C951.87 239.62 951.65 234.63 950.97 229.12C949.87 220.41 947.51 210.38 947.51 210.38C947.51 210.38 999.7 201.89 995.29 210.7C993.69 213.91 993.96 217.7 994.96 221.14C996.244 225.155 998.162 228.94 1000.64 232.35Z" fill="#A5636D"/>
<path opacity="0.1" d="M995.29 210.66C993.69 213.87 992.92 214.18 993.92 217.66C987.1 224.98 978.42 232.99 967.63 232.99C961.849 233.001 956.145 231.665 950.97 229.09C949.87 220.38 947.51 210.35 947.51 210.35C947.51 210.35 999.7 201.85 995.29 210.66Z" fill="black"/>
<path d="M1005.05 194.62C1005.05 204.544 1001.11 214.062 994.09 221.08C987.072 228.098 977.554 232.04 967.63 232.04C957.706 232.04 948.188 228.098 941.17 221.08C934.152 214.062 930.21 204.544 930.21 194.62C930.21 194.44 930.21 194.26 930.21 194.08C930.425 184.253 934.498 174.905 941.549 168.057C948.6 161.208 958.062 157.409 967.891 157.48C977.72 157.551 987.127 161.486 994.078 168.436C1001.03 175.385 1004.97 184.791 1005.04 194.62H1005.05Z" fill="#A5636D"/>
<path opacity="0.1" d="M1010.46 441.46C1005.46 441.46 989 441.64 970.56 441.93H970.33L964.24 442.03H964.05C942.18 442.38 920.63 438.11 911.98 438.92C893.58 440.65 918.58 421.92 918.58 421.92C932.287 425.245 946.385 426.672 960.48 426.16L965.77 425.88C982.48 424.94 999.28 423.37 1008.06 420.73C1008.67 425.61 1009.56 432.68 1010.46 441.46Z" fill="black"/>
<path d="M1010.46 440.52C1005.46 440.52 989 440.69 970.56 440.99H970.33L964.24 441.09H964.05C942.18 441.44 920.63 437.17 911.98 437.98C893.58 439.7 918.58 420.98 918.58 420.98C932.287 424.305 946.385 425.729 960.48 425.21L965.77 424.94C982.48 424 999.28 422.42 1008.06 419.79C1008.67 424.67 1009.56 431.76 1010.46 440.52Z" fill="#5F5D7E"/>
<path opacity="0.1" d="M957.56 242.76L928.63 256.28L906.32 428.86C906.32 428.86 919.52 422.86 927.07 426.66C934.62 430.46 957.88 426.98 957.88 426.98C957.88 426.98 974.88 425.98 977.37 427.92C979.86 429.86 1009.45 420.06 1009.45 420.06C1009.45 420.06 1014.79 408.11 1010.7 406.23C1006.61 404.35 1011.96 385.76 1011.96 385.76L1009.45 261.25L1004.45 245.25L990.93 237.08L977.1 248.08L970.5 249.03L957.56 242.76Z" fill="black"/>
<path d="M957.56 240.84L928.64 254.36L906.32 426.98C906.32 426.98 919.52 420.98 927.07 424.78C934.62 428.58 957.88 425.09 957.88 425.09C957.88 425.09 974.88 424.15 977.37 426.03C979.86 427.91 1009.45 418.17 1009.45 418.17C1009.45 418.17 1014.79 406.23 1010.7 404.34C1006.61 402.45 1011.96 383.9 1011.96 383.9L1009.45 259.39L1004.45 243.39L990.93 235.21L977.1 246.21L970.5 247.15L957.56 240.84Z" fill="#E7EFFD"/>
<path opacity="0.1" d="M957.09 248.86C957.09 248.86 965.43 258.76 965.27 260.81C965.11 262.86 964.8 267.72 964.8 267.72L958.56 280.46C958.56 280.46 955.1 296.34 955.1 299.64C955.1 302.94 949.6 331.55 949.6 331.55L943 375.55L934.66 433.25L943.15 447.87L953.21 439.38L966.56 336.58L969.39 316.3C969.39 316.3 972.39 279.83 972.39 276.06C972.39 272.29 970.66 262.38 970.66 262.38C970.66 262.38 972.71 252.95 981.2 250.75C989.69 248.55 980.57 250.27 980.57 250.27L975.7 246.34L971.45 248.07C971.45 248.07 959.61 244.46 957.09 248.86Z" fill="black"/>
<path d="M956.15 247.92C956.15 247.92 964.48 257.82 964.33 259.86C964.18 261.9 963.85 266.78 963.85 266.78L957.56 279.52C957.56 279.52 954.1 295.39 954.1 298.69C954.1 301.99 948.6 330.61 948.6 330.61L941.99 374.61L933.66 432.3L942.15 446.92L952.21 438.43L965.56 335.64L968.39 315.36C968.39 315.36 971.39 278.89 971.39 275.11C971.39 271.33 969.66 261.44 969.66 261.44C969.66 261.44 971.66 252 980.19 249.8C988.72 247.6 979.57 249.33 979.57 249.33L974.69 245.4L970.45 247.13C970.45 247.13 958.67 243.51 956.15 247.92Z" fill="#77ACE8"/>
<path opacity="0.1" d="M950.65 231.41C950.65 231.41 949.39 232.35 949.08 238.64C948.77 244.93 944.36 259.08 944.36 259.08C944.36 259.08 960.71 247.76 968.89 249.02L950.65 231.41Z" fill="black"/>
<path d="M950.65 229.52C950.65 229.52 949.39 230.47 949.08 236.75C948.77 243.03 944.36 257.19 944.36 257.19C944.36 257.19 960.71 245.87 968.89 247.13L950.65 229.52Z" fill="#E7EFFD"/>
<path opacity="0.1" d="M995.3 226.38L969.56 249.02C969.56 249.02 991.26 261.91 994.09 265.02C996.92 268.13 999.75 234.21 999.75 234.21L995.3 226.38Z" fill="black"/>
<path d="M996.24 224.49L970.46 247.13C970.46 247.13 992.15 260.02 994.98 263.13C997.81 266.24 1000.64 232.31 1000.64 232.31L996.24 224.49Z" fill="#E7EFFD"/>
<path opacity="0.1" d="M951.56 231.41C951.56 231.41 948.73 229.99 946.06 234.08C943.39 238.17 938.36 240.08 938.36 240.08C938.36 240.08 909.74 244.64 908.64 248.41L895.28 249.19C895.28 249.19 890.56 249.76 890.12 259.76C889.68 269.76 887.12 270.6 887.12 270.6C887.12 270.6 881.61 280.35 882.12 285.38C882.63 290.41 877.87 292.93 877.87 292.93L897.56 343.97C897.56 343.97 898.19 365.04 894.56 372.74C890.93 380.44 884.18 414.56 884.18 414.56C884.18 414.56 887.01 413.93 886.85 415.82C886.69 417.71 883.39 438.3 883.39 438.3C883.39 438.3 882.45 446.47 880.88 449.3C879.31 452.13 879.15 466.91 879.15 466.91L876.56 477.6C876.56 477.6 882.56 490.96 891.66 489.07C900.76 487.18 917.28 451.5 917.28 451.5L927.81 412.99L935.99 374.94L938.35 349.16L942.12 292.09L947.62 254.36C947.62 254.36 953.79 234.08 951.56 231.41Z" fill="black"/>
<path d="M950.65 229.52C950.65 229.52 947.82 228.11 945.15 232.2C942.48 236.29 937.44 238.2 937.44 238.2C937.44 238.2 908.83 242.76 907.73 246.53L894.37 247.32C894.37 247.32 889.65 247.95 889.18 257.85C888.71 267.75 886.18 268.7 886.18 268.7C886.18 268.7 880.68 278.45 881.18 283.48C881.68 288.51 876.94 291.02 876.94 291.02L896.56 342.08C896.56 342.08 897.19 363.15 893.56 370.85C889.93 378.55 883.19 412.67 883.19 412.67C883.19 412.67 886.02 412.04 885.86 413.93C885.7 415.82 882.4 436.41 882.4 436.41C882.4 436.41 881.46 444.58 879.89 447.41C878.32 450.24 878.16 465.02 878.16 465.02L875.66 475.76C875.66 475.76 881.66 489.12 890.75 487.24C899.84 485.36 916.38 449.66 916.38 449.66L926.91 411.15L935.09 373.15L937.44 347.37L941.22 290.31L946.72 252.58C946.72 252.58 952.85 232.2 950.65 229.52Z" fill="#65617D"/>
<path opacity="0.1" d="M849.72 351.2L840.56 357.49C840.56 357.49 826.62 357.93 816.66 355.49L811.58 353.24L810.58 352.79L811.63 353.12C816.89 354.68 821 354.65 824.21 353.57C837.12 349.23 835.69 327.92 835.21 323.1C835.21 322.62 835.13 322.31 835.11 322.19C835.108 322.17 835.108 322.15 835.11 322.13L835.19 322.25C835.362 322.544 835.559 322.821 835.78 323.08C835.96 323.295 836.154 323.499 836.36 323.69V323.69L840.91 332.8C840.91 332.8 840.91 332.93 840.91 333.18L849.72 351.2Z" fill="black"/>
<path d="M881.32 289.76L876.92 291.02L876.29 300.02C876.29 300.02 871.1 299.24 869.69 305.37C868.28 311.5 865.76 314.37 865.76 314.37C865.76 314.37 857.11 321.6 856.64 327.73L851.29 331.03C851.29 331.03 838.87 328.2 836.04 323.17C836.04 323.17 841.7 363.73 811.52 353.83C811.52 353.83 845.32 368.61 846.89 370.65C848.46 372.69 858.84 378.65 868.27 373.65C877.7 368.65 879.75 360.76 879.75 360.76C879.75 360.76 888.87 348.03 889.18 346.14C889.49 344.25 896.57 342.05 896.57 342.05L910.09 309.36L881.32 289.76Z" fill="#65617D"/>
<path opacity="0.1" d="M991.68 245.24L996.24 224.49C996.24 224.49 998.24 231.25 1000.33 232.82C1002.42 234.39 1007.09 238.01 1007.09 238.01C1007.09 238.01 1013.85 241.16 1016.2 241.16C1018.55 241.16 1031.3 244.46 1032.87 246.16C1034.44 247.86 1040.73 246.63 1040.73 246.63C1040.73 246.63 1045.92 248.36 1050.48 249.46C1055.04 250.56 1057.24 258.11 1056.29 261.09C1055.91 262.576 1055.91 264.133 1056.3 265.618C1056.68 267.102 1057.44 268.465 1058.49 269.58C1060.38 271.47 1061.32 277.58 1061.32 277.58C1063.64 278.334 1065.56 279.973 1066.67 282.14C1068.24 285.6 1067.77 293.14 1067.77 293.14L1044.35 326.14C1044.35 326.14 1044.66 338.87 1043.72 341.7C1042.78 344.53 1047.02 392.64 1047.02 392.64L1051.89 475.33C1051.89 475.33 1045.45 480.83 1044.03 481.46C1042.61 482.09 1041.2 452.22 1041.2 451.12C1041.2 450.02 1004.89 396.72 1004.89 396.72C1004.89 396.72 1000.01 388.86 1000.01 387.13C1000.01 385.4 995.45 369.53 995.45 369.53L988.56 338.94L991.68 245.24Z" fill="black"/>
<path d="M1069.72 291.39C1069.72 292.47 1069.66 293.19 1069.66 293.19L1046.25 326.19C1046.25 326.19 1046.57 338.93 1045.63 341.76C1045.08 343.4 1046.28 360.32 1047.39 374.21C1048.18 384.21 1048.93 392.69 1048.93 392.69L1050.99 427.77L1053.79 475.39C1053.79 475.39 1047.35 480.89 1045.94 481.52C1044.53 482.15 1043.11 452.28 1043.11 451.17C1043.11 450.06 1006.77 396.76 1006.77 396.76C1006.77 396.76 1001.9 388.89 1001.9 387.16C1001.9 385.43 997.34 369.55 997.34 369.55L990.43 338.9L993.57 245.2L996.24 224.45C996.24 224.45 1000.17 231.22 1002.24 232.78C1004.31 234.34 1008.99 237.97 1008.99 237.97C1008.99 237.97 1015.75 241.12 1018.11 241.12C1020.47 241.12 1033.2 244.42 1034.78 246.12C1036.36 247.82 1042.64 246.59 1042.64 246.59C1042.64 246.59 1047.82 248.32 1052.38 249.42C1056.94 250.52 1059.14 258.07 1058.2 261.05C1057.82 262.536 1057.82 264.094 1058.2 265.579C1058.59 267.064 1059.34 268.427 1060.4 269.54C1062.28 271.42 1063.23 277.54 1063.23 277.54C1065.54 278.297 1067.47 279.935 1068.58 282.1C1069.65 284.58 1069.75 288.94 1069.72 291.39Z" fill="#65617D"/>
<path opacity="0.1" d="M899.83 712.29C897.38 713.29 894.92 714.22 892.46 715.17C884.75 712.92 877.55 710.27 877.55 710.27C885.008 710.537 892.446 711.211 899.83 712.29V712.29Z" fill="black"/>
<path opacity="0.1" d="M974.23 628.36C974.23 628.36 992.94 632.76 994.04 635.75L974.23 628.36Z" fill="black"/>
<path opacity="0.1" d="M902.07 641.88C902.07 641.88 892.32 644.71 901.76 650.37C911.2 656.03 902.07 641.88 902.07 641.88Z" fill="black"/>
<path opacity="0.1" d="M945.3 490.76C946.4 490.76 963.54 485.1 969.51 487.62C975.48 490.14 982.88 490.13 982.88 490.13L945.3 490.76Z" fill="black"/>
<path opacity="0.1" d="M947.56 508.76L947.39 510.32L932.73 548.66C932.73 548.66 930.37 560.29 928.32 566.89C927.034 571.376 926.013 575.934 925.26 580.54L938.26 500.08L947.56 508.76Z" fill="black"/>
<path d="M970.33 440.99L964.24 441.09H964.05L960.48 425.24C962.23 425.16 964 425.07 965.77 424.96L970.33 440.99Z" fill="#3F3D56"/>
<path d="M1044.5 421.76L1040.59 424.99L1027.56 435.76C1027.56 435.76 992.19 454.63 982.45 436.7C973.86 420.91 1013.96 409.64 1023.62 407.18C1024.93 406.85 1025.68 406.68 1025.68 406.68L1044.5 421.76Z" fill="#A5636D"/>
<path opacity="0.1" d="M893.43 267.25C893.43 267.25 900.34 270.4 901.91 274.8C903.48 279.2 893.43 267.25 893.43 267.25Z" fill="black"/>
<path opacity="0.1" d="M872.04 314.42C872.04 314.42 861.98 326.68 866.04 331.42C870.1 336.16 872.04 314.42 872.04 314.42Z" fill="black"/>
<path opacity="0.1" d="M1051.89 274.17C1051.89 274.17 1042.46 275.11 1042.14 283.29L1051.89 274.17Z" fill="black"/>
<path opacity="0.1" d="M964.48 403.08C965.48 402.14 987.12 370.08 992.15 372.9L964.48 403.08Z" fill="black"/>
<path opacity="0.1" d="M1005.05 194.62C1005.06 200.782 1003.53 206.85 1000.62 212.28H1000.34C997.97 211.78 996.74 209.02 994.93 207.28C993.816 206.221 992.398 205.537 990.876 205.324C989.353 205.11 987.802 205.378 986.44 206.09C985.062 206.913 983.941 208.104 983.204 209.53C982.467 210.956 982.144 212.56 982.27 214.16C981.07 209.16 981.45 203.77 980.27 198.73C979.09 193.69 975.58 188.58 970.76 188.49C968.68 188.49 966.26 189.26 964.76 187.7C963.85 186.76 963.67 185.28 962.99 184.14C959.54 178.57 949.06 181.39 944.78 184.25C940.5 187.11 935.53 191.67 930.21 194.12C930.425 184.293 934.498 174.945 941.549 168.097C948.6 161.248 958.062 157.449 967.891 157.52C977.72 157.591 987.127 161.526 994.078 168.476C1001.03 175.425 1004.97 184.831 1005.04 194.66L1005.05 194.62Z" fill="black"/>
<path d="M963 183.16C963.68 184.3 963.86 185.78 964.77 186.72C966.27 188.27 968.69 187.47 970.77 187.51C975.59 187.59 979.11 192.7 980.28 197.74C981.45 202.78 981.07 208.14 982.28 213.17C982.156 211.571 982.48 209.97 983.217 208.546C983.954 207.122 985.073 205.932 986.45 205.11C987.811 204.397 989.36 204.129 990.881 204.342C992.402 204.556 993.818 205.241 994.93 206.3C996.74 208.02 997.93 210.78 1000.35 211.3C1002.77 211.82 1005.01 209.52 1005.87 207.02C1006.73 204.52 1006.66 201.78 1007.22 199.19C1008.29 194.28 1011.49 190.26 1013.22 185.6C1015.33 179.926 1015.27 173.674 1013.06 168.04C1011.88 165.04 1010.13 162.43 1008.93 159.48C1007.13 155 1006.65 149.95 1004.45 145.68C1000.75 138.53 992.03 134.96 984.87 137.68C981.45 138.97 978.48 141.46 975.01 142.57C970.37 144.06 965.4 142.94 960.59 142.27C955.78 141.6 950.46 141.54 946.59 144.7C942.14 148.34 940.92 155.18 936.74 159.18C934.98 160.86 932.8 161.93 930.95 163.48C929.1 165.03 927.5 167.34 927.71 169.86C927.99 173.12 931.18 176.08 930 179.09C929.576 179.966 928.981 180.748 928.25 181.39C924.752 185.064 922.147 189.496 920.64 194.34C929.06 196.97 938.16 187.69 944.75 183.34C949.08 180.41 959.56 177.58 963 183.16Z" fill="#4C3E42"/>
<path opacity="0.1" d="M1044.5 421.76L1040.59 424.99C1037.14 419.24 1022.97 407.76 1022.97 407.76L1023.58 407.17C1024.89 406.84 1025.64 406.67 1025.64 406.67L1044.5 421.76Z" fill="black"/>
<path d="M1048.28 415.97C1048.28 415.97 1046.87 419.47 1045.42 422.5C1043.97 425.53 1042.42 428.27 1042.3 426.04C1042.14 421.63 1023.91 406.85 1023.91 406.85L1026.38 404.45L1029.25 401.66L1048.28 415.97Z" fill="#E7EFFD"/>
<path opacity="0.1" d="M1048.91 392.7L1050.97 427.78C1046.09 420.19 1032.68 400.72 1024.06 401.35L1044.97 377.35C1045.84 376.383 1046.65 375.353 1047.37 374.27C1048.16 384.25 1048.91 392.7 1048.91 392.7Z" fill="black"/>
<path opacity="0.1" d="M1048.28 415.97C1048.28 415.97 1046.87 419.47 1045.42 422.5C1039.94 414.98 1032.42 406.11 1026.42 404.45L1029.29 401.66L1048.28 415.97Z" fill="black"/>
<path d="M1064 288.76L1069.66 293.16C1069.66 293.16 1079.09 293.32 1080.03 301.16C1080.97 309 1089.62 312.64 1089.62 312.64C1089.62 312.64 1096.07 319.08 1096.07 322.07C1096.07 325.06 1100.94 330.4 1100.94 330.87C1100.94 331.34 1105.66 340.93 1105.03 342.66C1104.4 344.39 1110.03 351.94 1108.33 354.77C1106.91 357.308 1105.65 359.934 1104.56 362.63C1104.56 362.63 1097.17 376.78 1093.39 379.45C1089.61 382.12 1072.33 404.6 1072.33 404.6C1072.33 404.6 1053.78 425.98 1053.78 432.6C1053.78 432.6 1035.7 402.41 1025.01 403.2L1045.92 379.15C1045.92 379.15 1049.53 375.22 1049.69 372.86C1049.85 370.5 1059.75 359.65 1064.47 359.18C1064.47 359.18 1065.25 352.73 1063.21 352.58C1061.17 352.43 1059.44 347.39 1059.44 347.39C1059.44 347.39 1045.6 331.04 1045.44 320.66C1045.28 310.28 1064 288.76 1064 288.76Z" fill="#65617D"/>
<path opacity="0.1" d="M1072.33 303.76C1072.33 303.76 1059.12 313.5 1061.95 316.65C1064.78 319.8 1072.33 303.76 1072.33 303.76Z" fill="black"/>
<path opacity="0.1" d="M1072.96 343.97C1072.96 343.97 1097.48 336.11 1099.96 343.97H1072.96Z" fill="black"/>
<path opacity="0.1" d="M899.95 301.84C899.95 301.84 899.95 337.68 896.88 341.22C893.81 344.76 899.95 301.84 899.95 301.84Z" fill="black"/>
<path opacity="0.1" d="M1041.67 313.39L1046.23 326.2C1046.23 326.2 1048.04 313.63 1041.67 313.39Z" fill="black"/>
<g opacity="0.1">
<path opacity="0.1" d="M930.56 175.98C931.71 173.03 928.7 170.14 928.3 166.98C927.905 167.872 927.733 168.847 927.8 169.82C928 172.21 929.8 174.43 930.23 176.64C930.36 176.431 930.471 176.21 930.56 175.98V175.98Z" fill="black"/>
<path opacity="0.1" d="M982.69 209.84C981.56 204.84 981.89 199.63 980.75 194.68C979.61 189.73 976.06 184.52 971.24 184.44C969.16 184.44 966.74 185.2 965.24 183.65C964.33 182.71 964.15 181.23 963.47 180.09C960.03 174.52 949.55 177.34 945.26 180.2C938.83 184.47 930 193.41 921.75 191.39C921.36 192.34 920.99 193.3 920.68 194.29C929.1 196.92 938.2 187.64 944.79 183.29C949.08 180.44 959.55 177.61 963 183.19C963.68 184.33 963.86 185.81 964.77 186.75C966.27 188.3 968.69 187.5 970.77 187.54C975.59 187.62 979.11 192.73 980.28 197.77C981.45 202.81 981.07 208.17 982.28 213.2C982.191 212.064 982.331 210.921 982.69 209.84Z" fill="black"/>
<path opacity="0.1" d="M1006.33 203.94C1005.47 206.44 1003.23 208.73 1000.81 208.22C998.39 207.71 997.21 204.96 995.4 203.22C994.284 202.164 992.866 201.483 991.344 201.271C989.822 201.06 988.272 201.328 986.91 202.04C985.599 202.821 984.521 203.938 983.788 205.277C983.055 206.615 982.693 208.125 982.74 209.65C983.371 207.73 984.689 206.109 986.44 205.1C987.801 204.387 989.35 204.119 990.871 204.333C992.392 204.546 993.808 205.23 994.92 206.29C996.73 208.01 997.92 210.77 1000.34 211.29C1002.76 211.81 1005 209.51 1005.86 207.01C1006.3 205.538 1006.59 204.023 1006.72 202.49C1006.62 202.98 1006.49 203.464 1006.33 203.94V203.94Z" fill="black"/>
<path opacity="0.1" d="M1013.72 182.53C1011.95 187.19 1008.72 191.21 1007.72 196.11C1007.5 197.11 1007.38 198.11 1007.26 199.11C1008.33 194.23 1011.52 190.22 1013.26 185.57C1014.05 183.476 1014.54 181.281 1014.71 179.05C1014.47 180.234 1014.14 181.398 1013.72 182.53V182.53Z" fill="black"/>
</g>
<path d="M786.53 296.36C786.745 296.36 786.92 296.185 786.92 295.97C786.92 295.755 786.745 295.58 786.53 295.58C786.315 295.58 786.14 295.755 786.14 295.97C786.14 296.185 786.315 296.36 786.53 296.36Z" fill="#E6E8EC"/>
<path d="M472.26 515.39C472.26 515.39 483.26 507.5 494.69 512.39C494.69 512.39 491.49 519.17 477.29 519.08L472.26 515.39Z" fill="#77ACE8"/>
<path d="M470.89 515.85C470.89 515.85 467.95 529.08 476.89 537.66C476.89 537.66 481.89 532.06 476.22 519.03L470.89 515.85Z" fill="#77ACE8"/>
<path d="M456.31 503.81C456.31 503.81 456.72 492.64 482.01 495.37C482.01 495.37 482.41 502.56 473.71 506.3C465.01 510.04 460.86 507.33 456.31 503.81Z" fill="#77ACE8"/>
<path d="M454.76 503.76C454.76 503.76 444.26 507.58 454.64 530.81C454.64 530.81 461.64 528.97 462.48 519.54C463.32 510.11 459.5 507.04 454.76 503.76Z" fill="#77ACE8"/>
<path d="M439.92 488.54C439.92 488.54 437.78 470.27 463.56 471.16C463.56 471.16 466.02 487.68 444.63 492.77L439.92 488.54Z" fill="#77ACE8"/>
<path d="M422.14 468.5C422.14 468.5 424.87 447.59 450.8 452.8C450.8 452.8 451.58 470.8 426.52 473.29L422.14 468.5Z" fill="#77ACE8"/>
<path d="M408.91 447.58C408.91 447.58 414.03 427.08 439.72 432.21C439.72 432.21 434.36 450.63 410.72 451.21L408.91 447.58Z" fill="#77ACE8"/>
<path d="M396.32 427.14C396.32 427.14 401.32 405.92 426.09 411.29C426.09 411.29 418.65 431.55 398.09 430.66L396.32 427.14Z" fill="#77ACE8"/>
<path d="M387.95 407.59C387.95 407.59 391.4 381.76 414.56 386.54C414.56 386.54 408.8 410.16 389.8 411.26L387.95 407.59Z" fill="#77ACE8"/>
<path d="M379.91 383.88C379.91 383.88 384.24 357.79 407.69 364.43C407.69 364.43 399.54 389.24 381.69 387.43L379.91 383.88Z" fill="#77ACE8"/>
<path d="M374.64 361.76C374.64 361.76 382.1 335.55 400.06 335.56C400.06 335.56 392.46 363.23 376.34 366.89L374.64 361.76Z" fill="#77ACE8"/>
<path d="M371.01 340.07C371.01 340.07 379.01 308.56 393.69 310.4C393.69 310.4 388.24 334.46 371.69 344.9L371.01 340.07Z" fill="#77ACE8"/>
<path d="M368.42 314.12C368.42 314.12 376.04 287.82 390.42 286.24C390.42 286.24 385.53 312.01 369.01 320.85L368.42 314.12Z" fill="#77ACE8"/>
<path d="M365.75 289.97C365.75 289.97 375.5 263.57 385 262.62C385 262.62 381.31 288.39 366.86 294.2L365.75 289.97Z" fill="#77ACE8"/>
<path d="M363.69 267.47C363.69 267.47 369.22 238.98 378.63 236.28C378.63 236.28 378.22 259.42 364.73 269.54L363.69 267.47Z" fill="#77ACE8"/>
<path d="M358.98 238.1C358.98 238.1 365.07 215.33 372.64 211.61C372.64 211.61 372.13 238.19 360.98 243.53L358.98 238.1Z" fill="#77ACE8"/>
<path d="M355.27 218.83L352.35 179.2C352.35 179.2 367.86 208.6 356.56 225.76L355.27 218.83Z" fill="#77ACE8"/>
<path d="M342.64 179.82C342.64 179.82 331.18 151.25 328.64 149.73C328.64 149.73 349.64 167.73 348.64 192L342.64 179.82Z" fill="#77ACE8"/>
<path d="M439.21 488.43C439.21 488.43 420.89 486.75 422.42 512.49C422.42 512.49 439 514.49 443.56 493.03L439.21 488.43Z" fill="#77ACE8"/>
<path d="M421.25 467.84C421.25 467.84 400.18 468.58 402.91 494.84C402.91 494.84 420.71 497.32 425.6 472.62L421.25 467.84Z" fill="#77ACE8"/>
<path d="M408.77 449.3C408.77 449.3 389.3 441.06 377.95 464.67C377.95 464.67 395.9 471.47 410.6 452.97L408.77 449.3Z" fill="#77ACE8"/>
<path d="M395.9 427.35C395.9 427.35 375.95 418.56 365.32 441.61C365.32 441.61 385.99 447.85 397.65 430.87L395.9 427.35Z" fill="#77ACE8"/>
<path d="M388.22 408.14C388.22 408.14 368.69 390.86 354.35 409.64C354.35 409.64 374.17 423.71 389.24 412.11L388.22 408.14Z" fill="#77ACE8"/>
<path d="M380.96 383.23C380.96 383.23 361.29 365.54 347.11 385.37C347.11 385.37 368.97 399.66 381.78 387.06L380.96 383.23Z" fill="#77ACE8"/>
<path d="M376.56 360.93C376.56 360.93 361.07 338.51 344.08 344.29C344.08 344.29 360.16 368.05 376.6 366.29L376.56 360.93Z" fill="#77ACE8"/>
<path d="M371.43 339.91C371.43 339.91 355.6 311.51 341.88 317.07C341.88 317.07 353.34 338.92 372 344.76L371.43 339.91Z" fill="#77ACE8"/>
<path d="M369.37 312.6C369.37 312.6 353.37 290.39 339.31 293.72C339.31 293.72 352.55 316.35 371.09 319.14L369.37 312.6Z" fill="#77ACE8"/>
<path d="M367.33 289.4C367.33 289.4 354.63 264.28 345.08 264.4C345.08 264.4 351.69 289.58 366.7 293.71L367.33 289.4Z" fill="#77ACE8"/>
<path d="M364.14 266.89C364.14 266.89 350.14 241.49 340.32 241.82C340.32 241.82 347.84 263.71 363.79 269.19L364.14 266.89Z" fill="#77ACE8"/>
<path d="M361.13 239.6C361.13 239.6 350.56 218.54 342.4 216.43C342.4 216.43 348.27 242.36 360.28 245.33L361.13 239.6Z" fill="#77ACE8"/>
<path d="M354.08 218.12L331.02 185.76C331.02 185.76 337.86 218.28 357.5 224.31L354.08 218.12Z" fill="#77ACE8"/>
<path d="M337.75 182.68C337.75 182.68 311.75 166.17 310.75 163.39C310.75 163.39 324.61 187.39 348.65 190.78L337.75 182.68Z" fill="#77ACE8"/>
<path d="M335.93 174.88C335.93 174.88 305.79 148.05 298.37 148.36C298.37 148.36 322.37 148.54 336.57 173.36L335.93 174.88Z" fill="#77ACE8"/>
<path d="M361.01 243.76L359.95 243.94C352.85 201.39 343.95 176.42 334.8 173.64L335.11 172.64C344.78 175.56 353.73 200.17 361.01 243.76Z" fill="#444053"/>
<path d="M372.95 345.7L371.36 345.9C370.87 341.9 370.46 337.84 370.12 333.78C367.24 298.44 363.63 266.03 359.59 241.78L360.47 240.6C364.47 264.89 368.84 298.26 371.73 333.6C372.05 337.69 372.47 341.76 372.95 345.7Z" fill="#444053"/>
<path d="M502.9 534.61C502.61 534.49 473.96 523 443.57 494.11C425.777 477.205 410.775 457.589 399.12 435.99C384.55 408.99 375.01 375.47 370.99 342.71L372.69 343.43C381.69 416.95 417.23 466.09 444.98 492.49C475.07 521.12 503.4 532.49 503.68 532.62L502.9 534.61Z" fill="#444053"/>
<g opacity="0.7">
<path opacity="0.7" d="M522.81 501.99C522.81 501.99 535.67 497.74 545.11 505.78C545.11 505.78 540.04 511.31 526.51 506.99L522.81 501.99Z" fill="#77ACE8"/>
<path opacity="0.7" d="M521.36 502.01C521.36 502.01 514.62 513.77 520.62 524.63C520.62 524.63 527.05 520.76 525.52 506.63L521.36 502.01Z" fill="#77ACE8"/>
<path opacity="0.7" d="M511.02 486.19C511.02 486.19 514.74 475.64 538.02 485.78C538.02 485.78 536.26 492.78 526.84 493.78C517.42 494.78 514.32 490.9 511.02 486.19Z" fill="#77ACE8"/>
<path opacity="0.7" d="M509.56 485.76C509.56 485.76 498.39 486.29 501.4 511.55C501.4 511.55 508.58 511.87 512.23 503.13C515.88 494.39 513.11 490.22 509.56 485.76Z" fill="#77ACE8"/>
<path opacity="0.7" d="M499.91 466.76C499.91 466.76 503.31 448.68 527.65 457.2C527.65 457.2 525.08 473.7 503.15 472.2L499.91 466.76Z" fill="#77ACE8"/>
<path opacity="0.7" d="M488.9 442.31C488.9 442.31 497.73 423.16 520.9 435.85C520.9 435.85 516.31 453.22 491.63 448.18L488.9 442.31Z" fill="#77ACE8"/>
<path opacity="0.7" d="M482.49 418.4C482.49 418.4 493.49 400.35 516.49 412.89C516.49 412.89 505.89 428.89 483.15 422.45L482.49 418.4Z" fill="#77ACE8"/>
<path opacity="0.7" d="M476.56 395.14C476.56 395.14 487.62 376.36 509.71 388.86C509.71 388.86 496.58 405.99 477.19 399.02L476.56 395.14Z" fill="#77ACE8"/>
<path opacity="0.7" d="M474.39 373.98C474.39 373.98 485.39 350.33 506.03 361.8C506.03 361.8 493.5 382.63 475.03 378.03L474.39 373.98Z" fill="#77ACE8"/>
<path opacity="0.7" d="M473.76 348.96C473.76 348.96 485.66 325.34 506.07 338.66C506.07 338.66 490.9 359.92 474.39 352.83L473.76 348.96Z" fill="#77ACE8"/>
<path opacity="0.7" d="M475.32 326.25C475.32 326.25 490.24 303.45 507.38 308.8C507.38 308.8 491.89 332.96 475.38 331.66L475.32 326.25Z" fill="#77ACE8"/>
<path opacity="0.7" d="M478.3 304.48C478.3 304.48 495.3 276.77 508.78 282.91C508.78 282.91 496.41 304.25 477.53 309.3L478.3 304.48Z" fill="#77ACE8"/>
<path opacity="0.7" d="M483.56 278.93C483.56 278.93 498.66 256.1 512.84 258.86C512.84 258.86 500.51 282.01 482.1 285.54L483.56 278.93Z" fill="#77ACE8"/>
<path opacity="0.7" d="M488.18 255.09C488.18 255.09 505.35 232.78 514.7 234.7C514.7 234.7 503.51 258.2 487.99 259.46L488.18 255.09Z" fill="#77ACE8"/>
<path opacity="0.7" d="M492.91 232.99C492.91 232.99 506.66 207.44 516.46 207.66C516.46 207.66 509.18 229.66 493.28 235.28L492.91 232.99Z" fill="#77ACE8"/>
<path opacity="0.7" d="M497.16 203.55C497.16 203.55 509.74 183.63 518.08 182.32C518.08 182.32 509.68 207.55 497.45 209.32L497.16 203.55Z" fill="#77ACE8"/>
<path opacity="0.7" d="M499.34 184.04L508.34 145.35C508.34 145.35 514.41 178.02 498.54 191.08L499.34 184.04Z" fill="#77ACE8"/>
<path opacity="0.7" d="M498.89 143.05C498.89 143.05 496.45 112.36 494.46 110.15C494.46 110.15 509.19 133.61 500.96 156.45L498.89 143.05Z" fill="#77ACE8"/>
<path opacity="0.7" d="M499.27 466.42C499.27 466.42 482.27 459.35 476.09 484.42C476.09 484.42 491.3 491.31 502.09 472.13L499.27 466.42Z" fill="#77ACE8"/>
<path opacity="0.7" d="M488.25 441.41C488.25 441.41 467.92 435.85 462.7 461.77C462.7 461.77 478.95 469.44 490.98 447.31L488.25 441.41Z" fill="#77ACE8"/>
<path opacity="0.7" d="M481.85 420C481.85 420 465.72 406.34 447.85 425.51C447.85 425.51 462.96 437.34 482.5 424.05L481.85 420Z" fill="#77ACE8"/>
<path opacity="0.7" d="M476.09 395.22C476.09 395.22 459.67 380.89 442.66 399.76C442.66 399.76 460.53 411.86 476.72 399.11L476.09 395.22Z" fill="#77ACE8"/>
<path opacity="0.7" d="M474.48 374.59C474.48 374.59 460.97 352.28 441.7 365.94C441.7 365.94 456.43 385.28 474.27 378.68L474.48 374.59Z" fill="#77ACE8"/>
<path opacity="0.7" d="M474.96 348.64C474.96 348.64 461.44 325.91 441.96 340.64C441.96 340.64 458.58 360.79 474.56 352.57L474.96 348.64Z" fill="#77ACE8"/>
<path opacity="0.7" d="M477.38 326.04C477.38 326.04 469.27 300.04 451.32 300.49C451.32 300.49 459.61 327.97 475.82 331.22L477.38 326.04Z" fill="#77ACE8"/>
<path opacity="0.7" d="M478.75 304.45C478.75 304.45 472.08 272.63 457.33 273.86C457.33 273.86 461.77 298.13 477.85 309.25L478.75 304.45Z" fill="#77ACE8"/>
<path opacity="0.7" d="M484.91 277.76C484.91 277.76 476.24 251.76 461.82 250.76C461.82 250.76 467.74 276.32 484.6 284.49L484.91 277.76Z" fill="#77ACE8"/>
<path opacity="0.7" d="M489.86 255.01C489.86 255.01 485.21 227.25 476.05 224.54C476.05 224.54 474.87 250.54 487.98 258.96L489.86 255.01Z" fill="#77ACE8"/>
<path opacity="0.7" d="M493.56 232.57C493.56 232.57 487.73 204.15 478.28 201.57C478.28 201.57 478.94 224.7 492.55 234.68L493.56 232.57Z" fill="#77ACE8"/>
<path opacity="0.7" d="M498.76 205.63C498.76 205.63 494.93 182.38 487.76 177.92C487.76 177.92 485.65 204.43 496.23 210.84L498.76 205.63Z" fill="#77ACE8"/>
<path opacity="0.7" d="M498.42 183.02L486.03 145.27C486.03 145.27 482.88 178.36 499.84 189.96L498.42 183.02Z" fill="#77ACE8"/>
<path opacity="0.7" d="M493.37 144.33C493.37 144.33 473.46 120.83 473.37 117.87C473.37 117.87 479.46 144.87 501.37 155.29L493.37 144.33Z" fill="#77ACE8"/>
<path opacity="0.7" d="M493.95 136.34C493.95 136.34 473.16 101.75 465.95 99.84C465.95 99.84 488.83 107.16 494.95 135.08L493.95 136.34Z" fill="#77ACE8"/>
<path opacity="0.7" d="M497.4 209.56L496.34 209.41C502.22 166.68 501.12 140.18 493.24 134.81L493.85 133.93C502.2 139.62 503.43 165.76 497.4 209.56Z" fill="#444053"/>
<path opacity="0.7" d="M478.48 310.44L476.9 310.15C477.62 306.2 478.43 302.15 479.33 298.21C487.09 263.62 493.33 231.6 496.64 207.21L497.83 206.35C494.47 230.74 488.67 263.89 480.89 298.52C480.01 302.52 479.19 306.51 478.48 310.44Z" fill="#444053"/>
<path opacity="0.7" d="M546.34 529.45C546.1 529.26 522.16 509.75 501.75 473.14C489.771 451.71 481.269 428.515 476.56 404.42C470.68 374.3 471.56 339.42 477.45 307L478.86 308.19C465.61 381.07 484.86 438.55 503.53 472.01C523.74 508.29 547.4 527.59 547.64 527.78L546.34 529.45Z" fill="#444053"/>
</g>
<path d="M307.36 437.33C305.009 438.299 302.567 439.029 300.07 439.51C295.707 440.327 291.279 440.745 286.84 440.76C286.97 441.93 287.07 443.02 287.17 444.01C287.41 446.73 287.55 448.6 287.55 448.6L282.86 448.28L244.18 445.64L221.56 442.29C222.652 443.755 223.838 445.148 225.11 446.46C226.428 447.855 227.952 449.039 229.63 449.97C229.63 449.97 250.04 466.5 253.57 466.65C254.07 466.65 254.23 467.15 254.15 467.94C262.74 467.94 289.45 469.19 282.04 484.06C280.814 486.711 278.652 488.815 275.97 489.97C267.4 493.6 254.47 487.07 247.81 483.06C247.16 484.33 246.54 485.51 245.99 486.52C244.86 488.65 244.07 490.06 244.07 490.06L243.4 489.58L209.08 465.14L201.56 458.76C199.351 458.659 197.164 458.279 195.05 457.63V457.63L194.05 457.31C194.007 457.397 193.97 457.487 193.94 457.58C193.666 458.36 193.462 459.163 193.33 459.98C193.33 460.1 193.33 460.22 193.33 460.34C193.19 461.271 193.096 462.209 193.05 463.15C193.05 463.79 193 464.47 193 465.15C192.94 478.77 198.4 500.66 198.4 500.66C198.4 500.66 212.55 536.75 207.53 545.08C207.271 545.503 206.931 545.87 206.53 546.16C204.76 547.44 203.7 549.72 203.15 552.43C201.28 561.27 204.56 574.76 204.56 574.76C204.56 574.76 204.26 575.26 203.75 576.04C202.647 577.804 201.402 579.476 200.03 581.04C199.82 581.28 199.6 581.53 199.37 581.76C198.751 582.411 198.082 583.012 197.37 583.56C197.5 583.95 197.64 584.35 197.78 584.78C197.92 585.21 198.1 585.88 198.24 586.48C199.354 591.395 198.917 596.534 196.99 601.19C195.679 604.584 194.832 608.14 194.47 611.76V611.76C193.82 618.389 193.991 625.073 194.98 631.66C194.83 631.58 194.7 631.5 194.55 631.43C183.49 625.65 172.587 619.613 161.84 613.32C158.69 611.5 155.56 609.64 152.45 607.77C148.623 605.463 144.813 603.13 141.02 600.77C136.02 597.65 131.02 594.45 126.02 591.18L123.68 589.62L122.78 589.01C121.51 588.16 120.26 587.31 119 586.45C113.83 579.769 109.106 572.753 104.86 565.45C104.15 564.18 103.51 562.97 102.98 561.86V561.8L102.64 561.07L101.23 560.57C98.58 559.64 96.9 558.99 96.9 558.99C98.123 554.528 98.7088 549.916 98.64 545.29C98.56 536.29 96.07 524.29 85.81 514.67C70.65 500.34 68.56 486.19 68.34 480.76C68.34 480.38 68.34 480.04 68.34 479.76C68.335 479.303 68.355 478.845 68.4 478.39L69.56 477.28C66.62 476.69 63.86 476.42 63.86 476.42C63.86 476.42 73.92 440.02 90.86 427.87C99.26 421.87 106.25 411.87 111.19 403.29C120.202 387.784 130.321 372.948 141.47 358.9L144.52 355.05L145.41 353.92L145.6 353.69L145.84 353.37C145.427 352.743 145.007 352.123 144.58 351.51L144.3 351.1C142.97 349.1 141.83 347.1 142.01 344.71C142.01 344.71 142.01 344.66 142.01 344.64C142.01 344.47 142.01 344.31 142.01 344.13C142.052 343.731 142.126 343.337 142.23 342.95C142.264 343.014 142.304 343.074 142.35 343.13C143.78 338.97 149.29 337.13 153.35 334.83C162.92 329.45 167 317.68 169.05 306.73C170.64 298.21 171.96 288.66 178.56 283.19C182.82 279.67 188.56 278.51 192.87 275.02C195.364 272.816 197.425 270.168 198.95 267.21C199.95 265.51 200.81 263.75 201.74 262.05C206 254.35 211.6 247.19 219.01 242.58C226.42 237.97 235.82 236.18 243.94 239.28C247.07 240.47 249.94 242.28 252.94 243.61C254.792 244.365 256.706 244.961 258.66 245.39C264.77 246.82 271.2 247.19 276.94 249.74C286.27 253.88 292.34 263.04 297.88 271.74C300.75 276.24 305.26 282.82 307.82 289.44C307.82 289.2 307.82 288.98 307.82 288.75C309.054 291.665 309.733 294.785 309.82 297.95C309.87 299.297 309.725 300.644 309.39 301.95C308.47 305.35 306.12 307.5 303.17 309.08L302.7 309.31C302.069 309.634 301.422 309.925 300.76 310.18C300.66 310.73 300.55 311.29 300.43 311.83C300.38 312.06 300.32 312.3 300.26 312.53C300.13 313.09 299.98 313.64 299.82 314.19C297.682 321.337 293.513 327.709 287.82 332.53C283.877 335.903 279.321 338.484 274.4 340.13C274.05 340.25 273.68 340.34 273.33 340.45C273.033 341.287 272.608 342.073 272.07 342.78C271.68 343.278 271.223 343.719 270.71 344.09C270.391 344.306 270.056 344.5 269.71 344.67C269.625 344.723 269.535 344.767 269.44 344.8C265.84 346.42 260.91 345.15 257.44 342.73C257.26 342.61 257.09 342.47 256.92 342.34C256.92 342.91 256.83 343.51 256.73 344.13C256.63 344.75 256.56 345.13 256.45 345.65C256.34 346.17 256.3 346.42 256.23 346.79C256.16 347.16 256.11 347.41 256.05 347.7L255.93 348.21C253.949 357.862 250.17 367.055 244.79 375.31C244.01 376.492 243.165 377.631 242.26 378.72L239.78 382.5V383.01C240.25 391.71 237.39 399.82 233.35 406.8C231.997 409.114 230.511 411.348 228.9 413.49L229.46 413.82C235.06 417.01 246.1 422.68 253.08 422.2C253.08 422.2 279.48 425.61 282.54 423.9C282.96 423.66 283.37 423.99 283.75 424.7C288.02 422.1 297.84 416.59 305.59 415.86C311.01 415.34 315.42 417.15 316.24 423.86C317.06 430.57 313.02 434.9 307.36 437.33Z" fill="url(#paint0_linear)"/>
<path d="M162.85 574.84C164.54 577.723 165.549 580.955 165.798 584.288C166.048 587.621 165.532 590.967 164.29 594.07C161.86 600.16 161.59 607.75 161.84 613.32C158.69 611.5 155.56 609.64 152.45 607.77C148.623 605.463 144.813 603.13 141.02 600.77C136.02 597.65 131.02 594.45 126.02 591.18L123.68 589.62L122.78 589.01C122.701 588.865 122.604 588.73 122.49 588.61C121.15 587.19 113.34 575.99 108.7 567.49C107.86 565.93 107.13 564.49 106.55 563.17V563.1C105.55 560.88 105.08 559.1 105.38 558.29C105.744 557.015 106.361 555.827 107.194 554.796C108.027 553.765 109.06 552.913 110.23 552.29C115.99 549.29 125.23 552.06 134.37 556.47C142.234 560.445 149.771 565.036 156.91 570.2L157.72 570.79L157.8 570.85C160.8 572.98 162.54 574.39 162.54 574.39C162.54 574.39 162.67 574.55 162.85 574.84Z" fill="#FBBEBE"/>
<path opacity="0.05" d="M161.33 573.51C163.023 576.396 164.033 579.631 164.283 582.968C164.533 586.305 164.015 589.654 162.77 592.76C160.34 598.85 160.07 606.44 160.32 612.02C157.173 610.187 154.043 608.333 150.93 606.46C147.097 604.153 143.287 601.82 139.5 599.46C134.5 596.33 129.5 593.13 124.55 589.86L122.21 588.3L121.31 587.69C121.229 587.546 121.132 587.412 121.02 587.29C119.68 585.88 111.87 574.68 107.23 566.17C106.39 564.61 105.66 563.17 105.08 561.85V561.79C104.08 559.56 103.61 557.79 103.91 556.97C104.275 555.696 104.893 554.508 105.726 553.478C106.559 552.447 107.591 551.594 108.76 550.97C114.52 547.97 123.76 550.74 132.9 555.15C140.764 559.125 148.301 563.716 155.44 568.88L156.25 569.47L156.33 569.53C159.33 571.66 161.07 573.07 161.07 573.07C161.07 573.07 161.15 573.22 161.33 573.51Z" fill="black"/>
<path d="M198.15 597.76C197.859 599.472 197.386 601.148 196.74 602.76C195.633 605.66 194.871 608.681 194.47 611.76V611.76C193.682 618.295 193.709 624.902 194.55 631.43C183.49 625.65 172.587 619.613 161.84 613.32C158.69 611.5 155.56 609.64 152.45 607.77C151.75 602.45 150.75 597.77 149.62 596.62C148.14 595.06 139.69 582.98 134.44 573.45C133.76 572.25 133.17 571.09 132.62 569.99V569.94C132.41 569.5 132.21 569.08 132.02 568.66C130.67 565.76 129.95 563.5 130.31 562.41C131.012 560.04 132.456 557.958 134.43 556.47C143.3 549.99 161.74 558.76 175.9 567.47L176.25 567.68C178.93 569.35 181.47 571 183.75 572.54L185.08 573.44C190.94 577.44 194.83 580.55 194.83 580.55C195.796 582.041 196.572 583.647 197.14 585.33C197.474 586.279 197.751 587.248 197.97 588.23C198.662 591.363 198.723 594.603 198.15 597.76V597.76Z" fill="#FBBEBE"/>
<path opacity="0.1" d="M108.75 567.49C116.02 570.03 126.75 573.4 132.59 573.49C133.195 573.509 133.8 573.478 134.4 573.4V573.4C138.51 572.84 151.18 573.74 162.81 574.79C167.47 575.2 171.96 575.63 175.67 576.01L184.99 577.01V573.41C182.4 571.63 179.39 569.65 176.17 567.65C161.96 558.87 143.29 549.9 134.35 556.43C121.76 550.35 108.98 547.43 105.35 558.25C104.93 559.66 106.46 563.24 108.75 567.49Z" fill="black"/>
<path d="M73.82 483.68C74.02 489.07 76.04 503.06 90.51 517.19C108.97 535.19 101.1 561.07 101.1 561.07C101.1 561.07 123.1 569.71 132.59 569.94C133.195 569.959 133.8 569.928 134.4 569.85C140.09 569.06 162.71 571.15 175.71 572.46L185.03 573.46V496.94L83.09 472.18L73.86 481.38C73.7977 482.145 73.7843 482.913 73.82 483.68V483.68Z" fill="#5C5C8E"/>
<g opacity="0.1">
<path opacity="0.1" d="M183.36 572.51L185.03 572.68V573.5L175.71 572.5C166.38 571.56 152.12 570.22 142.71 569.83C149.22 569.25 170.77 571.24 183.36 572.51Z" fill="black"/>
<path opacity="0.1" d="M73.86 481.43L83.09 472.23L89.25 473.72L81.56 481.43C81.5109 482.196 81.5109 482.964 81.56 483.73C81.76 489.12 83.78 503.1 98.25 517.24C116.71 535.24 108.84 561.11 108.84 561.11C108.84 561.11 127.04 568.26 137.47 569.73C136.467 569.726 135.466 569.783 134.47 569.9C133.87 569.978 133.265 570.009 132.66 569.99C123.17 569.75 101.17 561.11 101.17 561.11C101.17 561.11 109.04 535.24 90.58 517.24C76.04 503.1 74.02 489.12 73.82 483.76C73.7829 482.983 73.7963 482.205 73.86 481.43Z" fill="black"/>
</g>
<path d="M277.56 429.64C277.56 429.64 308.39 408.26 310.64 427.5C312.89 446.74 277.56 444.04 277.56 444.04V429.64Z" fill="#FBBEBE"/>
<path d="M224.4 415.46C224.4 415.46 241.07 426.46 250.3 425.81C250.3 425.81 275.5 429.19 278.43 427.5C281.36 425.81 283.16 451.92 283.16 451.92L241.75 448.99L215.19 444.94C215.19 444.94 201.91 436.84 201.91 429.86C201.91 422.88 224.4 415.46 224.4 415.46Z" fill="#F7CDDD"/>
<path d="M224.4 415.46C224.4 415.46 241.07 426.46 250.3 425.81C250.3 425.81 275.5 429.19 278.43 427.5C281.36 425.81 283.16 451.92 283.16 451.92L241.75 448.99L215.19 444.94C215.19 444.94 201.91 436.84 201.91 429.86C201.91 422.88 224.4 415.46 224.4 415.46Z" fill="#77ACE8"/>
<path d="M248.84 471.1C248.84 471.1 286.33 469.55 277.93 487.01C269.53 504.47 241.13 483.27 241.13 483.27L248.84 471.1Z" fill="#FBBEBE"/>
<path d="M211.14 433.91C211.14 433.91 241.52 411.18 237.25 383.5C232.98 355.82 211.14 404.66 211.14 404.66V433.91Z" fill="#5C5C8E"/>
<path d="M219.56 308.42C219.566 318.377 223.438 327.943 230.36 335.1C234.093 338.955 238.589 341.989 243.56 344.01C245.163 344.68 246.814 345.229 248.5 345.65C250.291 346.112 252.112 346.446 253.95 346.65C255.27 346.78 256.6 346.85 257.95 346.85C262.247 346.841 266.511 346.101 270.56 344.66C277.22 342.347 283.115 338.244 287.598 332.803C292.081 327.361 294.979 320.79 295.975 313.811C296.971 306.831 296.026 299.712 293.244 293.233C290.462 286.755 285.95 281.168 280.203 277.084C274.456 273 267.695 270.577 260.662 270.081C253.629 269.585 246.595 271.035 240.332 274.271C234.068 277.508 228.817 282.406 225.153 288.43C221.489 294.454 219.554 301.37 219.56 308.42V308.42Z" fill="#FBBEBE"/>
<path opacity="0.1" d="M73.82 483.68C77.26 484.31 81.51 485.47 81.51 487.25C81.51 490.25 129.51 506.46 129.51 506.46C129.51 506.46 127.71 510.65 132.51 517.86C137.31 525.07 176.34 566.47 176.34 566.47L176.21 567.69L175.71 572.46L173.33 595.27C173.33 595.27 188.33 589.87 193.13 590.47C194.68 590.66 196.37 589.67 197.92 588.23C197.35 585.505 196.289 582.906 194.79 580.56C194.79 580.56 190.9 577.5 185.03 573.45V496.94L83.09 472.18L73.86 481.38C73.7977 482.145 73.7843 482.913 73.82 483.68V483.68Z" fill="black"/>
<path d="M69.5 479.45C69.5 479.45 81.5 480.64 81.5 483.65C81.5 486.66 129.5 502.86 129.5 502.86C129.5 502.86 127.7 507.05 132.5 514.26C137.3 521.47 176.33 562.87 176.33 562.87L173.33 591.67C173.33 591.67 188.33 586.27 193.13 586.87C195.28 587.14 197.65 585.15 199.61 582.87C201.236 580.948 202.685 578.883 203.94 576.7C203.94 576.7 198.53 553.88 205.74 548.48C212.95 543.08 197.94 503.48 197.94 503.48C197.94 503.48 191.15 475.32 193.15 463.24C193.277 462.435 193.471 461.643 193.73 460.87C193.73 460.78 193.78 460.69 193.82 460.6C198.1 449.06 244.14 352.25 244.14 352.25C244.11 349.504 243.917 346.763 243.56 344.04C243.47 343.28 243.35 342.49 243.2 341.7C242.968 340.261 242.657 338.835 242.27 337.43C242.01 336.51 241.73 335.63 241.4 334.79C239.98 331.13 237.8 328.32 234.54 328.25C234.54 328.25 230.94 324.25 222.54 323.19C216.34 322.38 207.54 323.19 195.54 328.25C167.34 340.25 160.74 340.85 160.74 340.85L146.56 359.42L143.64 363.24C132.968 377.161 123.306 391.828 114.73 407.13C110.01 415.61 103.33 425.5 95.32 431.44C79.11 443.45 69.5 479.45 69.5 479.45Z" fill="#77ACE8"/>
<path opacity="0.1" d="M174.68 410.06C174.68 410.06 134.62 419.96 119.09 444.94L174.68 410.06Z" fill="black"/>
<path opacity="0.1" d="M162.3 453.94C162.3 453.94 154.73 504.8 156.83 508.63C158.93 512.46 162.3 453.94 162.3 453.94Z" fill="black"/>
<path opacity="0.1" d="M165.01 480.05C167.93 483.87 179.76 513.36 179.76 513.36L176.34 562.87L173.34 591.67C173.34 591.67 188.34 586.27 193.15 586.87C195.29 587.14 197.67 585.16 199.63 582.87C196.51 566 189.85 530.71 188.63 530.03C187.04 529.13 178.94 500.77 178.51 492.89C178.08 485.01 166.8 467.25 166.8 467.25C166.8 467.25 162.08 476.23 165.01 480.05Z" fill="black"/>
<path opacity="0.1" d="M176.34 431.44C177.07 433.69 178.23 446.74 178.23 446.74C179.05 458.25 187.75 462.01 193.15 463.21C193.277 462.405 193.471 461.613 193.73 460.84C197.33 450.65 244.14 352.22 244.14 352.22C244.092 347.224 243.464 342.251 242.27 337.4C232.08 334.4 215.94 339.02 215.94 339.02C211.28 338.41 196.07 368.66 196.07 368.66C196.07 368.66 185.93 391.83 184.82 394.98C183.71 398.13 184.82 403.32 184.37 405.12C183.92 406.92 179.18 408.48 178.51 410.97C177.84 413.46 178.28 418.38 177.83 419.28C177.38 420.18 175.56 429.19 176.34 431.44Z" fill="black"/>
<path d="M179.94 429.64C180.68 431.89 181.83 444.94 181.83 444.94C182.51 454.52 188.67 458.73 193.83 460.57C196.147 461.398 198.573 461.883 201.03 462.01L208.27 468.29L241.68 492.94C241.68 492.94 254.14 469.94 250.76 469.79C247.38 469.64 227.89 453.29 227.89 453.29C221.89 450.11 215.95 439.47 213.18 434.01C213.343 433.352 213.464 432.684 213.54 432.01C214.75 421.82 239.95 382.81 239.95 382.81C239.95 382.81 249.69 371.34 253.49 350.09C253.6 349.61 253.67 349.09 253.76 348.6C253.868 347.938 253.934 347.27 253.96 346.6C254.41 338.43 248.47 335.46 241.41 334.75C237.742 334.465 234.054 334.579 230.41 335.09C226.765 335.545 223.156 336.254 219.61 337.21C216.61 336.82 209.15 349.37 204.27 358.26C201.64 363.08 199.75 366.85 199.75 366.85C199.75 366.85 189.56 390.03 188.42 393.18C187.28 396.33 188.42 401.51 187.97 403.32C187.52 405.13 182.78 406.68 182.12 409.17C181.46 411.66 181.88 416.58 181.43 417.48C180.98 418.38 179.18 427.39 179.94 429.64Z" fill="#77ACE8"/>
<path opacity="0.1" d="M141.17 377.76C147.51 384.28 157.85 384.3 166.11 380.99C174.37 377.68 181.38 371.64 189.05 366.99C194.05 363.99 199.29 361.46 204.19 358.33C204.91 357.86 205.61 357.39 206.29 356.91C211.95 352.91 216.84 347.78 222.69 344.11C226.611 341.516 231.172 340.056 235.87 339.89C238.038 339.868 240.184 340.319 242.16 341.21C242.505 341.36 242.839 341.534 243.16 341.73C245.083 342.843 246.863 344.186 248.46 345.73C250.11 347.22 251.7 348.81 253.46 350.19C253.57 349.71 253.64 349.19 253.73 348.7C253.838 348.038 253.905 347.37 253.93 346.7C255.25 346.83 256.58 346.9 257.93 346.9C262.237 346.877 266.508 346.12 270.56 344.66C270.56 344.5 270.62 344.33 270.65 344.17C272.09 336.61 274.65 328.6 280.77 324.35C284.3 321.88 289.94 320.88 294.82 319C296.513 313.104 296.769 306.888 295.566 300.873C294.363 294.858 291.737 289.219 287.907 284.427C284.077 279.636 279.155 275.831 273.553 273.333C267.95 270.834 261.831 269.714 255.707 270.066C249.583 270.418 243.633 272.232 238.354 275.356C233.075 278.481 228.621 282.824 225.366 288.023C222.11 293.222 220.147 299.125 219.642 305.238C219.136 311.352 220.103 317.497 222.46 323.16C216.26 322.35 207.46 323.16 195.46 328.22C167.26 340.22 160.66 340.82 160.66 340.82L146.56 359.42C148.09 361.76 149.82 364.07 149.98 366.8C150.3 371.86 145.42 375.35 141.17 377.76Z" fill="black"/>
<path d="M280.82 320.76C274.73 325.02 272.14 333.02 270.7 340.57C270.25 342.93 269.82 345.42 268.38 347.29C265.15 351.48 258.65 350.29 254.43 347.29C250.21 344.29 246.89 339.73 242.18 337.6C235.92 334.78 228.57 336.84 222.72 340.51C216.87 344.18 211.97 349.31 206.31 353.3C200.84 357.16 194.74 359.91 189.04 363.38C181.38 368.05 174.38 374.08 166.11 377.38C157.84 380.68 147.51 380.68 141.18 374.16C145.43 371.8 150.31 368.31 149.98 363.26C149.65 358.21 143.76 354.42 144.16 349.26C144.56 344.1 150.65 342.04 155.02 339.5C164.17 334.18 168.02 322.5 170.02 311.7C171.54 303.27 172.79 293.84 179.1 288.43C183.16 284.94 188.67 283.8 192.76 280.35C196.64 277.07 198.76 272.1 201.24 267.53C205.31 259.9 210.65 252.82 217.72 248.26C224.79 243.7 233.78 241.94 241.54 245.01C244.54 246.18 247.22 248.01 250.16 249.28C257.46 252.44 265.83 252.02 273.07 255.34C281.98 259.44 287.77 268.5 293.07 277.1C297.6 284.45 306.46 297.46 303.98 306.96C301.45 316.65 287.43 316.13 280.82 320.76Z" fill="#7C5C5C"/>
<g opacity="0.1">
<path opacity="0.1" d="M144.16 348.63C144.192 348.234 144.263 347.842 144.37 347.46C145.98 350 147.99 352.46 148.18 355.46C148.226 356.148 148.169 356.839 148.01 357.51C146.22 354.63 143.91 351.94 144.16 348.63Z" fill="black"/>
<path opacity="0.1" d="M164.31 369.57C172.58 366.25 179.58 360.22 187.24 355.57C192.94 352.1 199.04 349.35 204.51 345.49C210.17 341.49 215.07 336.36 220.92 332.7C226.77 329.04 234.12 326.97 240.38 329.79C245.09 331.92 248.38 336.43 252.63 339.48C256.88 342.53 263.35 343.72 266.58 339.53C268.03 337.66 268.45 335.18 268.9 332.82C270.34 325.26 272.9 317.26 279.02 313C285.64 308.38 299.65 308.9 302.19 299.15C302.613 297.42 302.725 295.629 302.52 293.86C304.15 298.19 304.98 302.55 304 306.35C301.45 316.1 287.44 315.58 280.82 320.2C274.74 324.46 272.14 332.46 270.7 340.02C270.25 342.38 269.83 344.87 268.39 346.73C265.15 350.92 258.65 349.73 254.39 346.68C250.13 343.63 246.85 339.12 242.14 336.99C235.88 334.17 228.53 336.24 222.68 339.9C216.83 343.56 211.93 348.7 206.27 352.69C200.8 356.56 194.7 359.3 189 362.77C181.34 367.45 174.34 373.47 166.07 376.77C157.8 380.07 147.47 380.06 141.14 373.54C142.776 372.654 144.329 371.623 145.78 370.46C151.56 372.57 158.46 371.91 164.31 369.57Z" fill="black"/>
</g>
<path d="M815.56 271.4L774.56 230.17C772.55 228.115 770.153 226.478 767.507 225.354C764.861 224.23 762.018 223.641 759.144 223.622C756.269 223.602 753.419 224.152 750.758 225.24C748.097 226.328 745.678 227.932 743.64 229.96L486.18 485.24L377.32 375.53C373.278 371.43 367.773 369.104 362.015 369.062C356.258 369.021 350.72 371.268 346.62 375.31L305.18 416.31C301.085 420.4 298.766 425.939 298.727 431.727C298.688 437.515 300.931 443.085 304.97 447.23L470.29 613.85C474.379 617.947 479.917 620.267 485.705 620.308C491.493 620.349 497.063 618.108 501.21 614.07L815.33 302.31C817.385 300.301 819.022 297.906 820.147 295.262C821.272 292.617 821.862 289.776 821.883 286.903C821.904 284.029 821.357 281.18 820.271 278.519C819.186 275.859 817.585 273.439 815.56 271.4Z" fill="#84C285"/>
<g opacity="0.5">
<path opacity="0.5" d="M753.78 602.01C753.78 602.01 723.2 600.17 726.78 621.6C726.596 622.686 726.76 623.803 727.249 624.791C727.737 625.778 728.525 626.587 729.5 627.1C729.5 627.1 729.5 625.51 732.63 626.05C733.729 626.238 734.848 626.291 735.96 626.21C737.46 626.112 738.886 625.526 740.02 624.54V624.54C740.02 624.54 748.61 620.99 751.96 606.93C751.96 606.93 754.43 603.87 754.33 603.08L749.17 605.29C749.17 605.29 750.94 609.01 749.55 612.1C749.55 612.1 749.38 605.42 748.39 605.58C748.19 605.58 745.71 606.87 745.71 606.87C745.71 606.87 748.71 613.35 746.45 618.07C746.45 618.07 747.32 610.07 744.76 607.34L741.13 609.46C741.13 609.46 744.67 616.16 742.27 621.62C742.27 621.62 742.89 613.24 740.36 609.98L737.07 612.54C737.07 612.54 740.4 619.14 738.37 623.68C738.37 623.68 738.11 613.92 736.37 613.18C736.37 613.18 733.49 615.72 733.05 616.77C733.05 616.77 735.33 621.56 733.92 624.09C733.92 624.09 733.05 617.58 732.34 617.56C732.34 617.56 729.47 621.86 729.17 624.81C729.308 622.081 730.16 619.437 731.64 617.14C729.986 617.457 728.461 618.249 727.25 619.42C727.25 619.42 727.69 616.42 732.35 616.1C732.35 616.1 734.72 612.84 735.35 612.64C735.35 612.64 730.72 612.25 727.91 613.5C727.91 613.5 730.38 610.62 736.19 611.93L739.44 609.28C739.44 609.28 733.35 608.44 730.76 609.36C730.76 609.36 733.76 606.82 740.32 608.67L743.86 606.56C743.86 606.56 738.66 605.44 735.56 605.84C735.56 605.84 738.83 604.08 744.9 605.99L747.43 604.85C747.43 604.85 743.62 604.1 742.5 603.99C741.38 603.88 741.33 603.56 741.33 603.56C743.741 603.161 746.216 603.438 748.48 604.36C748.48 604.36 753.87 602.35 753.78 602.01Z" fill="#77ACE8"/>
</g>
<g opacity="0.5">
<path opacity="0.5" d="M698.91 452.35C698.91 452.35 683.38 478.76 704.12 485.28C705.005 485.938 706.075 486.299 707.177 486.314C708.279 486.328 709.358 485.994 710.26 485.36C710.26 485.36 708.87 484.59 710.74 482.09C711.404 481.195 711.961 480.225 712.4 479.2C712.984 477.815 713.106 476.28 712.75 474.82V474.82C712.75 474.82 713.48 465.55 702.48 456.19C702.48 456.19 700.87 452.59 700.13 452.32L699.75 457.92C699.75 457.92 703.86 458.04 705.99 460.68C705.99 460.68 699.99 457.8 699.65 458.75C699.59 458.95 699.58 461.75 699.58 461.75C699.58 461.75 706.74 461.99 709.9 466.17C709.9 466.17 703.18 461.77 699.57 462.81L699.81 467.01C699.81 467.01 707.39 466.89 711.17 471.51C711.17 471.51 703.98 467.15 699.93 467.92L700.72 472.02C700.72 472.02 708.12 472.02 711.23 475.91C711.23 475.91 702.42 471.72 700.97 472.91C700.97 472.91 701.97 476.63 702.65 477.5C702.65 477.5 707.96 477.64 709.57 480.05C709.57 480.05 703.38 477.87 703.03 478.49C703.03 478.49 705.57 483 708.03 484.61C705.662 483.244 703.694 481.283 702.32 478.92C701.826 480.55 701.826 482.29 702.32 483.92C702.32 483.92 699.81 482.14 701.69 477.92C701.69 477.92 699.85 474.33 699.96 473.67C699.96 473.67 697.52 477.62 697.35 480.67C697.35 480.67 695.91 477.16 699.71 472.57L698.83 468.47C698.83 468.47 695.32 473.53 694.96 476.25C694.96 476.25 694.05 472.44 698.69 467.42L698.41 463.31C698.41 463.31 695.05 467.43 694.01 470.37C694.01 470.37 693.92 466.66 698.37 462.12L698.51 459.35C698.51 459.35 696.11 462.41 695.51 463.35C694.91 464.29 694.6 464.2 694.6 464.2C695.334 461.872 696.702 459.795 698.55 458.2C698.55 458.2 699.25 452.42 698.91 452.35Z" fill="#77ACE8"/>
</g>
<g opacity="0.5">
<path opacity="0.5" d="M601.78 241.64C601.78 241.64 586.26 268.06 606.99 274.57C607.874 275.23 608.944 275.594 610.047 275.608C611.15 275.623 612.229 275.287 613.13 274.65C613.13 274.65 611.74 273.88 613.62 271.38C614.281 270.484 614.835 269.515 615.27 268.49C615.859 267.107 615.982 265.569 615.62 264.11V264.11C615.62 264.11 616.36 254.84 605.35 245.48C605.35 245.48 603.74 241.89 603 241.62L602.62 247.21C602.62 247.21 606.74 247.33 608.86 249.97C608.86 249.97 602.86 247.09 602.53 248.04C602.46 248.24 602.46 251.04 602.46 251.04C602.46 251.04 609.61 251.28 612.77 255.46C612.77 255.46 606.05 251.06 602.44 252.1L602.69 256.3C602.69 256.3 610.26 256.18 614.04 260.8C614.04 260.8 606.85 256.45 602.8 257.21L603.59 261.31C603.59 261.31 610.99 261.31 614.11 265.21C614.11 265.21 605.29 261.01 603.84 262.21C603.84 262.21 604.84 265.92 605.53 266.79C605.53 266.79 610.83 266.93 612.44 269.34C612.44 269.34 606.25 267.16 605.91 267.78C605.91 267.78 608.44 272.3 610.91 273.9C608.54 272.538 606.568 270.58 605.19 268.22C604.712 269.832 604.712 271.548 605.19 273.16C605.19 273.16 602.68 271.38 604.56 267.11C604.56 267.11 602.72 263.52 602.83 262.86C602.83 262.86 600.39 266.81 600.22 269.86C600.22 269.86 598.78 266.35 602.59 261.76L601.7 257.66C601.7 257.66 598.19 262.72 597.84 265.44C597.84 265.44 596.92 261.63 601.56 256.61L601.28 252.5C601.28 252.5 597.92 256.62 596.88 259.56C596.88 259.56 596.79 255.85 601.24 251.32L601.38 248.54C601.38 248.54 598.98 251.6 598.38 252.54C597.78 253.48 597.47 253.39 597.47 253.39C598.222 251.058 599.606 248.981 601.47 247.39C601.47 247.39 602.12 241.76 601.78 241.64Z" fill="#77ACE8"/>
</g>
<g opacity="0.5">
<path opacity="0.5" d="M267.42 41.55C267.42 41.55 209.62 83.55 247.88 116.82C247.88 116.82 252.21 124.7 260.94 122.71C260.94 122.71 258.68 119.77 265.03 116.17C267.281 114.877 269.369 113.319 271.25 111.53C273.794 109.134 275.49 105.975 276.08 102.53V102.53C276.08 102.53 286.3 83.39 271.49 53.13C271.49 53.13 271.4 43.94 270.05 42.67L264.05 54.29C264.05 54.29 272.74 58.38 274.83 66.01C274.83 66.01 264.62 54.22 263.07 56.01C262.76 56.36 260.15 62.31 260.15 62.31C260.15 62.31 275.24 69.49 278.1 81.37C278.1 81.37 267.82 65.69 259.1 64.55L255.71 73.76C255.71 73.76 272.02 80.57 275.8 93.97C275.8 93.97 264.48 77.97 255.1 75.82L252.98 85.33C252.98 85.33 268.76 92.28 271.83 103.45C271.83 103.45 256.83 86.27 252.64 87.54C252.64 87.54 251.22 96.38 251.97 98.91C251.97 98.91 263.19 104.16 264.39 110.81C264.39 110.81 253.18 100.39 251.86 101.39C251.86 101.39 253.08 113.39 256.92 119.16C256.92 119.16 250.63 111.07 249.99 101.68C249.99 101.68 245.7 106.68 245.46 112.29C245.46 112.29 241.74 106.14 249.73 98.76C249.73 98.76 249.16 89.36 250.01 88.06C250.01 88.06 241.09 94.23 237.88 100.63C237.88 100.63 238.07 91.79 250.48 85.52L252.4 75.93C252.4 75.93 240.19 83.46 236.9 88.93C236.9 88.93 238.49 79.93 253.08 73.51L256.32 64.46C256.32 64.46 245.32 70.15 240.32 75.46C240.32 75.46 243.59 67.46 257.32 61.89L260.19 56.09C260.19 56.09 252.19 60.39 250.04 61.83C247.89 63.27 247.29 62.83 247.29 62.83C251.036 58.5289 255.904 55.354 261.35 53.66C261.35 53.66 268.09 42.02 267.42 41.55Z" fill="#77ACE8"/>
</g>
<g opacity="0.5">
<path opacity="0.5" d="M211.27 180.14C211.27 180.14 136.5 148.7 126.7 205.39C126.7 205.39 121.59 214.23 128.7 221.53C128.7 221.53 130.23 217.61 137.46 221.66C140.039 223.086 142.778 224.201 145.62 224.98C149.458 226.039 153.536 225.821 157.24 224.36V224.36C157.24 224.36 181.82 223.03 202.51 190.86C202.51 190.86 211.37 185.38 211.82 183.32L196.99 184.32C196.99 184.32 198.13 195.17 191.99 201.68C191.99 201.68 197.44 184.84 194.82 184.37C194.29 184.27 186.99 185.23 186.99 185.23C186.99 185.23 188.88 204.1 178.99 213.86C178.99 213.86 188.17 194.67 184.17 185.57L173.24 187.68C173.24 187.68 176.24 207.53 165.42 219.07C165.42 219.07 174.31 198.67 170.88 188.31L160.4 191.83C160.4 191.83 162.93 211.24 153.88 220.83C153.88 220.83 161.78 196.22 158.06 192.83C158.06 192.83 148.64 196.65 146.62 198.83C146.62 198.83 148.12 212.83 142.36 217.88C142.36 217.88 145.9 200.88 144.15 200.18C144.15 200.18 133.2 208.42 129.86 215.53C129.86 215.53 134.03 204.67 142.77 198.53C142.77 198.53 135.43 197.28 129.77 200.36C129.77 200.36 133.56 193.15 145.42 196.57C145.42 196.57 154.21 190.48 155.97 190.57C155.97 190.57 144.75 185.57 136.64 186.19C136.64 186.19 145.33 181.19 158.71 189.54L169.14 185.76C169.14 185.76 154.65 178.33 147.38 178.36C147.38 178.36 157.04 174.62 171.86 185.02L182.56 182.81C182.56 182.81 170.56 175.46 162.46 173.76C162.46 173.76 172.17 172.22 185.64 182.31L192.96 181.7C192.96 181.7 184.1 176.48 181.42 175.21C178.74 173.94 178.86 173.12 178.86 173.12C185.239 174.227 191.184 177.087 196.03 181.38C196.03 181.38 211.2 181.07 211.27 180.14Z" fill="#77ACE8"/>
</g>
<g opacity="0.5">
<path opacity="0.5" d="M166.5 100.76C166.5 100.76 139.99 39.49 101.88 67.59C101.88 67.59 93.81 69.93 93.88 78.29C93.88 78.29 97.02 76.83 99 83.36C99.7382 85.673 100.745 87.8915 102 89.97C103.675 92.788 106.224 94.9824 109.26 96.22C109.26 96.22 124.62 109.44 155.26 102.11C155.26 102.11 163.65 103.9 165.09 102.94L155.72 95.07C155.72 95.07 150.22 102.17 142.84 102.51C142.84 102.51 155.67 95.61 154.38 93.84C154.12 93.48 149.24 89.9 149.24 89.9C149.24 89.9 139.61 102.18 128.24 102.37C128.24 102.37 144.63 96.19 147.43 88.52L139.73 83.52C139.73 83.52 130.06 97.05 117.07 97.76C117.07 97.76 133.97 90.71 137.84 82.59L129.61 78.76C129.61 78.76 120.05 91.76 109.24 92.25C109.24 92.25 127.95 82.13 127.66 78C127.66 78 119.89 74.9 117.43 75.08C117.43 75.08 110.36 84.23 104.05 83.97C104.05 83.97 115.84 75.88 115.19 74.47C115.19 74.47 103.99 73.13 97.96 75.47C97.96 75.47 106.62 71.39 115.31 72.73C115.31 72.73 111.66 67.8 106.56 66.43C106.56 66.43 112.93 64.3 118.02 73.08C118.02 73.08 126.71 74.48 127.72 75.52C127.72 75.52 123.92 66.13 118.72 61.9C118.72 61.9 126.72 63.9 129.93 76.47L138.28 80.18C138.28 80.18 133.91 67.5 129.57 63.39C129.57 63.39 137.44 66.67 140.32 81.29L147.91 86.08C147.91 86.08 144.97 74.88 141.14 69.25C141.14 69.25 147.78 73.87 150.04 87.54L154.74 91.34C154.74 91.34 152.44 83.2 151.57 80.92C150.7 78.64 151.25 78.22 151.25 78.22C154.404 82.5104 156.305 87.5926 156.74 92.9C156.74 92.9 165.94 101.29 166.5 100.76Z" fill="#77ACE8"/>
</g>
<g opacity="0.5">
<path opacity="0.5" d="M683.18 132.64C683.18 132.64 676.93 102.64 657.18 111.75C656.082 111.855 655.045 112.306 654.218 113.037C653.392 113.768 652.818 114.742 652.58 115.82C652.58 115.82 654.13 115.45 654.42 118.57C654.53 119.677 654.768 120.768 655.13 121.82C655.63 123.239 656.573 124.459 657.82 125.3C657.82 125.3 663.5 132.66 677.93 132.2C677.93 132.2 681.54 133.78 682.28 133.48L678.79 129.08C678.79 129.08 675.66 131.76 672.32 131.23C672.32 131.23 678.72 129.32 678.32 128.4C678.23 128.21 676.37 126.15 676.37 126.15C676.37 126.15 670.91 130.78 665.76 129.81C665.76 129.81 673.69 128.55 675.67 125.36L672.67 122.41C672.67 122.41 667.13 127.59 661.23 126.7C661.23 126.7 669.48 125.1 671.97 121.81L668.63 119.31C668.63 119.31 663.13 124.25 658.22 123.48C658.22 123.48 667.57 120.66 667.82 118.78C667.82 118.78 664.62 116.67 663.49 116.52C663.49 116.52 659.49 119.98 656.66 119.28C656.66 119.28 662.66 116.74 662.55 116.04C662.55 116.04 657.64 114.4 654.71 114.89C657.38 114.311 660.155 114.439 662.76 115.26C662.025 113.744 660.86 112.478 659.41 111.62C659.41 111.62 662.47 111.25 663.95 115.62C663.95 115.62 667.72 117.05 668.08 117.62C668.08 117.62 667.24 113.05 665.3 110.62C665.3 110.62 668.72 112.25 668.99 118.21L672.4 120.65C672.4 120.65 671.61 114.55 670.04 112.29C670.04 112.29 673.27 114.5 673.21 121.29L676.21 124.15C676.21 124.15 675.93 118.84 674.73 115.96C674.73 115.96 677.28 118.65 677.03 124.96L678.79 127.11C678.79 127.11 678.52 123.24 678.34 122.11C678.16 120.98 678.44 120.86 678.44 120.86C679.462 123.085 679.846 125.55 679.55 127.98C679.55 127.98 682.88 132.82 683.18 132.64Z" fill="#77ACE8"/>
</g>
<g opacity="0.5">
<path opacity="0.5" d="M575.56 688.76C575.56 688.76 569.32 658.76 549.56 667.87C548.46 667.975 547.422 668.425 546.594 669.156C545.765 669.887 545.19 670.862 544.95 671.94C544.95 671.94 546.5 671.57 546.79 674.69C546.898 675.798 547.14 676.89 547.51 677.94C548.007 679.357 548.946 680.578 550.19 681.42V681.42C550.19 681.42 555.87 688.78 570.31 688.32C570.31 688.32 573.92 689.9 574.65 689.6L571.17 685.2C571.17 685.2 568.04 687.88 564.69 687.35C564.69 687.35 571.09 685.44 570.69 684.52C570.61 684.33 568.74 682.27 568.74 682.27C568.74 682.27 563.28 686.9 558.13 685.93C558.13 685.93 566.07 684.67 568.04 681.48L565.04 678.48C565.04 678.48 559.56 683.68 553.64 682.76C553.64 682.76 561.89 681.16 564.38 677.87L561.04 675.37C561.04 675.37 555.55 680.31 550.64 679.54C550.64 679.54 559.99 676.73 560.24 674.84C560.24 674.84 557.03 672.73 555.91 672.58C555.91 672.58 551.91 676.04 549.07 675.34C549.07 675.34 555.07 672.8 554.96 672.1C554.96 672.1 550.05 670.46 547.12 670.95C549.793 670.371 552.571 670.498 555.18 671.32C554.441 669.806 553.277 668.541 551.83 667.68C551.83 667.68 554.88 667.31 556.36 671.68C556.36 671.68 560.14 673.11 560.5 673.68C560.5 673.68 559.66 669.11 557.72 666.68C557.72 666.68 561.14 668.31 561.4 674.27L564.82 676.71C564.82 676.71 564.02 670.61 562.45 668.35C562.45 668.35 565.69 670.56 565.63 677.35L568.63 680.21C568.63 680.21 568.35 674.9 567.14 672.02C567.14 672.02 569.7 674.71 569.45 681.02L571.21 683.17C571.21 683.17 570.93 679.3 570.75 678.17C570.57 677.04 570.85 676.93 570.85 676.93C571.873 679.151 572.257 681.613 571.96 684.04C571.96 684.04 575.28 688.91 575.56 688.76Z" fill="#77ACE8"/>
</g>
</g>
<defs>
<linearGradient id="paint0_linear" x1="54487.2" y1="277547" x2="54487.2" y2="122343" gradientUnits="userSpaceOnUse">
<stop stop-color="#808080" stop-opacity="0.25"/>
<stop offset="0.54" stop-color="#808080" stop-opacity="0.12"/>
<stop offset="1" stop-color="#808080" stop-opacity="0.1"/>
</linearGradient>
<clipPath id="clip0">
<rect width="1149.12" height="755.51" fill="white"/>
</clipPath>
</defs>
</svg>
