<svg width="21" height="21" viewBox="0 0 21 21" fill="none" xmlns="http://www.w3.org/2000/svg">
<path fill-rule="evenodd" clip-rule="evenodd" d="M6.7423 2.56095C7.04001 3.02613 6.90425 3.64457 6.43908 3.94228C4.21704 5.36438 2.69995 7.95181 2.69995 10.8C2.69995 15.2477 6.35232 18.9 10.8 18.9C13.7422 18.9 16.2323 17.3882 17.6577 15.1609C17.9554 14.6958 18.5739 14.56 19.0391 14.8577C19.5042 15.1554 19.64 15.7739 19.3423 16.2391C17.5677 19.0118 14.4579 20.9 10.8 20.9C5.24778 20.9 0.699951 16.3523 0.699951 10.8C0.699951 7.2482 2.58301 4.03563 5.36097 2.25774C5.82614 1.96003 6.44458 2.09578 6.7423 2.56095Z" fill="black"/>
<path fill-rule="evenodd" clip-rule="evenodd" d="M9.80005 1.70001C9.80005 1.14773 10.2478 0.700012 10.8 0.700012C16.3523 0.700012 20.9 5.24774 20.9 10.8C20.9 11.3523 20.4523 11.8 19.9 11.8H10.8C10.2478 11.8 9.80005 11.3523 9.80005 10.8V1.70001ZM11.8 2.76217V9.80002H18.8379C18.3808 6.14564 15.4544 3.21929 11.8 2.76217Z" fill="black"/>
</svg>
