<svg width="15" height="15" viewBox="0 0 15 15" fill="none" xmlns="http://www.w3.org/2000/svg">
<path d="M7.25616 14.5543C3.26767 14.5543 -1.52588e-05 11.3013 -1.52588e-05 7.27716C-1.52588e-05 4.77114 1.24939 2.48198 3.36378 1.13258C3.6521 0.96391 4.01251 1.0362 4.20472 1.32536C4.37291 1.61451 4.30083 1.97596 4.01251 2.16873C2.25853 3.30126 1.22537 5.20487 1.22537 7.27716C1.22537 10.6266 3.94042 13.3495 7.28019 13.3495C9.34651 13.3495 11.2687 12.3133 12.3739 10.5543C12.5421 10.2651 12.9265 10.1928 13.2149 10.3615C13.5032 10.5302 13.5753 10.9157 13.4071 11.2049C12.0135 13.3013 9.73095 14.5543 7.25616 14.5543Z" fill="white"/>
<path d="M13.8876 7.87952H7.23215C6.89577 7.87952 6.63147 7.61446 6.63147 7.27711V0.60241C6.63147 0.26506 6.89577 0 7.23215 0C11.2206 0 14.4883 3.25301 14.4883 7.27711C14.5123 7.61446 14.224 7.87952 13.8876 7.87952ZM7.85685 6.6747H13.2629C12.9746 3.80723 10.7161 1.54217 7.85685 1.25301V6.6747Z" fill="white"/>
</svg>
