<svg width="7" height="20" viewBox="0 0 7 20" fill="none" xmlns="http://www.w3.org/2000/svg">
<path fill-rule="evenodd" clip-rule="evenodd" d="M3.5 20C2.11929 20 1.00001 19.0619 1.00001 17.9048L1 11.0952C0.999999 9.93807 2.11929 9 3.5 9C4.88071 9 5.99999 9.93807 5.99999 11.0952L6 17.9048C6 19.0619 4.88072 20 3.5 20Z" fill="black"/>
<path d="M-1.19117e-08 3.5C1.57076e-07 1.567 1.567 3.19761e-07 3.5 4.88749e-07C5.433 6.57737e-07 7 1.567 7 3.5C7 5.433 5.433 7 3.5 7C1.567 7 -1.809e-07 5.433 -1.19117e-08 3.5Z" fill="black"/>
</svg>
