<svg width="13" height="14" viewBox="0 0 13 14" fill="none" xmlns="http://www.w3.org/2000/svg">
<path fill-rule="evenodd" clip-rule="evenodd" d="M12.3654 3.98325C13.2115 3.07203 13.2115 1.59464 12.3654 0.683418C11.5193 -0.227806 10.1474 -0.227806 9.30127 0.683418L6.5 3.70017L3.69873 0.683418C2.8526 -0.227806 1.48074 -0.227806 0.634602 0.683418C-0.211534 1.59464 -0.211534 3.07203 0.634602 3.98325L3.43587 7L0.634602 10.0168C-0.211534 10.928 -0.211534 12.4054 0.634601 13.3166C1.48074 14.2278 2.85259 14.2278 3.69873 13.3166L6.5 10.2998L9.30127 13.3166C10.1474 14.2278 11.5193 14.2278 12.3654 13.3166C13.2115 12.4054 13.2115 10.928 12.3654 10.0168L9.56413 7L12.3654 3.98325Z" fill="black"/>
</svg>
