<svg width="17" height="16" viewBox="0 0 17 16" fill="none" xmlns="http://www.w3.org/2000/svg">
<path fill-rule="evenodd" clip-rule="evenodd" d="M8.99843 1.08734C9.39202 0.6999 10.0252 0.704882 10.4126 1.09847L16.7127 7.49846C16.9954 7.78568 17.0781 8.21456 16.9224 8.5863C16.7667 8.95804 16.403 9.19998 16 9.19998H1.30005C0.747764 9.19998 0.300049 8.75227 0.300049 8.19998C0.300049 7.6477 0.747764 7.19998 1.30005 7.19998H13.6124L8.9873 2.50151C8.59986 2.10792 8.60485 1.47478 8.99843 1.08734Z" fill="black"/>
<path fill-rule="evenodd" clip-rule="evenodd" d="M16.7071 7.49288C17.0976 7.8834 17.0976 8.51657 16.7071 8.90709L10.4071 15.2071C10.0165 15.5976 9.38336 15.5976 8.99284 15.2071C8.60232 14.8166 8.60232 14.1834 8.99285 13.7929L15.2929 7.49287C15.6834 7.10235 16.3166 7.10235 16.7071 7.49288Z" fill="black"/>
</svg>
