<svg width="15" height="18" viewBox="0 0 15 18" fill="none" xmlns="http://www.w3.org/2000/svg">
<path fill-rule="evenodd" clip-rule="evenodd" d="M7.68267 0.676125C8.05634 0.830906 8.29999 1.19554 8.29999 1.6V16.3C8.29999 16.8523 7.85227 17.3 7.29999 17.3C6.7477 17.3 6.29999 16.8523 6.29999 16.3V4.01422L1.70711 8.6071C1.31658 8.99762 0.683417 8.99762 0.292893 8.6071C-0.0976311 8.21658 -0.0976311 7.58341 0.292893 7.19289L6.59288 0.892898C6.87888 0.6069 7.309 0.521344 7.68267 0.676125Z" fill="black"/>
<path fill-rule="evenodd" clip-rule="evenodd" d="M6.59288 0.892899C6.98341 0.502375 7.61657 0.502375 8.00709 0.892899L14.3071 7.19289C14.6976 7.58341 14.6976 8.21658 14.3071 8.6071C13.9166 8.99763 13.2834 8.99763 12.8929 8.6071L6.59288 2.30711C6.20236 1.91659 6.20236 1.28342 6.59288 0.892899Z" fill="black"/>
</svg>
