<svg width="36" height="41" viewBox="0 0 36 41" fill="none" xmlns="http://www.w3.org/2000/svg">
<path d="M18 0C19.6569 0 21 1.34315 21 3V30.7574L30.8787 20.8787C32.0503 19.7071 33.9497 19.7071 35.1213 20.8787C36.2929 22.0503 36.2929 23.9497 35.1213 25.1213L20.1213 40.1213C19.2633 40.9793 17.973 41.236 16.8519 40.7716C15.7309 40.3073 15 39.2134 15 38V3C15 1.34315 16.3431 0 18 0Z" fill="black"/>
<path d="M0.87868 20.8787C2.05025 19.7071 3.94975 19.7071 5.12132 20.8787L20.1213 35.8787C21.2929 37.0503 21.2929 38.9497 20.1213 40.1213C18.9497 41.2929 17.0503 41.2929 15.8787 40.1213L0.87868 25.1213C-0.292893 23.9497 -0.292893 22.0503 0.87868 20.8787Z" fill="black"/>
</svg>
