<svg width="17" height="16" viewBox="0 0 17 16" fill="none" xmlns="http://www.w3.org/2000/svg">
<path fill-rule="evenodd" clip-rule="evenodd" d="M0.076149 7.8173C0.23093 7.44362 0.595566 7.19998 1.00003 7.19998H15.7C16.2523 7.19998 16.7 7.6477 16.7 8.19998C16.7 8.75227 16.2523 9.19998 15.7 9.19998H3.41426L8.00718 13.7929C8.39771 14.1834 8.39771 14.8166 8.00719 15.2071C7.61666 15.5976 6.9835 15.5976 6.59297 15.2071L0.292925 8.90709C0.00692552 8.62109 -0.0786316 8.19098 0.076149 7.8173Z" fill="black"/>
<path fill-rule="evenodd" clip-rule="evenodd" d="M8.00157 1.08734C8.39515 1.47478 8.40014 2.10792 8.0127 2.50151L1.71265 8.9015C1.32521 9.29509 0.692065 9.30007 0.29848 8.91263C-0.0951056 8.52519 -0.100088 7.89205 0.287351 7.49846L6.5874 1.09847C6.97484 0.704882 7.60798 0.6999 8.00157 1.08734Z" fill="black"/>
</svg>
