<svg width="36" height="41" viewBox="0 0 36 41" fill="none" xmlns="http://www.w3.org/2000/svg">
<path fill-rule="evenodd" clip-rule="evenodd" d="M19.1481 0.228388C20.2691 0.692731 21 1.78664 21 3.00003V38C21 39.6569 19.6569 41 18 41C16.3431 41 15 39.6569 15 38V10.2427L5.12132 20.1213C3.94975 21.2929 2.05025 21.2929 0.87868 20.1213C-0.292893 18.9498 -0.292893 17.0503 0.87868 15.8787L15.8787 0.878706C16.7367 0.0207124 18.027 -0.235955 19.1481 0.228388Z" fill="black"/>
<path fill-rule="evenodd" clip-rule="evenodd" d="M15.8787 0.87868C17.0503 -0.292893 18.9497 -0.292893 20.1213 0.87868L35.1213 15.8787C36.2929 17.0503 36.2929 18.9497 35.1213 20.1213C33.9497 21.2929 32.0503 21.2929 30.8787 20.1213L15.8787 5.12132C14.7071 3.94975 14.7071 2.05025 15.8787 0.87868Z" fill="black"/>
</svg>
