<svg width="23" height="24" viewBox="0 0 23 24" fill="none" xmlns="http://www.w3.org/2000/svg">
<path fill-rule="evenodd" clip-rule="evenodd" d="M17.4211 6.3701C17.5759 6.74378 17.4903 7.1739 17.2043 7.45989L6.80986 17.8544C6.41934 18.2449 5.78617 18.2449 5.39565 17.8544C5.00513 17.4638 5.00512 16.8307 5.39565 16.4401L14.083 7.75279L7.5877 7.75279C7.03541 7.75279 6.5877 7.30507 6.5877 6.75279C6.5877 6.2005 7.03541 5.75279 7.5877 5.75279L16.4972 5.75279C16.9017 5.75279 17.2663 5.99643 17.4211 6.3701Z" fill="black"/>
<path fill-rule="evenodd" clip-rule="evenodd" d="M16.4973 5.75278C17.0495 5.75278 17.4973 6.20049 17.4973 6.75278L17.4973 15.6623C17.4973 16.2146 17.0495 16.6623 16.4973 16.6623C15.945 16.6623 15.4973 16.2146 15.4973 15.6623L15.4973 6.75278C15.4973 6.20049 15.945 5.75278 16.4973 5.75278Z" fill="black"/>
</svg>
