<svg width="16" height="18" viewBox="0 0 16 18" fill="none" xmlns="http://www.w3.org/2000/svg">
<path fill-rule="evenodd" clip-rule="evenodd" d="M7.90002 0.600006C8.45231 0.600006 8.90002 1.04772 8.90002 1.60001V13.9124L13.5985 9.28735C13.9921 8.89991 14.6252 8.9049 15.0126 9.29848C15.4001 9.69207 15.3951 10.3252 15.0015 10.7127L8.60154 17.0127C8.31432 17.2954 7.88545 17.3781 7.51371 17.2224C7.14197 17.0667 6.90002 16.703 6.90002 16.3V1.60001C6.90002 1.04772 7.34774 0.600006 7.90002 0.600006Z" fill="black"/>
<path fill-rule="evenodd" clip-rule="evenodd" d="M0.892866 9.2929C1.28339 8.90237 1.91655 8.90237 2.30708 9.29289L8.60713 15.5929C8.99765 15.9834 8.99766 16.6166 8.60713 17.0071C8.21661 17.3976 7.58345 17.3976 7.19292 17.0071L0.892871 10.7071C0.502346 10.3166 0.502343 9.68342 0.892866 9.2929Z" fill="black"/>
</svg>
