<svg width="18" height="17" viewBox="0 0 18 17" fill="none" xmlns="http://www.w3.org/2000/svg">
<path d="M5.71765 16.2C5.4353 16.2 5.18823 16.0959 4.97646 15.8878L0.317656 11.3088C0.141185 11.1353 0.0352941 10.8925 0 10.6497C0 10.5803 0 10.5109 0 10.4415C0.0352941 10.2334 0.105887 10.06 0.247063 9.88651C0.282357 9.85182 0.282362 9.85182 0.317656 9.81713L4.97646 5.23811C5.39999 4.82184 6.07058 4.82184 6.45882 5.23811C6.88235 5.65439 6.88235 6.31349 6.45882 6.69508L3.6 9.50493H12.1059C14.1882 9.50493 15.8824 7.83983 15.8824 5.79315C15.8824 3.74647 14.1882 2.08137 12.1059 2.08137H6.03529C5.43529 2.08137 4.97646 1.63041 4.97646 1.04069C4.97646 0.450964 5.43529 0 6.03529 0H12.1059C15.3529 0 18 2.60171 18 5.79315C18 8.98458 15.3529 11.5863 12.1059 11.5863H3.6L6.45882 14.3961C6.67058 14.6043 6.77647 14.8818 6.77647 15.1246C6.77647 15.3675 6.67058 15.645 6.45882 15.8531C6.24705 16.0612 6 16.2 5.71765 16.2Z" fill="black"/>
</svg>
