<svg width="25" height="11" viewBox="0 0 25 11" fill="none" xmlns="http://www.w3.org/2000/svg">
<path fill-rule="evenodd" clip-rule="evenodd" d="M5.69292 0.392898C6.08185 0.00396934 6.71186 0.00214997 7.10303 0.388826L15.1002 8.2941L22.6972 0.788634C23.0901 0.400485 23.7233 0.404324 24.1114 0.797209C24.4996 1.19009 24.4957 1.82325 24.1028 2.2114L15.8028 10.4114C15.4132 10.7963 14.7865 10.7962 14.397 10.4112L6.4041 2.51015L1.70711 7.20712C1.31658 7.59765 0.683416 7.59765 0.292892 7.20712C-0.0976315 6.8166 -0.0976306 6.18343 0.292894 5.79291L5.69292 0.392898Z" fill="black"/>
<path fill-rule="evenodd" clip-rule="evenodd" d="M24.7167 0.302714C24.9453 0.537686 25.0442 0.869773 24.9815 1.19152L24.1815 5.29151C24.1107 5.65431 23.8455 5.94847 23.492 6.05641C23.1385 6.16436 22.7542 6.06849 22.4929 5.80711L19.0928 2.40712C18.828 2.14225 18.7333 1.75155 18.8477 1.39483C18.962 1.03812 19.2661 0.775198 19.6356 0.713616L23.8356 0.0136195C24.1589 -0.0402727 24.4882 0.0677423 24.7167 0.302714ZM21.8811 2.36695L22.5783 3.06417L22.7424 2.2234L21.8811 2.36695Z" fill="black"/>
</svg>
