<svg width="13" height="15" viewBox="0 0 13 15" fill="none" xmlns="http://www.w3.org/2000/svg">
<path d="M11.6688 6.70291L12.8356 6.02748C12.9689 5.95035 13.0307 5.79085 12.9851 5.64348C12.682 4.66483 12.1645 3.7807 11.4877 3.04637C11.4371 2.99138 11.3693 2.9553 11.2955 2.94406C11.2217 2.93281 11.1463 2.94706 11.0817 2.98448L9.91575 3.6598C9.4252 3.23828 8.86123 2.91126 8.25223 2.69521V1.34479C8.25223 1.26989 8.22681 1.19722 8.18015 1.13874C8.13348 1.08026 8.06836 1.03946 7.9955 1.02304C7.03844 0.807494 6.01055 0.796347 5.00519 1.02285C4.85488 1.0567 4.74774 1.19023 4.74774 1.34473V2.69521C4.13873 2.91125 3.57476 3.23827 3.08422 3.6598L1.91832 2.98448C1.85367 2.94706 1.77825 2.93281 1.70446 2.94406C1.63066 2.9553 1.56288 2.99138 1.51223 3.04637C0.835476 3.7807 0.317985 4.66483 0.0148997 5.64348C-0.0307411 5.79082 0.031108 5.95032 0.164362 6.02748L1.33117 6.70291C1.21398 7.34003 1.21398 7.99328 1.33117 8.63041L0.164389 9.30584C0.0311355 9.38297 -0.0307138 9.54247 0.0149271 9.68984C0.318013 10.6685 0.835476 11.5526 1.51226 12.287C1.56291 12.3419 1.63069 12.378 1.70449 12.3893C1.77828 12.4005 1.85369 12.3863 1.91834 12.3488L3.08425 11.6735C3.5748 12.095 4.13877 12.4221 4.74777 12.6381V13.9886C4.74777 14.0635 4.77319 14.1361 4.81985 14.1946C4.86652 14.2531 4.93164 14.2939 5.0045 14.3103C5.96157 14.5259 6.98945 14.537 7.99481 14.3105C8.14512 14.2766 8.25226 14.1431 8.25226 13.9886V12.6381C8.86127 12.4221 9.42524 12.0951 9.91578 11.6735L11.0817 12.3489C11.1463 12.3863 11.2217 12.4005 11.2955 12.3893C11.3693 12.378 11.4371 12.342 11.4878 12.287C12.1645 11.5526 12.682 10.6685 12.9851 9.68987C13.0307 9.54253 12.9689 9.38303 12.8356 9.30587L11.6688 8.63044C11.786 7.9933 11.786 7.34004 11.6688 6.70291ZM8.69032 7.66667C8.69032 8.87789 7.70774 9.86329 6.5 9.86329C5.29226 9.86329 4.30968 8.87789 4.30968 7.66667C4.30968 6.45546 5.29226 5.47006 6.5 5.47006C7.70774 5.47006 8.69032 6.45546 8.69032 7.66667Z" fill="black"/>
</svg>
