<svg width="15" height="18" viewBox="0 0 15 18" fill="none" xmlns="http://www.w3.org/2000/svg">
<path d="M13.0223 15.8775H4.59611V4.76324H13.0223V15.8775ZM13.0223 3.17549H4.59611C4.18979 3.17549 3.80011 3.34277 3.5128 3.64053C3.22548 3.93829 3.06407 4.34214 3.06407 4.76324V15.8775C3.06407 16.2986 3.22548 16.7024 3.5128 17.0002C3.80011 17.2979 4.18979 17.4652 4.59611 17.4652H13.0223C13.4286 17.4652 13.8183 17.2979 14.1056 17.0002C14.3929 16.7024 14.5543 16.2986 14.5543 15.8775V4.76324C14.5543 4.34214 14.3929 3.93829 14.1056 3.64053C13.8183 3.34277 13.4286 3.17549 13.0223 3.17549ZM10.7243 0H1.53204C1.12572 0 0.736036 0.16728 0.448723 0.46504C0.16141 0.762801 0 1.16665 0 1.58775V12.702H1.53204V1.58775H10.7243V0Z" fill="black"/>
</svg>
