<svg width="22" height="23" viewBox="0 0 22 23" fill="none" xmlns="http://www.w3.org/2000/svg">
<path fill-rule="evenodd" clip-rule="evenodd" d="M3.80005 2.60001C2.8523 2.60001 2.09998 3.35232 2.09998 4.3V18.5C2.09998 19.4477 2.8523 20.2 3.80005 20.2H18C18.9477 20.2 19.7 19.4477 19.7 18.5V4.3C19.7 3.35227 18.9477 2.60001 18 2.60001H3.80005ZM0.0999756 4.3C0.0999756 2.24768 1.7478 0.600006 3.80005 0.600006H18C20.0523 0.600006 21.7 2.24774 21.7 4.3V18.5C21.7 20.5523 20.0523 22.2 18 22.2H3.80005C1.7478 22.2 0.0999756 20.5523 0.0999756 18.5V4.3Z" fill="black"/>
<path fill-rule="evenodd" clip-rule="evenodd" d="M20.7 10H1.19995V8H20.7V10Z" fill="black"/>
<path fill-rule="evenodd" clip-rule="evenodd" d="M7.90002 21.2V9H9.90002V21.2H7.90002Z" fill="black"/>
</svg>
