<svg width="15" height="15" viewBox="0 0 15 15" fill="none" xmlns="http://www.w3.org/2000/svg">
<path d="M12.1096 14.5542H2.42674C1.10525 14.5542 0 13.4699 0 12.1205V2.43374C0 1.10843 1.08122 0 2.42674 0H12.0856C13.4071 0 14.5124 1.08434 14.5124 2.43374V12.1205C14.5124 13.4699 13.4311 14.5542 12.1096 14.5542ZM2.42674 1.20482C1.75398 1.20482 1.22538 1.75904 1.22538 2.40964V12.0964C1.22538 12.7711 1.778 13.3012 2.42674 13.3012H12.0856C12.7584 13.3012 13.287 12.747 13.287 12.0964V2.43374C13.287 1.75904 12.7343 1.22892 12.0856 1.22892H2.42674V1.20482Z" fill="white"/>
<path d="M13.9117 4.96387H0.624695V6.16869H13.9117V4.96387Z" fill="white"/>
<path d="M6.43924 5.56628H5.23788V13.5422H6.43924V5.56628Z" fill="white"/>
</svg>
