<svg width="27" height="27" viewBox="0 0 27 27" fill="none" xmlns="http://www.w3.org/2000/svg">
<path fill-rule="evenodd" clip-rule="evenodd" d="M1.5 9.89999C2.05228 9.89999 2.5 10.3477 2.5 10.9C2.5 11.1288 2.62227 11.4705 3.12 11.903C3.61564 12.3337 4.39021 12.7661 5.4322 13.1488C7.50827 13.9112 10.4363 14.4 13.7 14.4C16.9636 14.4 19.8917 13.9112 21.9678 13.1488C23.0098 12.7661 23.7844 12.3337 24.28 11.903C24.7778 11.4704 24.9 11.1288 24.9 10.9C24.9 10.3477 25.3477 9.89999 25.9 9.89999C26.4523 9.89999 26.9 10.3477 26.9 10.9C26.9 11.9212 26.3348 12.767 25.5919 13.4126C24.8469 14.06 23.8277 14.5964 22.6572 15.0262C20.3083 15.8888 17.1363 16.4 13.7 16.4C10.2637 16.4 7.09165 15.8888 4.74275 15.0262C3.57226 14.5964 2.55308 14.06 1.80811 13.4126C1.06522 12.767 0.5 11.9212 0.5 10.9C0.5 10.3477 0.947715 9.89999 1.5 9.89999Z" fill="black"/>
<path fill-rule="evenodd" clip-rule="evenodd" d="M1.5 5.10001C2.05228 5.10001 2.5 5.54772 2.5 6.10001V10.6C2.5 11.1523 2.05228 11.6 1.5 11.6C0.947715 11.6 0.5 11.1523 0.5 10.6V6.10001C0.5 5.54772 0.947715 5.10001 1.5 5.10001Z" fill="black"/>
<path fill-rule="evenodd" clip-rule="evenodd" d="M25.9 5.10001C26.4523 5.10001 26.9 5.54772 26.9 6.10001V10.6C26.9 11.1523 26.4523 11.6 25.9 11.6C25.3477 11.6 24.9 11.1523 24.9 10.6V6.10001C24.9 5.54772 25.3477 5.10001 25.9 5.10001Z" fill="black"/>
<path fill-rule="evenodd" clip-rule="evenodd" d="M1.5 14.8C2.05228 14.8 2.5 15.2477 2.5 15.8C2.5 16.0288 2.62227 16.3705 3.12 16.803C3.61564 17.2337 4.39021 17.6661 5.4322 18.0488C7.50827 18.8112 10.4363 19.3 13.7 19.3C16.9636 19.3 19.8917 18.8112 21.9678 18.0488C23.0098 17.6661 23.7844 17.2337 24.28 16.803C24.7778 16.3704 24.9 16.0288 24.9 15.8C24.9 15.2477 25.3477 14.8 25.9 14.8C26.4523 14.8 26.9 15.2477 26.9 15.8C26.9 16.8212 26.3348 17.667 25.5919 18.3126C24.8469 18.96 23.8277 19.4963 22.6572 19.9262C20.3083 20.7888 17.1363 21.3 13.7 21.3C10.2637 21.3 7.09165 20.7888 4.74275 19.9262C3.57226 19.4963 2.55308 18.96 1.80811 18.3126C1.06522 17.667 0.5 16.8212 0.5 15.8C0.5 15.2477 0.947715 14.8 1.5 14.8Z" fill="black"/>
<path fill-rule="evenodd" clip-rule="evenodd" d="M1.5 9.89999C2.05228 9.89999 2.5 10.3477 2.5 10.9V15.4C2.5 15.9523 2.05228 16.4 1.5 16.4C0.947715 16.4 0.5 15.9523 0.5 15.4V10.9C0.5 10.3477 0.947715 9.89999 1.5 9.89999Z" fill="black"/>
<path fill-rule="evenodd" clip-rule="evenodd" d="M25.9 9.89999C26.4523 9.89999 26.9 10.3477 26.9 10.9V15.4C26.9 15.9523 26.4523 16.4 25.9 16.4C25.3477 16.4 24.9 15.9523 24.9 15.4V10.9C24.9 10.3477 25.3477 9.89999 25.9 9.89999Z" fill="black"/>
<path fill-rule="evenodd" clip-rule="evenodd" d="M1.5 19.7C2.05228 19.7 2.5 20.1477 2.5 20.7C2.5 20.9288 2.62227 21.2704 3.12 21.703C3.61564 22.1337 4.39021 22.5661 5.4322 22.9488C7.50827 23.7112 10.4363 24.2 13.7 24.2C16.9636 24.2 19.8917 23.7112 21.9678 22.9488C23.0098 22.5661 23.7844 22.1337 24.28 21.703C24.7778 21.2704 24.9 20.9288 24.9 20.7C24.9 20.1477 25.3477 19.7 25.9 19.7C26.4523 19.7 26.9 20.1477 26.9 20.7C26.9 21.7212 26.3348 22.567 25.5919 23.2126C24.8469 23.86 23.8277 24.3963 22.6572 24.8262C20.3083 25.6888 17.1363 26.2 13.7 26.2C10.2637 26.2 7.09165 25.6888 4.74275 24.8262C3.57226 24.3963 2.55308 23.86 1.80811 23.2126C1.06522 22.567 0.5 21.7212 0.5 20.7C0.5 20.1477 0.947715 19.7 1.5 19.7Z" fill="black"/>
<path fill-rule="evenodd" clip-rule="evenodd" d="M1.5 14.8C2.05228 14.8 2.5 15.2477 2.5 15.8V20.3C2.5 20.8523 2.05228 21.3 1.5 21.3C0.947715 21.3 0.5 20.8523 0.5 20.3V15.8C0.5 15.2477 0.947715 14.8 1.5 14.8Z" fill="black"/>
<path fill-rule="evenodd" clip-rule="evenodd" d="M25.9 14.8C26.4523 14.8 26.9 15.2477 26.9 15.8V20.3C26.9 20.8523 26.4523 21.3 25.9 21.3C25.3477 21.3 24.9 20.8523 24.9 20.3V15.8C24.9 15.2477 25.3477 14.8 25.9 14.8Z" fill="black"/>
<path fill-rule="evenodd" clip-rule="evenodd" d="M3.11598 5.10207C2.62083 5.53388 2.5 5.874 2.5 6.10001C2.5 6.32601 2.62083 6.66613 3.11598 7.09794C3.6089 7.5278 4.38001 7.96042 5.41934 8.34378C7.49014 9.1076 10.4176 9.60001 13.7 9.60001C16.9823 9.60001 19.9098 9.1076 21.9806 8.34377C23.02 7.96041 23.7911 7.5278 24.284 7.09793C24.7792 6.66612 24.9 6.326 24.9 6.10001C24.9 5.87401 24.7792 5.53389 24.284 5.10208C23.7911 4.67221 23.02 4.2396 21.9806 3.85624C19.9098 3.09241 16.9823 2.60001 13.7 2.60001C10.4176 2.60001 7.49014 3.09241 5.41934 3.85624C4.38001 4.2396 3.6089 4.67221 3.11598 5.10207ZM4.72721 1.97981C7.07191 1.11496 10.2444 0.600006 13.7 0.600006C17.1555 0.600006 20.328 1.11496 22.6728 1.97981C23.8412 2.41079 24.8567 2.94785 25.5985 3.59473C26.3381 4.23966 26.9 5.08336 26.9 6.10001C26.9 7.11665 26.3381 7.96036 25.5985 8.60528C24.8567 9.25217 23.8412 9.78922 22.6728 10.2202C20.328 11.0851 17.1555 11.6 13.7 11.6C10.2444 11.6 7.07191 11.0851 4.72721 10.2202C3.55878 9.78922 2.54325 9.25216 1.80148 8.60528C1.06193 7.96034 0.5 7.11664 0.5 6.10001C0.5 5.08337 1.06193 4.23967 1.80148 3.59473C2.54325 2.94785 3.55878 2.4108 4.72721 1.97981Z" fill="black"/>
</svg>
