<svg width="14" height="20" viewBox="0 0 14 20" fill="none" xmlns="http://www.w3.org/2000/svg">
<path d="M11.4741 20H2.52506C1.11401 20 0 18.7347 0 17.2245C0 16.5306 0.482728 16 1.11399 16C1.74525 16 2.22798 16.5306 2.22798 17.2245C2.22798 17.4286 2.37653 17.551 2.52506 17.551H11.4741C11.6598 17.551 11.7711 17.3878 11.7711 17.2245C11.7711 16.5306 12.2539 16 12.8851 16C13.5164 16 13.9991 16.5306 13.9991 17.2245C14.0363 18.7755 12.8851 20 11.4741 20Z" fill="black"/>
<path d="M7.30278 1.71294e-05C6.7012 1.71294e-05 6.24117 0.474712 6.24117 1.09547V11.2101L2.73783 7.59514C2.31319 7.15696 1.64085 7.15696 1.25159 7.59514C0.826944 8.03332 0.826944 8.7271 1.25159 9.12876L6.55966 14.606C6.87814 14.9346 7.30278 15.0077 7.72743 14.8616C8.11669 14.679 8.39977 14.2774 8.39977 13.8392V1.05895C8.36438 0.474713 7.90436 1.71294e-05 7.30278 1.71294e-05Z" fill="black"/>
<path d="M12.9333 7C12.6489 7 12.4 7.11334 12.1866 7.34001L6.85321 13.0068C6.42653 13.4601 6.42653 14.1779 6.85321 14.5935C7.27988 15.0468 7.95544 15.0468 8.34656 14.5935L13.68 8.92671C14.1067 8.47336 14.1067 7.75557 13.68 7.34001C13.4667 7.11334 13.2178 7 12.9333 7Z" fill="black"/>
</svg>
