<svg width="26" height="12" viewBox="0 0 26 12" fill="none" xmlns="http://www.w3.org/2000/svg">
<path fill-rule="evenodd" clip-rule="evenodd" d="M23.4182 0.776404C23.7625 0.344835 24.3914 0.273861 24.8232 0.617941C25.2551 0.962127 25.3262 1.59128 24.982 2.0232L24.2 1.4C24.982 2.0232 24.9823 2.02292 24.982 2.0232L24.9796 2.02625L24.9753 2.03162L24.9611 2.04919C24.9491 2.06389 24.9322 2.0845 24.9105 2.11064C24.8672 2.1629 24.8045 2.23729 24.7234 2.33064C24.5614 2.51725 24.3255 2.78013 24.0232 3.09386C23.4197 3.72019 22.5457 4.55519 21.4606 5.39192C19.3133 7.04769 16.2226 8.80001 12.7 8.80001C9.2256 8.80001 6.1346 7.04577 3.97915 5.39369C2.88881 4.55798 2.0062 3.72405 1.39548 3.09868C1.08957 2.78542 0.850425 2.523 0.686058 2.33682C0.603839 2.24368 0.540225 2.16951 0.496216 2.11744C0.474209 2.09141 0.457094 2.07089 0.444997 2.05629L0.430627 2.03886L0.42629 2.03357L0.42484 2.03179C0.424617 2.03151 0.423869 2.03059 1.19998 1.4L0.423869 2.03059C0.0756025 1.60196 0.140755 0.972153 0.569391 0.623887C0.997817 0.275792 1.62721 0.340709 1.97558 0.768778M1.97558 0.768778L1.97693 0.770417L1.98519 0.780432C1.99315 0.790048 2.00601 0.805469 2.02362 0.826309C2.05886 0.867998 2.11312 0.93132 2.18539 1.01319C2.33001 1.177 2.54633 1.41458 2.82636 1.70133C3.38752 2.27595 4.19865 3.04203 5.19582 3.80632C7.21536 5.35424 9.87436 6.80001 12.7 6.80001C15.5773 6.80001 18.2367 5.35232 20.2394 3.80809C21.2292 3.04482 22.0302 2.27982 22.583 1.70615C22.8588 1.41987 23.0714 1.18275 23.2133 1.01937C23.2842 0.937713 23.3373 0.8746 23.3717 0.833113C23.389 0.812373 23.4015 0.797051 23.4092 0.787533L23.4172 0.777663L23.4182 0.776404C23.4183 0.776272 23.4181 0.776535 23.4182 0.776404" fill="black"/>
<path fill-rule="evenodd" clip-rule="evenodd" d="M12.8001 7.70001C13.3524 7.70001 13.8001 8.14773 13.8001 8.70001V10.5C13.8001 11.0523 13.3524 11.5 12.8001 11.5C12.2478 11.5 11.8001 11.0523 11.8001 10.5V8.70001C11.8001 8.14773 12.2478 7.70001 12.8001 7.70001Z" fill="black"/>
<path fill-rule="evenodd" clip-rule="evenodd" d="M8.48556 6.58934C8.93328 6.9127 9.03409 7.53779 8.71073 7.98551L7.41068 9.78551C7.08731 10.2332 6.46223 10.334 6.01451 10.0107C5.56679 9.68731 5.46598 9.06223 5.78934 8.6145L7.08939 6.8145C7.41276 6.36678 8.03784 6.26597 8.48556 6.58934Z" fill="black"/>
<path fill-rule="evenodd" clip-rule="evenodd" d="M16.5708 6.12276C17 5.77526 17.6297 5.84153 17.9772 6.27078L19.6773 8.37079C20.0248 8.80004 19.9585 9.42973 19.5293 9.77724C19.1 10.1247 18.4703 10.0585 18.1228 9.62922L16.4228 7.52921C16.0752 7.09996 16.1415 6.47027 16.5708 6.12276Z" fill="black"/>
<path fill-rule="evenodd" clip-rule="evenodd" d="M21.3753 3.51915C21.8066 3.17414 22.4359 3.24407 22.7809 3.67534L24.3809 5.67534C24.7259 6.1066 24.656 6.73589 24.2247 7.0809C23.7934 7.4259 23.1641 7.35598 22.8191 6.92471L21.2192 4.92471C20.8742 4.49345 20.9441 3.86416 21.3753 3.51915Z" fill="black"/>
<path fill-rule="evenodd" clip-rule="evenodd" d="M4.12472 3.51915C4.55598 3.86416 4.62591 4.49345 4.2809 4.92471L2.68093 6.92471C2.33592 7.35598 1.70663 7.4259 1.27536 7.0809C0.8441 6.73589 0.774174 6.1066 1.11918 5.67534L2.71916 3.67534C3.06416 3.24407 3.69345 3.17414 4.12472 3.51915Z" fill="black"/>
</svg>
