<svg width="26" height="17" viewBox="0 0 26 17" fill="none" xmlns="http://www.w3.org/2000/svg">
<path d="M12.8 7C14.9 7 16.5 8.7 16.5 10.7C16.5 12.8 14.8 14.4 12.8 14.4C10.8 14.4 9.09998 12.7 9.09998 10.7C9.09998 8.7 10.8 7 12.8 7ZM12.8 5C9.60005 5 7.09998 7.6 7.09998 10.7C7.09998 13.8 9.70005 16.4 12.8 16.4C15.9 16.4 18.5 13.8 18.5 10.7C18.5 7.6 16 5 12.8 5Z" fill="black"/>
<path d="M1.40002 7.8C1.40002 7.8 6.50002 1.39999 12.9 1.39999C19.3 1.39999 24.4 7.8 24.4 7.8" stroke="black" stroke-width="2" stroke-miterlimit="10" stroke-linecap="round"/>
</svg>
