<svg width="20" height="20" viewBox="0 0 20 20" fill="none" xmlns="http://www.w3.org/2000/svg">
<path d="M7 13.1V17.7H2.3999V13.1H7ZM7.80005 11.1H1.5C0.9 11.1 0.300049 11.6 0.300049 12.3V18.6C0.300049 19.2 0.8 19.8 1.5 19.8H7.80005C8.40005 19.8 9 19.3 9 18.6V12.3C9 11.6 8.50005 11.1 7.80005 11.1Z" fill="black"/>
<path d="M7 2.79999V7.39998H2.3999V2.79999H7ZM7.80005 0.799988H1.5C0.9 0.799988 0.300049 1.29998 0.300049 1.99998V8.29999C0.300049 8.89999 0.8 9.49998 1.5 9.49998H7.80005C8.40005 9.49998 9 8.99999 9 8.29999V1.99998C9 1.29998 8.50005 0.799988 7.80005 0.799988Z" fill="black"/>
<path d="M17.3 2.79999V7.39998H12.7V2.79999H17.3ZM18.2 0.799988H11.8999C11.2999 0.799988 10.7 1.29998 10.7 1.99998V8.29999C10.7 8.89999 11.1999 9.49998 11.8999 9.49998H18.2C18.8 9.49998 19.3999 8.99999 19.3999 8.29999V1.99998C19.2999 1.29998 18.8 0.799988 18.2 0.799988Z" fill="black"/>
<path d="M17.3 13.1V17.7H12.7V13.1H17.3ZM18.2 11.1H11.8999C11.2999 11.1 10.7 11.6 10.7 12.3V18.6C10.7 19.2 11.1999 19.8 11.8999 19.8H18.2C18.8 19.8 19.3999 19.3 19.3999 18.6V12.3C19.2999 11.6 18.8 11.1 18.2 11.1Z" fill="black"/>
</svg>
