<svg width="20" height="20" viewBox="0 0 20 20" fill="none" xmlns="http://www.w3.org/2000/svg">
<path d="M17.79 13.41C18.74 11.24 18.74 8.75 17.79 6.59L15.05 7.83C15.65 9.21 15.65 10.78 15.06 12.17L17.79 13.41ZM13.42 2.21C11.25 1.26 8.76 1.26 6.59 2.21L7.83 4.94C9.22 4.35 10.79 4.35 12.18 4.95L13.42 2.21ZM2.21 6.58C1.26 8.76 1.26 11.24 2.21 13.42L4.95 12.17C4.35 10.79 4.35 9.21 4.95 7.82L2.21 6.58ZM6.59 17.79C8.76 18.74 11.25 18.74 13.42 17.78L12.18 15.05C10.8 15.65 9.22 15.65 7.84 15.06L6.59 17.79ZM10 0C11.3132 0 12.6136 0.258658 13.8268 0.761205C15.0401 1.26375 16.1425 2.00035 17.0711 2.92893C17.9997 3.85752 18.7362 4.95991 19.2388 6.17317C19.7413 7.38642 20 8.68678 20 10C20 12.6522 18.9464 15.1957 17.0711 17.0711C15.1957 18.9464 12.6522 20 10 20C8.68678 20 7.38642 19.7413 6.17317 19.2388C4.95991 18.7362 3.85752 17.9997 2.92893 17.0711C1.05357 15.1957 0 12.6522 0 10C0 7.34784 1.05357 4.8043 2.92893 2.92893C4.8043 1.05357 7.34784 0 10 0V0ZM10 6C8.93913 6 7.92172 6.42143 7.17157 7.17157C6.42143 7.92172 6 8.93913 6 10C6 11.0609 6.42143 12.0783 7.17157 12.8284C7.92172 13.5786 8.93913 14 10 14C11.0609 14 12.0783 13.5786 12.8284 12.8284C13.5786 12.0783 14 11.0609 14 10C14 8.93913 13.5786 7.92172 12.8284 7.17157C12.0783 6.42143 11.0609 6 10 6V6Z" fill="black"/>
</svg>
