<svg width="11" height="21" viewBox="0 0 11 21" fill="none" xmlns="http://www.w3.org/2000/svg">
<path fill-rule="evenodd" clip-rule="evenodd" d="M6.65112 0.153435C7.21678 0.481485 7.42193 1.22864 7.10933 1.82226L3.15393 9.33336H9.82979C10.2451 9.33336 10.6293 9.5644 10.8394 9.94043C11.0494 10.3165 11.0537 10.7811 10.8508 11.1614L5.93591 20.3718C5.62013 20.9635 4.90702 21.1746 4.34312 20.8432C3.77923 20.5118 3.5781 19.7635 3.89387 19.1717L7.83326 11.7895H1.17021C0.756051 11.7895 0.372738 11.5597 0.162305 11.1854C-0.0481272 10.811 -0.0543306 10.3478 0.145994 9.96742L5.06089 0.634283C5.37349 0.0406679 6.08546 -0.174615 6.65112 0.153435Z" fill="black"/>
</svg>
