<svg width="19" height="21" viewBox="0 0 19 21" fill="none" xmlns="http://www.w3.org/2000/svg">
<path fill-rule="evenodd" clip-rule="evenodd" d="M9.30005 2.10001C7.33807 2.10001 5.69995 3.66644 5.69995 5.7V8.7H3.69995V5.7C3.69995 2.53356 6.26202 0.100006 9.30005 0.100006C12.3524 0.100006 14.8999 2.64775 14.8999 5.7V8.7H12.8999V5.7C12.8999 3.75224 11.2477 2.10001 9.30005 2.10001Z" fill="black"/>
<path fill-rule="evenodd" clip-rule="evenodd" d="M3.69995 9.60001C2.95229 9.60001 2.30005 10.2522 2.30005 11V16.8C2.30005 17.5478 2.95229 18.2 3.69995 18.2H15C15.7034 18.2 16.3208 17.6836 16.3999 16.7611V11C16.3999 10.2522 15.7477 9.60001 15 9.60001H3.69995ZM0.300049 11C0.300049 9.14776 1.84762 7.60001 3.69995 7.60001H15C16.8523 7.60001 18.3999 9.14776 18.3999 11V16.8357L18.3974 16.8713C18.2647 18.7285 16.8884 20.2 15 20.2H3.69995C1.84762 20.2 0.300049 18.6522 0.300049 16.8V11Z" fill="black"/>
</svg>
