<svg width="29" height="16" viewBox="0 0 29 16" fill="none" xmlns="http://www.w3.org/2000/svg">
<path fill-rule="evenodd" clip-rule="evenodd" d="M16.6 1C16.6 0.447715 17.0477 0 17.6 0H26.2C27.6522 0 28.9 1.24765 28.9 2.7V13.3C28.9 14.7523 27.6522 16 26.2 16H17.6C17.0477 16 16.6 15.5523 16.6 15C16.6 14.4477 17.0477 14 17.6 14H26.2C26.5477 14 26.9 13.6477 26.9 13.3V2.7C26.9 2.35234 26.5477 2 26.2 2H17.6C17.0477 2 16.6 1.55228 16.6 1Z" fill="black"/>
<path fill-rule="evenodd" clip-rule="evenodd" d="M9.99818 0.787602C10.3916 0.400022 11.0248 0.404778 11.4123 0.798224L18.0124 7.49822C18.2953 7.78539 18.3781 8.21432 18.2225 8.58615C18.0668 8.95798 17.7031 9.2 17.3 9.2H1.90002C1.34774 9.2 0.900024 8.75228 0.900024 8.2C0.900024 7.64771 1.34774 7.2 1.90002 7.2H14.9113L9.98755 2.20178C9.59997 1.80833 9.60473 1.17518 9.99818 0.787602Z" fill="black"/>
<path fill-rule="evenodd" clip-rule="evenodd" d="M18.0072 7.49291C18.3977 7.88344 18.3977 8.5166 18.0072 8.90712L11.4071 15.5071C11.0165 15.8977 10.3834 15.8976 9.99284 15.5071C9.60232 15.1166 9.60232 14.4834 9.99285 14.0929L16.5929 7.4929C16.9835 7.10238 17.6166 7.10238 18.0072 7.49291Z" fill="black"/>
</svg>
