<svg width="25" height="16" viewBox="0 0 25 16" fill="none" xmlns="http://www.w3.org/2000/svg">
<path fill-rule="evenodd" clip-rule="evenodd" d="M0.900024 3.30002C0.900024 1.84776 2.04769 0.700012 3.5 0.700012H11.7C12.2522 0.700012 12.7 1.14773 12.7 1.70001C12.7 2.2523 12.2522 2.70001 11.7 2.70001H3.5C3.15231 2.70001 2.90002 2.95228 2.90002 3.30002V13.4C2.90002 13.7477 3.15231 14 3.5 14H11.7C12.2522 14 12.7 14.4477 12.7 15C12.7 15.5523 12.2522 16 11.7 16H3.5C2.04769 16 0.900024 14.8523 0.900024 13.4V3.30002Z" fill="black"/>
<path fill-rule="evenodd" clip-rule="evenodd" d="M16.2873 1.39849C16.6748 1.0049 17.3079 0.999916 17.7015 1.38735L24.1015 7.68734C24.3908 7.97208 24.4793 8.40343 24.3254 8.77904C24.1716 9.15464 23.8059 9.39999 23.4 9.39999H8.59998C8.04769 9.39999 7.59998 8.95228 7.59998 8.39999C7.59998 7.84771 8.04769 7.39999 8.59998 7.39999H20.9587L16.2985 2.81266C15.9049 2.42522 15.8999 1.79208 16.2873 1.39849Z" fill="black"/>
<path fill-rule="evenodd" clip-rule="evenodd" d="M24.1127 7.69848C24.5001 8.09207 24.4951 8.72521 24.1015 9.11265L17.7015 15.4127C17.3079 15.8001 16.6748 15.7951 16.2873 15.4015C15.8999 15.0079 15.9049 14.3748 16.2985 13.9873L22.6985 7.68734C23.0921 7.2999 23.7252 7.30489 24.1127 7.69848Z" fill="black"/>
</svg>
