<svg width="27" height="28" viewBox="0 0 27 28" fill="none" xmlns="http://www.w3.org/2000/svg">
<path fill-rule="evenodd" clip-rule="evenodd" d="M8.90002 2.30002C8.15229 2.30002 7.5 2.95231 7.5 3.70001V8.10002C7.5 8.65231 7.05228 9.10002 6.5 9.10002C5.94772 9.10002 5.5 8.65231 5.5 8.10002V3.70001C5.5 1.84771 7.04776 0.300018 8.90002 0.300018H16.3C16.5652 0.300018 16.8196 0.405375 17.0071 0.592911L26.7071 10.2929C26.8946 10.4804 27 10.7348 27 11V24.2C27 26.0523 25.4523 27.6 23.6 27.6H16.3C15.7477 27.6 15.3 27.1523 15.3 26.6C15.3 26.0477 15.7477 25.6 16.3 25.6H23.6C24.3477 25.6 25 24.9477 25 24.2V11.4142L15.8858 2.30002H8.90002Z" fill="black"/>
<path fill-rule="evenodd" clip-rule="evenodd" d="M6.5 12.5C7.05228 12.5 7.5 12.9477 7.5 13.5V24.1858L11.3929 20.2929C11.7834 19.9024 12.4166 19.9024 12.8071 20.2929C13.1976 20.6834 13.1976 21.3166 12.8071 21.7071L7.20711 27.3071C6.92111 27.5931 6.49099 27.6787 6.11732 27.5239C5.74364 27.3691 5.5 27.0045 5.5 26.6V13.5C5.5 12.9477 5.94772 12.5 6.5 12.5Z" fill="black"/>
<path fill-rule="evenodd" clip-rule="evenodd" d="M0.299293 20.2866C0.693319 19.8996 1.32646 19.9053 1.71345 20.2993L7.21345 25.8993C7.60044 26.2933 7.59473 26.9265 7.20071 27.3135C6.80668 27.7004 6.17354 27.6947 5.78655 27.3007L0.286552 21.7007C-0.100438 21.3067 -0.0947341 20.6735 0.299293 20.2866Z" fill="black"/>
<path fill-rule="evenodd" clip-rule="evenodd" d="M15.9173 0.376138C16.291 0.221357 16.7211 0.306912 17.0071 0.59291L26.7071 10.2929C26.9931 10.5789 27.0787 11.009 26.9239 11.3827C26.7691 11.7564 26.4045 12 26 12H16.3C15.7477 12 15.3 11.5523 15.3 11V1.30002C15.3 0.895555 15.5436 0.530919 15.9173 0.376138ZM17.3 3.71423V10H23.5858L17.3 3.71423Z" fill="black"/>
</svg>
