<svg width="14" height="16" viewBox="0 0 14 16" fill="none" xmlns="http://www.w3.org/2000/svg">
<path d="M6.90986 15.5181L6.62154 15.3494C2.1525 12.8434 0.66282 9.68675 0.206306 7.49398C-0.298263 5.08434 0.278393 3.30121 0.30242 3.20482L0.446576 2.79518H0.879068C3.44996 2.79518 6.5014 0.33735 6.54946 0.313254L6.93389 0L7.31832 0.313254C7.34235 0.33735 10.4178 2.79518 12.9887 2.79518H13.4212L13.5654 3.20482C13.5894 3.27711 14.166 5.08434 13.6615 7.49398C13.205 9.68675 11.7153 12.8434 7.24624 15.3494L6.90986 15.5181ZM1.33558 4C1.02323 5.44578 0.542691 10.3855 6.90986 14.1205C13.277 10.3855 12.7725 5.42169 12.4841 4C10.1775 3.80723 7.82289 2.21687 6.90986 1.54217C6.02086 2.21687 3.64218 3.80723 1.33558 4Z" fill="white"/>
</svg>
