<svg width="25" height="11" viewBox="0 0 25 11" fill="none" xmlns="http://www.w3.org/2000/svg">
<path fill-rule="evenodd" clip-rule="evenodd" d="M5.69292 10.5961C6.08185 10.9959 6.71187 10.9978 7.10304 10.6003L15.1002 2.47339L22.6972 10.1893C23.0901 10.5883 23.7233 10.5844 24.1114 10.1805C24.4996 9.77657 24.4957 9.12566 24.1028 8.72663L15.8028 0.296734C15.4132 -0.0989617 14.7865 -0.0988696 14.397 0.29694L6.4041 8.41951L1.70711 3.59084C1.31658 3.18937 0.683416 3.18937 0.292892 3.59084C-0.0976316 3.99232 -0.0976306 4.64323 0.292894 5.04471L5.69292 10.5961Z" fill="black"/>
<path fill-rule="evenodd" clip-rule="evenodd" d="M24.7167 10.6888C24.9453 10.4472 25.0442 10.1058 24.9815 9.77507L24.1815 5.56013C24.1107 5.18716 23.8455 4.88476 23.492 4.77379C23.1385 4.66281 22.7542 4.76137 22.4929 5.03007L19.0928 8.52539C18.828 8.79769 18.7333 9.19934 18.8477 9.56606C18.962 9.93278 19.2661 10.2031 19.6356 10.2664L23.8356 10.986C24.1589 11.0414 24.4882 10.9304 24.7167 10.6888ZM21.8811 8.56669L22.5783 7.84992L22.7424 8.71426L21.8811 8.56669Z" fill="black"/>
</svg>
