<svg width="28" height="24" viewBox="0 0 28 24" fill="none" xmlns="http://www.w3.org/2000/svg">
<path d="M6.92173 23.314C6.26801 23.314 5.76811 22.8233 5.76811 22.1816L5.76811 11.6876L1.96119 15.4246C1.49974 15.8776 0.769082 15.8776 0.346087 15.4246C-0.115362 14.9717 -0.115362 14.2544 0.346087 13.8392L6.1142 8.17698C6.46029 7.83724 6.92176 7.76176 7.38321 7.91275C7.8062 8.10149 8.11385 8.51671 8.11385 8.96969L8.11385 22.1816C8.07539 22.8233 7.57545 23.314 6.92173 23.314Z" fill="black"/>
<path d="M12.6899 15.7637C12.3822 15.7637 12.1131 15.6505 11.8823 15.424L6.11421 9.76174C5.65277 9.30876 5.65277 8.59154 6.11421 8.17631C6.57566 7.72333 7.30632 7.72333 7.72932 8.17631L13.4974 13.8385C13.9589 14.2915 13.9589 15.0087 13.4974 15.424C13.3052 15.6505 12.9975 15.7637 12.6899 15.7637Z" fill="black"/>
<path d="M20.3567 -3.0169e-05C21.0104 -3.01119e-05 21.5103 0.490695 21.5103 1.13241L21.5103 11.6264L25.3173 7.88933C25.7787 7.43636 26.5094 7.43636 26.9324 7.88933C27.3938 8.34231 27.3938 9.05953 26.9324 9.47476L21.1642 15.137C20.8182 15.4767 20.3567 15.5522 19.8952 15.4012C19.4722 15.2125 19.1646 14.7973 19.1646 14.3443L19.1646 1.13241C19.2031 0.490695 19.703 -3.02262e-05 20.3567 -3.0169e-05Z" fill="black"/>
<path d="M14.5885 7.55033C14.8962 7.55033 15.1653 7.66357 15.3961 7.89006L21.1642 13.5523C21.6256 14.0053 21.6256 14.7225 21.1642 15.1377C20.7027 15.5907 19.9721 15.5907 19.5491 15.1377L13.7809 9.47549C13.3195 9.02251 13.3195 8.30529 13.7809 7.89006C13.9732 7.66357 14.2809 7.55033 14.5885 7.55033Z" fill="black"/>
</svg>
