<svg width="25" height="21" viewBox="0 0 25 21" fill="none" xmlns="http://www.w3.org/2000/svg">
<path d="M6.18252 20.8249C5.59861 20.8249 5.1521 20.3866 5.1521 19.8134L5.1521 10.4401L1.75174 13.7781C1.33957 14.1827 0.686947 14.1827 0.309126 13.7781C-0.103042 13.3735 -0.103042 12.7329 0.309126 12.362L5.46123 7.30444C5.77036 7.00099 6.18254 6.93357 6.59471 7.06843C6.97253 7.23702 7.24732 7.6079 7.24732 8.0125L7.24732 19.8134C7.21297 20.3866 6.76642 20.8249 6.18252 20.8249Z" fill="white"/>
<path d="M11.3346 14.0805C11.0598 14.0805 10.8194 13.9794 10.6133 13.7771L5.46123 8.71956C5.04906 8.31496 5.04906 7.67434 5.46123 7.30345C5.87339 6.89885 6.52602 6.89885 6.90384 7.30345L12.0559 12.361C12.4681 12.7656 12.4681 13.4062 12.0559 13.7771C11.8842 13.9794 11.6094 14.0805 11.3346 14.0805Z" fill="white"/>
<path d="M18.1827 6.43094e-05C18.7666 6.43604e-05 19.2131 0.438383 19.2131 1.01157L19.2131 10.3848L22.6135 7.04687C23.0257 6.64227 23.6783 6.64227 24.0561 7.04687C24.4683 7.45148 24.4683 8.0921 24.0561 8.46299L18.904 13.5205C18.5949 13.824 18.1827 13.8914 17.7705 13.7565C17.3927 13.5879 17.1179 13.2171 17.1179 12.8125L17.1179 1.01157C17.1523 0.438382 17.5988 6.42583e-05 18.1827 6.43094e-05Z" fill="white"/>
<path d="M13.0306 6.74442C13.3054 6.74442 13.5458 6.84557 13.7519 7.04787L18.904 12.1054C19.3162 12.51 19.3162 13.1506 18.904 13.5215C18.4918 13.9261 17.8392 13.9261 17.4614 13.5215L12.3093 8.46398C11.8971 8.05938 11.8971 7.41875 12.3093 7.04787C12.481 6.84557 12.7558 6.74442 13.0306 6.74442Z" fill="white"/>
</svg>
