<svg width="25" height="22" viewBox="0 0 25 22" fill="none" xmlns="http://www.w3.org/2000/svg">
<path fill-rule="evenodd" clip-rule="evenodd" d="M3.69995 15.4C4.25224 15.4 4.69995 15.8477 4.69995 16.4V20.6C4.69995 21.1523 4.25224 21.6 3.69995 21.6C3.14767 21.6 2.69995 21.1523 2.69995 20.6V16.4C2.69995 15.8477 3.14767 15.4 3.69995 15.4Z" fill="black"/>
<path fill-rule="evenodd" clip-rule="evenodd" d="M3.69995 0.100006C4.25224 0.100006 4.69995 0.547721 4.69995 1.10001V10.5C4.69995 11.0523 4.25224 11.5 3.69995 11.5C3.14767 11.5 2.69995 11.0523 2.69995 10.5V1.10001C2.69995 0.547721 3.14767 0.100006 3.69995 0.100006Z" fill="black"/>
<path fill-rule="evenodd" clip-rule="evenodd" d="M12.3 9C12.8523 9 13.3 9.44772 13.3 10V20.6C13.3 21.1523 12.8523 21.6 12.3 21.6C11.7478 21.6 11.3 21.1523 11.3 20.6V10C11.3 9.44772 11.7478 9 12.3 9Z" fill="black"/>
<path fill-rule="evenodd" clip-rule="evenodd" d="M12.3 0.100006C12.8523 0.100006 13.3 0.547721 13.3 1.10001V4.89999C13.3 5.45228 12.8523 5.89999 12.3 5.89999C11.7478 5.89999 11.3 5.45228 11.3 4.89999V1.10001C11.3 0.547721 11.7478 0.100006 12.3 0.100006Z" fill="black"/>
<path fill-rule="evenodd" clip-rule="evenodd" d="M20.8 15.4C21.3523 15.4 21.8 15.8477 21.8 16.4V20.6C21.8 21.1523 21.3523 21.6 20.8 21.6C20.2478 21.6 19.8 21.1523 19.8 20.6V16.4C19.8 15.8477 20.2478 15.4 20.8 15.4Z" fill="black"/>
<path fill-rule="evenodd" clip-rule="evenodd" d="M20.8 0.100006C21.3523 0.100006 21.8 0.547721 21.8 1.10001V10.5C21.8 11.0523 21.3523 11.5 20.8 11.5C20.2478 11.5 19.8 11.0523 19.8 10.5V1.10001C19.8 0.547721 20.2478 0.100006 20.8 0.100006Z" fill="black"/>
<path fill-rule="evenodd" clip-rule="evenodd" d="M3.69995 11.8C2.81636 11.8 2.1001 12.5163 2.1001 13.4C2.1001 14.2837 2.81637 15 3.69995 15C4.58365 15 5.30005 14.2836 5.30005 13.4C5.30005 12.5164 4.58366 11.8 3.69995 11.8ZM0.100098 13.4C0.100098 11.4118 1.71166 9.79999 3.69995 9.79999C5.68812 9.79999 7.30005 11.4117 7.30005 13.4C7.30005 15.3882 5.68813 17 3.69995 17C1.71165 17 0.100098 15.3881 0.100098 13.4Z" fill="black"/>
<path fill-rule="evenodd" clip-rule="evenodd" d="M20.8 11.8C19.9163 11.8 19.2 12.5164 19.2 13.4C19.2 14.2836 19.9163 15 20.8 15C21.6836 15 22.3999 14.2837 22.3999 13.4C22.3999 12.5163 21.6836 11.8 20.8 11.8ZM17.2 13.4C17.2 11.4117 18.8119 9.79999 20.8 9.79999C22.7883 9.79999 24.3999 11.4118 24.3999 13.4C24.3999 15.3881 22.7884 17 20.8 17C18.8119 17 17.2 15.3882 17.2 13.4Z" fill="black"/>
<path fill-rule="evenodd" clip-rule="evenodd" d="M12.3 5.79999C11.4163 5.79999 10.7 6.51638 10.7 7.39998C10.7 8.28359 11.4163 8.99998 12.3 8.99998C13.1836 8.99998 13.8999 8.28371 13.8999 7.39998C13.8999 6.51625 13.1836 5.79999 12.3 5.79999ZM8.69995 7.39998C8.69995 5.4117 10.3119 3.79999 12.3 3.79999C14.2883 3.79999 15.8999 5.41182 15.8999 7.39998C15.8999 9.38813 14.2884 11 12.3 11C10.3119 11 8.69995 9.38825 8.69995 7.39998Z" fill="black"/>
</svg>
