<svg width="17" height="15" viewBox="0 0 17 15" fill="none" xmlns="http://www.w3.org/2000/svg">
<path d="M2.42673 7.46988C2.64298 7.46988 2.83519 7.51807 3.02741 7.56627V0.60241C3.02741 0.26506 2.76311 0 2.42673 0C2.09036 0 1.82606 0.26506 1.82606 0.60241V7.56627C2.01827 7.49398 2.23452 7.46988 2.42673 7.46988Z" fill="white"/>
<path d="M2.42674 11.1084C2.2105 11.1084 2.01828 11.0602 1.82607 11.012V14.3614C1.82607 14.6988 2.09036 14.9638 2.42674 14.9638C2.76312 14.9638 3.02742 14.6988 3.02742 14.3614V10.9879C2.85923 11.0602 2.64299 11.1084 2.42674 11.1084Z" fill="white"/>
<path d="M2.42674 11.7109C1.10525 11.7109 0 10.6265 0 9.27712C0 7.95182 1.08122 6.84338 2.42674 6.84338C3.77225 6.84338 4.85346 7.92772 4.85346 9.27712C4.85346 10.6265 3.77225 11.7109 2.42674 11.7109ZM2.42674 8.0723C1.75398 8.0723 1.22538 8.62652 1.22538 9.27712C1.22538 9.92772 1.778 10.4819 2.42674 10.4819C3.07547 10.4819 3.62809 9.92772 3.62809 9.27712C3.62809 8.62652 3.09949 8.0723 2.42674 8.0723Z" fill="white"/>
<path d="M14.5364 7.46988C14.7526 7.46988 14.9449 7.51807 15.1371 7.56627V0.60241C15.1371 0.26506 14.8728 0 14.5364 0C14.2 0 13.9357 0.26506 13.9357 0.60241V7.56627C14.1039 7.49398 14.3201 7.46988 14.5364 7.46988Z" fill="white"/>
<path d="M14.5364 11.1084C14.3202 11.1084 14.1279 11.0602 13.9357 11.012V14.3614C13.9357 14.6988 14.2 14.9638 14.5364 14.9638C14.8728 14.9638 15.1371 14.6988 15.1371 14.3614V10.9879C14.9449 11.0602 14.7286 11.1084 14.5364 11.1084Z" fill="white"/>
<path d="M14.5364 11.7109C13.2149 11.7109 12.1096 10.6265 12.1096 9.27712C12.1096 7.95182 13.1909 6.84338 14.5364 6.84338C15.8579 6.84338 16.9631 7.92772 16.9631 9.27712C16.9391 10.6265 15.8579 11.7109 14.5364 11.7109ZM14.5364 8.0723C13.8636 8.0723 13.335 8.62652 13.335 9.27712C13.335 9.92772 13.8877 10.4819 14.5364 10.4819C15.1851 10.4819 15.7377 9.92772 15.7377 9.27712C15.7377 8.62652 15.1851 8.0723 14.5364 8.0723Z" fill="white"/>
<path d="M8.48155 6.86743C8.26531 6.86743 8.07309 6.81924 7.88087 6.77104V14.3614C7.88087 14.6988 8.14517 14.9638 8.48155 14.9638C8.81793 14.9638 9.08223 14.6988 9.08223 14.3614V6.74695C8.89001 6.81924 8.6978 6.86743 8.48155 6.86743Z" fill="white"/>
<path d="M8.48156 3.22892C8.6978 3.22892 8.89002 3.27711 9.08224 3.3253V0.60241C9.08224 0.26506 8.81794 0 8.48156 0C8.14518 0 7.88088 0.26506 7.88088 0.60241V3.3253C8.0731 3.25301 8.26532 3.22892 8.48156 3.22892Z" fill="white"/>
<path d="M8.48156 7.46989C7.16007 7.46989 6.05482 6.38555 6.05482 5.03615C6.05482 3.68675 7.13604 2.60242 8.48156 2.60242C9.82708 2.60242 10.9083 3.68675 10.9083 5.03615C10.9083 6.38555 9.80305 7.46989 8.48156 7.46989ZM8.48156 3.83133C7.8088 3.83133 7.28021 4.38555 7.28021 5.03615C7.28021 5.68675 7.83283 6.24097 8.48156 6.24097C9.13029 6.24097 9.68291 5.68675 9.68291 5.03615C9.68291 4.38555 9.15432 3.83133 8.48156 3.83133Z" fill="white"/>
</svg>
