<svg width="21" height="23" viewBox="0 0 21 23" fill="none" xmlns="http://www.w3.org/2000/svg">
<path fill-rule="evenodd" clip-rule="evenodd" d="M9.86722 1.22567L10.5 0.707947L11.1327 1.22562L11.1406 1.23199L11.1725 1.25754C11.2018 1.28082 11.2469 1.31627 11.3065 1.36215C11.4258 1.45396 11.6031 1.58726 11.8289 1.74822C12.2815 2.07082 12.9238 2.50098 13.6807 2.93008C15.2281 3.80732 17.1163 4.60001 18.8 4.60001H19.5258L19.7508 5.28999L18.8 5.60001C19.7508 5.28999 19.751 5.29064 19.7512 5.29132L19.7517 5.29286L19.7529 5.29659L19.7561 5.3066L19.7654 5.33673C19.7728 5.36125 19.7826 5.39461 19.7943 5.43644C19.8176 5.52008 19.8483 5.63773 19.8821 5.78639C19.9495 6.08351 20.0294 6.50587 20.0864 7.02938C20.2001 8.07517 20.2233 9.5347 19.8654 11.209C19.1415 14.5962 16.8847 18.7331 10.9928 22.0701L10.5 22.3493L10.0072 22.0701C4.11527 18.7331 1.85845 14.5962 1.13456 11.209C0.776737 9.5347 0.799891 8.07517 0.913632 7.02938C0.97057 6.50587 1.05047 6.08351 1.11794 5.78639C1.1517 5.63773 1.18241 5.52008 1.20572 5.43644C1.21738 5.39461 1.2272 5.36125 1.23462 5.33673L1.24391 5.3066L1.24709 5.29659L1.24829 5.29286L1.24879 5.29132C1.24901 5.29064 1.24922 5.28999 2.19995 5.60001L1.24922 5.28999L1.47421 4.60001H2.19995C3.88371 4.60001 5.77193 3.80732 7.31929 2.93008C8.07618 2.50098 8.71855 2.07082 9.17108 1.74822C9.39688 1.58726 9.57417 1.45396 9.69349 1.36215C9.75312 1.31627 9.79818 1.28082 9.82747 1.25754L9.85942 1.23199L9.86722 1.22567ZM3.00123 6.55811C2.96612 6.75036 2.93067 6.9812 2.90191 7.24563C2.80628 8.12485 2.7857 9.36531 3.09039 10.791C3.67289 13.5166 5.4686 17.0406 10.5 20.0434C15.5314 17.0406 17.3271 13.5166 17.9096 10.791C18.2143 9.36531 18.1937 8.12485 18.0981 7.24563C18.0693 6.9812 18.0339 6.75036 17.9988 6.55811C16.0484 6.35868 14.126 5.4816 12.6943 4.66993C11.8637 4.19903 11.1623 3.72919 10.668 3.37678C10.6091 3.33479 10.553 3.29442 10.5 3.25586C10.447 3.29442 10.3909 3.33479 10.332 3.37678C9.83768 3.72919 9.13628 4.19903 8.30566 4.66993C6.87396 5.4816 4.95163 6.35868 3.00123 6.55811Z" fill="black"/>
</svg>
