<svg width="18" height="22" viewBox="0 0 18 22" fill="none" xmlns="http://www.w3.org/2000/svg">
<path fill-rule="evenodd" clip-rule="evenodd" d="M0.7761 14.1173C0.930881 13.7436 1.29552 13.5 1.69998 13.5H16.5C17.0523 13.5 17.5 13.9477 17.5 14.5C17.5 15.0523 17.0523 15.5 16.5 15.5H4.11421L8.70713 20.0929C9.09766 20.4834 9.09766 21.1166 8.70714 21.5071C8.31662 21.8976 7.68345 21.8976 7.29292 21.5071L0.992876 15.2071C0.706877 14.9211 0.62132 14.491 0.7761 14.1173Z" fill="black"/>
<path fill-rule="evenodd" clip-rule="evenodd" d="M9.38735 1.19848C9.77479 0.80489 10.4079 0.799904 10.8015 1.18734L17.2015 7.48734C17.4908 7.77209 17.5793 8.20343 17.4254 8.57904C17.2716 8.95465 16.9059 9.2 16.5 9.2H1.69998C1.1477 9.2 0.699982 8.75228 0.699982 8.2C0.699982 7.64771 1.1477 7.2 1.69998 7.2H14.0587L9.39849 2.61265C9.0049 2.22521 8.99992 1.59207 9.38735 1.19848Z" fill="black"/>
</svg>
