<svg width="41" height="51" viewBox="0 0 41 51" fill="none" xmlns="http://www.w3.org/2000/svg">
<path fill-rule="evenodd" clip-rule="evenodd" d="M0.228327 31.8519C0.69267 30.7309 1.78658 30 2.99997 30H38C39.6568 30 41 31.3431 41 33C41 34.6569 39.6568 36 38 36H10.2426L20.1213 45.8787C21.2929 47.0503 21.2929 48.9497 20.1213 50.1213C18.9497 51.2929 17.0502 51.2929 15.8786 50.1213L0.878645 35.1213C0.0206513 34.2633 -0.236016 32.973 0.228327 31.8519Z" fill="black"/>
<path fill-rule="evenodd" clip-rule="evenodd" d="M20.8787 0.87868C22.0503 -0.292893 23.9497 -0.292893 25.1213 0.87868L40.1213 15.8787C40.9793 16.7367 41.236 18.027 40.7716 19.1481C40.3073 20.2691 39.2134 21 38 21H3C1.34315 21 0 19.6569 0 18C0 16.3431 1.34315 15 3 15H30.7574L20.8787 5.12132C19.7071 3.94975 19.7071 2.05025 20.8787 0.87868Z" fill="black"/>
</svg>
