<svg width="23" height="23" viewBox="0 0 23 23" fill="none" xmlns="http://www.w3.org/2000/svg">
<path fill-rule="evenodd" clip-rule="evenodd" d="M16.6001 2.89999C14.6381 2.89999 13 4.46643 13 6.5V9.5C13 10.0523 12.5523 10.5 12 10.5C11.4477 10.5 11 10.0523 11 9.5V6.5C11 3.33357 13.5621 0.899994 16.6001 0.899994C19.7666 0.899994 22.2 3.46199 22.2 6.5C22.2 7.05228 21.7522 7.5 21.2 7.5C20.6477 7.5 20.2 7.05228 20.2 6.5C20.2 4.53801 18.6336 2.89999 16.6001 2.89999Z" fill="black"/>
<path fill-rule="evenodd" clip-rule="evenodd" d="M3.6001 11.6C2.8523 11.6 2.19995 12.2524 2.19995 13V18.8C2.19995 19.5476 2.8523 20.2 3.6001 20.2H14.8999C15.7477 20.2 16.3 19.6476 16.3 18.8V13C16.3 12.2524 15.6477 11.6 14.8999 11.6H3.6001ZM0.199951 13C0.199951 11.1476 1.7479 9.60001 3.6001 9.60001H14.8999C16.7521 9.60001 18.3 11.1476 18.3 13V18.8C18.3 20.7524 16.8521 22.2 14.8999 22.2H3.6001C1.7479 22.2 0.199951 20.6524 0.199951 18.8V13Z" fill="black"/>
</svg>
