<svg width="14" height="20" viewBox="0 0 14 20" fill="none" xmlns="http://www.w3.org/2000/svg">
<path d="M11.4741 19.6005H2.52506C1.11401 19.6005 0 18.4196 0 17.01C0 16.3624 0.482728 15.8672 1.11399 15.8672C1.74525 15.8672 2.22798 16.3624 2.22798 17.01C2.22798 17.2005 2.37653 17.3148 2.52506 17.3148H11.4741C11.6598 17.3148 11.7711 17.1624 11.7711 17.01C11.7711 16.3624 12.2539 15.8672 12.8851 15.8672C13.5164 15.8672 13.9991 16.3624 13.9991 17.01C14.0363 18.4577 12.8851 19.6005 11.4741 19.6005Z" fill="black"/>
<path d="M7.30278 14.9335C6.7012 14.9335 6.24117 14.4588 6.24117 13.838V3.72338L2.73783 7.33837C2.31319 7.77655 1.64085 7.77655 1.25159 7.33837C0.826944 6.90019 0.826944 6.2064 1.25159 5.80474L6.55966 0.327489C6.87814 -0.00114619 7.30278 -0.0741765 7.72743 0.0718835C8.11669 0.254458 8.39977 0.656123 8.39977 1.0943V13.8745C8.36438 14.4588 7.90436 14.9335 7.30278 14.9335Z" fill="black"/>
<path d="M12.9332 8.4C12.6488 8.4 12.3999 8.28 12.1865 8.04L6.8532 2.04C6.42654 1.56 6.42654 0.8 6.8532 0.36C7.27987 -0.12 7.95541 -0.12 8.34652 0.36L13.6799 6.36C14.1065 6.84 14.1065 7.6 13.6799 8.04C13.4665 8.28 13.2177 8.4 12.9332 8.4Z" fill="black"/>
</svg>
