<svg width="26" height="22" viewBox="0 0 26 22" fill="none" xmlns="http://www.w3.org/2000/svg">
<path fill-rule="evenodd" clip-rule="evenodd" d="M0 20.2C0 16.8262 2.28474 13.8 5.5 13.8H14.1C17.3152 13.8 19.6 16.8262 19.6 20.2C19.6 20.7523 19.1523 21.2 18.6 21.2C18.0477 21.2 17.6 20.7523 17.6 20.2C17.6 17.5738 15.8847 15.8 14.1 15.8H5.5C3.71526 15.8 2 17.5738 2 20.2C2 20.7523 1.55228 21.2 1 21.2C0.447715 21.2 0 20.7523 0 20.2Z" fill="black"/>
<path fill-rule="evenodd" clip-rule="evenodd" d="M15.9 3C15.2484 3 14.6538 3.16596 14.2547 3.43206C13.7951 3.73841 13.1743 3.61423 12.8679 3.15471C12.5615 2.69518 12.6857 2.07431 13.1453 1.76796C13.9461 1.23406 14.9517 1 15.9 1C18.8523 1 21.3 3.4477 21.3 6.39999C21.3 9.35228 18.8523 11.8 15.9 11.8C14.9517 11.8 13.9461 11.5659 13.1453 11.032C12.6857 10.7257 12.5615 10.1048 12.8679 9.6453C13.1743 9.18577 13.7951 9.06159 14.2547 9.36795C14.6538 9.63405 15.2484 9.8 15.9 9.8C17.7477 9.8 19.3 8.2477 19.3 6.39999C19.3 4.55229 17.7477 3 15.9 3Z" fill="black"/>
<path fill-rule="evenodd" clip-rule="evenodd" d="M10.3 14.8C10.3 14.2477 10.7478 13.8 11.3 13.8H19.9C23.1153 13.8 25.4 16.8262 25.4 20.2C25.4 20.7523 24.9523 21.2 24.4 21.2C23.8477 21.2 23.4 20.7523 23.4 20.2C23.4 17.5738 21.6848 15.8 19.9 15.8H11.3C10.7478 15.8 10.3 15.3523 10.3 14.8Z" fill="black"/>
<path d="M9.80005 2.70001C11.9 2.70001 13.5 4.40001 13.5 6.40001C13.5 8.40001 11.8 10.1 9.80005 10.1C7.80005 10.1 6.09998 8.40001 6.09998 6.40001C6.09998 4.40001 7.80005 2.70001 9.80005 2.70001ZM9.80005 0.700012C6.60005 0.700012 4.09998 3.30001 4.09998 6.40001C4.09998 9.50001 6.70005 12.1 9.80005 12.1C12.9 12.1 15.5 9.50001 15.5 6.40001C15.5 3.30001 13 0.700012 9.80005 0.700012Z" fill="black"/>
</svg>
