<svg width="20" height="22" viewBox="0 0 20 22" fill="none" xmlns="http://www.w3.org/2000/svg">
<path d="M10.2 2.70001C12.3 2.70001 13.9 4.40001 13.9 6.40001C13.9 8.40001 12.2 10.1 10.2 10.1C8.19995 10.1 6.5 8.40001 6.5 6.40001C6.5 4.40001 8.09995 2.70001 10.2 2.70001ZM10.2 0.700012C6.99995 0.700012 4.5 3.30001 4.5 6.40001C4.5 9.50001 7.09995 12.1 10.2 12.1C13.3 12.1 15.9 9.50001 15.9 6.40001C15.9 3.30001 13.3 0.700012 10.2 0.700012Z" fill="black"/>
<path fill-rule="evenodd" clip-rule="evenodd" d="M0.400024 20.2C0.400024 16.8262 2.68477 13.8 5.90002 13.8H14.5C17.7153 13.8 20 16.8262 20 20.2C20 20.7523 19.5523 21.2 19 21.2C18.4477 21.2 18 20.7523 18 20.2C18 17.5738 16.2847 15.8 14.5 15.8H5.90002C4.11528 15.8 2.40002 17.5738 2.40002 20.2C2.40002 20.7523 1.95231 21.2 1.40002 21.2C0.84774 21.2 0.400024 20.7523 0.400024 20.2Z" fill="black"/>
</svg>
