<svg width="35" height="22" viewBox="0 0 35 22" fill="none" xmlns="http://www.w3.org/2000/svg">
<path fill-rule="evenodd" clip-rule="evenodd" d="M6.80005 1.5C6.80005 0.947715 7.24776 0.5 7.80005 0.5H29.5001C31.224 0.5 32.8 1.9198 32.8 3.8V8.10001C32.8 8.65229 32.3523 9.10001 31.8 9.10001C31.2478 9.10001 30.8 8.65229 30.8 8.10001V3.8C30.8 3.08021 30.1761 2.5 29.5001 2.5H7.80005C7.24776 2.5 6.80005 2.05228 6.80005 1.5Z" fill="black"/>
<path fill-rule="evenodd" clip-rule="evenodd" d="M31.7 13.5C32.2523 13.5 32.7 13.9477 32.7 14.5V18.5C32.7 20.2239 31.2802 21.8 29.4 21.8H14C13.4477 21.8 13 21.3523 13 20.8C13 20.2477 13.4477 19.8 14 19.8H29.4C30.1198 19.8 30.7 19.1761 30.7 18.5V14.5C30.7 13.9477 31.1477 13.5 31.7 13.5Z" fill="black"/>
<path fill-rule="evenodd" clip-rule="evenodd" d="M26.5 9.5V12.5H32.3V9.5H26.5ZM24.9804 7.98042C25.2332 7.72756 25.6247 7.5 26.1 7.5H32.7C33.1753 7.5 33.5668 7.72756 33.8196 7.98042C34.0725 8.23328 34.3 8.6248 34.3 9.10001V12.9C34.3 13.3713 34.1133 13.7983 33.7769 14.0974C33.4589 14.3801 33.0631 14.5 32.7 14.5H26.1C25.6247 14.5 25.2332 14.2724 24.9804 14.0196C24.7275 13.7667 24.5 13.3752 24.5 12.9V9.10001C24.5 8.6248 24.7275 8.23328 24.9804 7.98042Z" fill="black"/>
<path fill-rule="evenodd" clip-rule="evenodd" d="M7.70007 5C8.25236 5 8.70007 5.44772 8.70007 6V18.3586L13.2874 13.6985C13.6748 13.3049 14.308 13.2999 14.7016 13.6873C15.0952 14.0748 15.1002 14.7079 14.7127 15.1015L8.41273 21.5015C8.12798 21.7908 7.69664 21.8792 7.32103 21.7254C6.94542 21.5715 6.70007 21.2059 6.70007 20.8V6C6.70007 5.44772 7.14779 5 7.70007 5Z" fill="black"/>
<path fill-rule="evenodd" clip-rule="evenodd" d="M0.698507 13.6873C1.09209 13.2999 1.72524 13.3049 2.11268 13.6985L8.41269 20.0985C8.80013 20.4921 8.79515 21.1252 8.40156 21.5127C8.00797 21.9001 7.37483 21.8951 6.98739 21.5015L0.687373 15.1015C0.299935 14.7079 0.30492 14.0748 0.698507 13.6873Z" fill="black"/>
</svg>
