<svg width="78" height="61" viewBox="0 0 78 61" fill="none" xmlns="http://www.w3.org/2000/svg">
<path fill-rule="evenodd" clip-rule="evenodd" d="M8.57507 6C7.63675 6 6 7.1081 6 9.69566V51.3043C6 53.8919 7.63675 55 8.57507 55H64.4249C65.3632 55 67 53.8919 67 51.3043V38.6304H73V51.3043C73 56.1298 69.659 61 64.4249 61H8.57507C3.34103 61 0 56.1298 0 51.3043V9.69566C0 4.87017 3.34103 0 8.57507 0H64.4249C69.659 0 73 4.87017 73 9.69566V22.1304H67V9.69566C67 7.1081 65.3632 6 64.4249 6H8.57507Z" fill="black"/>
<path fill-rule="evenodd" clip-rule="evenodd" d="M59 27V33H71.7V27H59ZM53 25.5C53 23.0431 55.0431 21 57.5 21H73.2C75.6568 21 77.7 23.0431 77.7 25.5V34.5C77.7 36.9569 75.6568 39 73.2 39H57.5C55.0431 39 53 36.9569 53 34.5V25.5Z" fill="black"/>
</svg>
