<svg width="77" height="79" viewBox="0 0 77 79" fill="none" xmlns="http://www.w3.org/2000/svg">
<path fill-rule="evenodd" clip-rule="evenodd" d="M3 24C4.65685 24 6 25.3431 6 27V69.14C6 71.8921 7.69719 73 8.57501 73H64.425C65.3028 73 67 71.8921 67 69.14V56.4C67 54.7431 68.3431 53.4 70 53.4C71.6569 53.4 73 54.7431 73 56.4V69.14C73 73.9829 69.7195 79 64.425 79H8.57501C3.28047 79 0 73.9829 0 69.14V27C0 25.3431 1.34315 24 3 24Z" fill="black"/>
<path fill-rule="evenodd" clip-rule="evenodd" d="M44 21C44 19.3431 45.3431 18 47 18H64.4957C69.8789 18 73 23.304 73 28.141V40C73 41.6569 71.6569 43 70 43C68.3431 43 67 41.6569 67 40V28.141C67 25.0719 65.2066 24 64.4957 24H47C45.3431 24 44 22.6569 44 21Z" fill="black"/>
<path fill-rule="evenodd" clip-rule="evenodd" d="M58 45V51H70.7V45H58ZM52 43.5C52 41.0431 54.0431 39 56.5 39H72.2C74.6569 39 76.7 41.0431 76.7 43.5V52.5C76.7 54.8238 74.8869 57 72.2 57H56.5C54.0431 57 52 54.9569 52 52.5V43.5Z" fill="black"/>
<path fill-rule="evenodd" clip-rule="evenodd" d="M26.8396 0.367997C28.2932 1.16307 28.8271 2.986 28.032 4.43963L20.5603 18.1H32.9C33.9596 18.1 34.9407 18.659 35.4809 19.5706C36.0211 20.4823 36.0403 21.6112 35.5314 22.5407L25.7314 40.4407C24.9357 41.894 23.1126 42.4271 21.6593 41.6315C20.206 40.8358 19.6729 39.0126 20.4685 37.5593L27.8373 24.1H15.5C14.4406 24.1 13.4597 23.5412 12.9194 22.6299C12.3791 21.7186 12.3596 20.5899 12.868 19.6604L22.768 1.5604C23.5631 0.106781 25.386 -0.427078 26.8396 0.367997Z" fill="black"/>
</svg>
