<svg width="31" height="30" viewBox="0 0 31 30" fill="none" xmlns="http://www.w3.org/2000/svg">
<path fill-rule="evenodd" clip-rule="evenodd" d="M1.69995 10.8C2.25224 10.8 2.69995 11.2477 2.69995 11.8V26.3C2.69995 26.9761 3.28017 27.6 3.99995 27.6H25.5C26.176 27.6 26.8 27.0198 26.8 26.3V21.9C26.8 21.3477 27.2477 20.9 27.8 20.9C28.3522 20.9 28.8 21.3477 28.8 21.9V26.3C28.8 28.1802 27.2239 29.6 25.5 29.6H3.99995C2.11974 29.6 0.699951 28.024 0.699951 26.3V11.8C0.699951 11.2477 1.14767 10.8 1.69995 10.8Z" fill="black"/>
<path fill-rule="evenodd" clip-rule="evenodd" d="M19.1 9.30002C19.1 8.74773 19.5477 8.30002 20.1 8.30002H25.5C27.3802 8.30002 28.8 9.87609 28.8 11.6V15.5C28.8 16.0523 28.3523 16.5 27.8 16.5C27.2477 16.5 26.8 16.0523 26.8 15.5V11.6C26.8 10.924 26.2198 10.3 25.5 10.3H20.1C19.5477 10.3 19.1 9.8523 19.1 9.30002Z" fill="black"/>
<path fill-rule="evenodd" clip-rule="evenodd" d="M22.5 17.4V20.4H28.3V17.4H22.5ZM20.9804 15.8804C21.2332 15.6276 21.6248 15.4 22.1 15.4H28.7C29.1752 15.4 29.5668 15.6276 29.8196 15.8804C30.0725 16.1333 30.3 16.5248 30.3 17V20.8C30.3 21.1631 30.1801 21.5589 29.8974 21.8769C29.5983 22.2133 29.1713 22.4 28.7 22.4H22.1C21.6248 22.4 21.2333 22.1725 20.9804 21.9196C20.7276 21.6668 20.5 21.2753 20.5 20.8V17C20.5 16.5248 20.7276 16.1333 20.9804 15.8804Z" fill="black"/>
<path fill-rule="evenodd" clip-rule="evenodd" d="M11.4836 0.824771C11.967 1.0919 12.1423 1.70032 11.8752 2.1837L8.4951 8.30002H14.1999C14.5548 8.30002 14.8832 8.48815 15.0626 8.79435C15.2421 9.10056 15.2458 9.47895 15.0724 9.78862L10.8724 17.2886C10.6026 17.7705 9.99319 17.9424 9.51132 17.6725C9.02945 17.4027 8.85757 16.7933 9.12742 16.3114L12.4938 10.3H6.79993C6.44601 10.3 6.11845 10.1129 5.93862 9.80811C5.7588 9.50328 5.7535 9.1261 5.92468 8.81633L10.1247 1.21633C10.3918 0.732945 11.0002 0.557639 11.4836 0.824771Z" fill="black"/>
</svg>
