<svg width="30" height="31" viewBox="0 0 30 31" fill="none" xmlns="http://www.w3.org/2000/svg">
<path fill-rule="evenodd" clip-rule="evenodd" d="M3.60004 2.20001C2.92398 2.20001 2.30005 2.78022 2.30005 3.50002V8.40001H0.300049V3.50002C0.300049 1.61981 1.87609 0.200012 3.60004 0.200012H25.1C26.9802 0.200012 28.4001 1.77605 28.4001 3.50002V8.70001H26.4001V3.50002C26.4001 2.82398 25.8198 2.20001 25.1 2.20001H3.60004Z" fill="black"/>
<path fill-rule="evenodd" clip-rule="evenodd" d="M3.60004 6.90002C2.92398 6.90002 2.30005 7.48023 2.30005 8.20003V13.9H0.300049V8.20003C0.300049 6.31982 1.87609 4.90002 3.60004 4.90002H25.1C26.9802 4.90002 28.4001 6.47607 28.4001 8.20003V13.7H26.4001V8.20003C26.4001 7.52399 25.8198 6.90002 25.1 6.90002H3.60004Z" fill="black"/>
<path fill-rule="evenodd" clip-rule="evenodd" d="M3.60004 11.5C2.92398 11.5 2.30005 12.0802 2.30005 12.8V27.4C2.30005 28.0761 2.88026 28.7 3.60004 28.7H25.1C25.7761 28.7 26.4001 28.1198 26.4001 27.4V22.5H28.4001V27.4C28.4001 29.2802 26.8239 30.7 25.1 30.7H3.60004C1.71981 30.7 0.300049 29.1239 0.300049 27.4V12.8C0.300049 10.9198 1.87609 9.5 3.60004 9.5H25.1C26.9802 9.5 28.4001 11.076 28.4001 12.8V17.5H26.4001V12.8C26.4001 12.124 25.8198 11.5 25.1 11.5H3.60004Z" fill="black"/>
<path fill-rule="evenodd" clip-rule="evenodd" d="M22.2001 18.5V21.5H28.0001V18.5H22.2001ZM20.6804 16.9804C20.9333 16.7276 21.3248 16.5 21.8 16.5H28.4001C28.8753 16.5 29.2669 16.7276 29.5197 16.9804C29.7725 17.2333 30.0001 17.6248 30.0001 18.1V21.9C30.0001 22.3752 29.7725 22.7667 29.5197 23.0196C29.2669 23.2724 28.8753 23.5 28.4001 23.5H21.8C21.3248 23.5 20.9333 23.2724 20.6804 23.0196C20.4276 22.7667 20.2001 22.3752 20.2001 21.9V18.1C20.2001 17.6248 20.4276 17.2333 20.6804 16.9804Z" fill="black"/>
</svg>
