<svg width="31" height="22" viewBox="0 0 31 22" fill="none" xmlns="http://www.w3.org/2000/svg">
<path fill-rule="evenodd" clip-rule="evenodd" d="M3.70003 2.39999C3.02396 2.39999 2.40002 2.98021 2.40002 3.7V18.3C2.40002 18.9761 2.98024 19.6 3.70003 19.6H25.2C25.8761 19.6 26.5 19.0198 26.5 18.3V13.8H28.5V18.3C28.5 20.1802 26.924 21.6 25.2 21.6H3.70003C1.81981 21.6 0.400024 20.0239 0.400024 18.3V3.7C0.400024 1.81978 1.97609 0.399994 3.70003 0.399994H25.2C27.0803 0.399994 28.5 1.97607 28.5 3.7V8H26.5V3.7C26.5 3.02392 25.9198 2.39999 25.2 2.39999H3.70003Z" fill="black"/>
<path fill-rule="evenodd" clip-rule="evenodd" d="M22.3 9.39999V12.4H28.1001V9.39999H22.3ZM20.7804 7.8804C21.0333 7.62755 21.4248 7.39999 21.9 7.39999H28.5C28.9753 7.39999 29.3668 7.62755 29.6197 7.88039C29.8725 8.13323 30.1001 8.52476 30.1001 9V12.8C30.1001 13.2752 29.8725 13.6668 29.6196 13.9196C29.3668 14.1725 28.9753 14.4 28.5 14.4H21.9C21.4248 14.4 21.0333 14.1725 20.7804 13.9196C20.5276 13.6668 20.3 13.2752 20.3 12.8V9C20.3 8.52478 20.5276 8.13325 20.7804 7.8804Z" fill="black"/>
</svg>
