<svg width="31" height="22" viewBox="0 0 31 22" fill="none" xmlns="http://www.w3.org/2000/svg">
<path fill-rule="evenodd" clip-rule="evenodd" d="M28 12.9C28.5523 12.9 29 13.3477 29 13.9V18.3C29 20.1802 27.424 21.6 25.7 21.6H5.5C4.94772 21.6 4.5 21.1523 4.5 20.6C4.5 20.0477 4.94772 19.6 5.5 19.6H25.7C26.3761 19.6 27 19.0198 27 18.3V13.9C27 13.3477 27.4477 12.9 28 12.9Z" fill="black"/>
<path fill-rule="evenodd" clip-rule="evenodd" d="M4.3999 1.29999C4.3999 0.747703 4.84762 0.299988 5.3999 0.299988H25.5999C27.4801 0.299988 28.8999 1.87607 28.8999 3.59999V7.99998C28.8999 8.55227 28.4522 8.99998 27.8999 8.99998C27.3476 8.99998 26.8999 8.55227 26.8999 7.99998V3.59999C26.8999 2.92392 26.3197 2.29999 25.5999 2.29999H5.3999C4.84762 2.29999 4.3999 1.85227 4.3999 1.29999Z" fill="black"/>
<path fill-rule="evenodd" clip-rule="evenodd" d="M22.7 9.39996V12.4H28.4999V9.39996H22.7ZM21.1803 7.88038C21.4331 7.62753 21.8247 7.39996 22.2999 7.39996H28.8999C29.3752 7.39996 29.7667 7.62752 30.0195 7.88036C30.2724 8.1332 30.4999 8.52473 30.4999 8.99997V12.8C30.4999 13.2752 30.2724 13.6667 30.0195 13.9196C29.7667 14.1724 29.3752 14.4 28.8999 14.4H22.2999C21.8247 14.4 21.4332 14.1724 21.1803 13.9196C20.9275 13.6667 20.7 13.2752 20.7 12.8V8.99997C20.7 8.52477 20.9275 8.13324 21.1803 7.88038Z" fill="black"/>
<path fill-rule="evenodd" clip-rule="evenodd" d="M8.18529 5.60053C8.57159 5.20583 9.20472 5.19902 9.59942 5.58532L14.2994 10.1853C14.5899 10.4696 14.6794 10.9014 14.5259 11.2777C14.3724 11.654 14.0064 11.9 13.6 11.9H1.09998C0.547691 11.9 0.0999756 11.4523 0.0999756 10.9C0.0999756 10.3477 0.547691 9.89998 1.09998 9.89998H11.1486L8.2005 7.01466C7.8058 6.62836 7.79899 5.99523 8.18529 5.60053Z" fill="black"/>
<path fill-rule="evenodd" clip-rule="evenodd" d="M14.2995 10.1853C14.6942 10.5716 14.701 11.2047 14.3147 11.5994L9.71467 16.2994C9.32837 16.6941 8.69524 16.7009 8.30054 16.3146C7.90584 15.9283 7.89903 15.2952 8.28533 14.9005L12.8853 10.2005C13.2716 9.8058 13.9048 9.79899 14.2995 10.1853Z" fill="black"/>
</svg>
