<svg width="35" height="22" viewBox="0 0 35 22" fill="none" xmlns="http://www.w3.org/2000/svg">
<path fill-rule="evenodd" clip-rule="evenodd" d="M31.7001 12.7C32.2524 12.7 32.7001 13.1477 32.7001 13.7V18.1C32.7001 19.9802 31.124 21.4 29.4001 21.4H7.70007C7.14779 21.4 6.70007 20.9523 6.70007 20.4C6.70007 19.8477 7.14779 19.4 7.70007 19.4H29.4001C30.0762 19.4 30.7001 18.8198 30.7001 18.1V13.7C30.7001 13.1477 31.1478 12.7 31.7001 12.7Z" fill="black"/>
<path fill-rule="evenodd" clip-rule="evenodd" d="M12.9001 1.10001C12.9001 0.547721 13.3479 0.100006 13.9001 0.100006H29.3001C31.1803 0.100006 32.6001 1.67606 32.6001 3.39999V7.60001C32.6001 8.15229 32.1524 8.60001 31.6001 8.60001C31.0478 8.60001 30.6001 8.15229 30.6001 7.60001V3.39999C30.6001 2.72393 30.0199 2.10001 29.3001 2.10001H13.9001C13.3479 2.10001 12.9001 1.65229 12.9001 1.10001Z" fill="black"/>
<path fill-rule="evenodd" clip-rule="evenodd" d="M26.4001 9.19998V12.2H32.2001V9.19998H26.4001ZM24.8805 7.6804C25.1333 7.42754 25.5249 7.19998 26.0001 7.19998H32.6001C33.0753 7.19998 33.4669 7.42752 33.7197 7.68035C33.9725 7.93318 34.2001 8.32472 34.2001 8.79999V12.4857C34.2882 12.9857 34.0802 13.4342 33.7947 13.7196C33.4792 14.0351 33.0426 14.2 32.6001 14.2H26.0001C25.5249 14.2 25.1334 13.9724 24.8805 13.7196C24.6277 13.4667 24.4001 13.0752 24.4001 12.6V8.79999C24.4001 8.32479 24.6277 7.93326 24.8805 7.6804Z" fill="black"/>
<path fill-rule="evenodd" clip-rule="evenodd" d="M7.98272 0.176125C8.35639 0.330906 8.60004 0.695543 8.60004 1.1V15.8C8.60004 16.3523 8.15232 16.8 7.60004 16.8C7.04775 16.8 6.60004 16.3523 6.60004 15.8V3.51422L2.00716 8.1071C1.61663 8.49762 0.983466 8.49762 0.592942 8.1071C0.202418 7.71658 0.202418 7.08341 0.592942 6.69289L6.89293 0.392898C7.17893 0.1069 7.60905 0.0213443 7.98272 0.176125Z" fill="black"/>
<path fill-rule="evenodd" clip-rule="evenodd" d="M6.89299 0.392903C7.28351 0.00237659 7.91667 0.00237349 8.3072 0.392896L14.6073 6.69288C14.9978 7.08341 14.9978 7.71657 14.6073 8.1071C14.2167 8.49762 13.5836 8.49763 13.193 8.1071L6.89299 1.80712C6.50247 1.41659 6.50247 0.783429 6.89299 0.392903Z" fill="black"/>
</svg>
