<svg width="32" height="22" viewBox="0 0 32 22" fill="none" xmlns="http://www.w3.org/2000/svg">
<path fill-rule="evenodd" clip-rule="evenodd" d="M28.8 12.8C29.3523 12.8 29.8 13.2477 29.8 13.8V18.3C29.8 20.1802 28.224 21.6 26.5001 21.6H5.80005C5.24776 21.6 4.80005 21.1523 4.80005 20.6C4.80005 20.0477 5.24776 19.6 5.80005 19.6H26.5001C27.1761 19.6 27.8 19.0198 27.8 18.3V13.8C27.8 13.2477 28.2478 12.8 28.8 12.8Z" fill="black"/>
<path fill-rule="evenodd" clip-rule="evenodd" d="M4.80005 1.29999C4.80005 0.747703 5.24776 0.299988 5.80005 0.299988H26.5001C28.3803 0.299988 29.8 1.87607 29.8 3.59999V7.69998C29.8 8.25227 29.3523 8.69998 28.8 8.69998C28.2478 8.69998 27.8 8.25227 27.8 7.69998V3.59999C27.8 2.92392 27.2198 2.29999 26.5001 2.29999H5.80005C5.24776 2.29999 4.80005 1.85227 4.80005 1.29999Z" fill="black"/>
<path fill-rule="evenodd" clip-rule="evenodd" d="M23.5 9.39996V12.4H29.3V9.39996H23.5ZM21.9804 7.88036C22.2332 7.62752 22.6248 7.39996 23.1 7.39996H29.7C30.1753 7.39996 30.5668 7.62753 30.8196 7.88038C31.0725 8.13324 31.3 8.52477 31.3 8.99997V12.6856C31.388 13.1857 31.1801 13.6341 30.8946 13.9196C30.5791 14.2351 30.1425 14.4 29.7 14.4H23.1C22.6248 14.4 22.2333 14.1724 21.9804 13.9196C21.7276 13.6667 21.5 13.2752 21.5 12.8V8.99997C21.5 8.52473 21.7276 8.1332 21.9804 7.88036Z" fill="black"/>
<path fill-rule="evenodd" clip-rule="evenodd" d="M0.57615 10.5173C0.730931 10.1436 1.09557 9.89999 1.50003 9.89999H14C14.5523 9.89999 15 10.3477 15 10.9C15 11.4523 14.5523 11.9 14 11.9H3.91424L6.90715 14.8929C7.29767 15.2834 7.29767 15.9166 6.90715 16.3071C6.51662 16.6976 5.88346 16.6976 5.49293 16.3071L0.792922 11.6071C0.506924 11.3211 0.421369 10.891 0.57615 10.5173Z" fill="black"/>
<path fill-rule="evenodd" clip-rule="evenodd" d="M6.91468 5.60053C7.30098 5.99523 7.29418 6.62836 6.89947 7.01466L2.19946 11.6146C1.80476 12.001 1.17163 11.9941 0.78533 11.5994C0.399028 11.2047 0.405837 10.5716 0.800539 10.1853L5.50055 5.58532C5.89525 5.19902 6.52838 5.20583 6.91468 5.60053Z" fill="black"/>
</svg>
