<?xml version="1.0" standalone="no"?>
<!DOCTYPE svg PUBLIC "-//W3C//DTD SVG 20010904//EN"
 "http://www.w3.org/TR/2001/REC-SVG-20010904/DTD/svg10.dtd">
<svg version="1.0" xmlns="http://www.w3.org/2000/svg"
 width="1012.000000pt" height="1012.000000pt" viewBox="0 0 1012.000000 1012.000000"
 preserveAspectRatio="xMidYMid meet">
<metadata>
Created by potrace 1.11, written by Peter Selinger 2001-2013
</metadata>
<g transform="translate(0.000000,1012.000000) scale(0.100000,-0.100000)"
fill="#000000" stroke="none">
<path d="M6475 9393 c-146 -14 -263 -56 -372 -133 -70 -49 -172 -154 -198
-204 -8 -16 -23 -45 -34 -65 -26 -50 -49 -110 -56 -146 -3 -16 -8 -43 -12 -60
-8 -43 -9 -207 -1 -225 4 -8 10 -33 14 -55 8 -43 10 -52 14 -60 1 -3 3 -8 5
-12 1 -5 9 -25 18 -45 10 -21 17 -40 17 -42 0 -16 93 -139 139 -184 49 -48
161 -132 176 -132 3 0 24 -9 48 -19 98 -45 141 -52 387 -66 52 -2 106 -7 120
-11 14 -3 35 -6 47 -5 12 0 25 -4 28 -9 4 -6 10 -8 14 -5 10 5 91 -24 156 -56
119 -60 203 -196 231 -379 3 -19 7 -42 10 -51 2 -9 7 -74 9 -145 5 -137 9
-168 26 -242 14 -57 87 -207 120 -247 30 -36 138 -145 144 -145 2 0 21 -12 42
-26 62 -42 153 -80 233 -98 128 -29 307 -19 405 24 130 56 193 97 268 174 52
53 107 128 107 145 0 6 3 11 8 11 15 0 65 136 80 220 13 68 8 255 -7 293 -6
16 -9 33 -5 38 3 5 0 9 -5 9 -6 0 -10 3 -9 8 4 13 -44 122 -54 122 -5 0 -7 4
-4 8 3 5 -9 29 -27 53 -115 159 -273 264 -457 306 -15 3 -74 7 -250 18 -93 5
-157 13 -180 22 -8 3 -28 7 -45 10 -58 9 -192 82 -233 128 -104 111 -143 251
-157 560 -7 129 -12 158 -43 245 -38 104 -99 196 -184 275 -55 52 -148 121
-148 110 0 -4 -15 4 -32 17 -18 13 -33 22 -33 20 0 -4 -29 5 -60 18 -46 19
-199 38 -260 33z"/>
<path d="M2097 7944 c-2 -2 -19 -6 -38 -9 -188 -27 -376 -151 -483 -318 -20
-31 -36 -61 -36 -67 0 -5 -5 -10 -12 -10 -6 0 -9 -3 -6 -6 4 -3 -2 -25 -13
-48 -10 -24 -21 -54 -23 -67 -3 -13 -5 -26 -6 -29 -2 -3 -2 -9 -1 -14 1 -4 -2
-13 -7 -20 -14 -17 -6 -285 8 -303 2 -2 3 -6 4 -10 9 -51 49 -139 104 -228 76
-121 281 -264 417 -288 17 -3 44 -9 60 -12 96 -20 346 5 367 37 4 7 8 10 8 6
0 -15 146 63 162 86 4 6 8 8 8 4 0 -4 25 16 56 45 127 117 208 273 229 437 13
104 5 219 -20 290 -8 22 -14 43 -14 45 1 13 -65 145 -72 145 -4 0 -9 7 -11 15
-10 46 -155 181 -248 231 -19 11 -37 21 -40 24 -8 9 -127 45 -180 56 -30 6
-208 12 -213 8z"/>
<path d="M4966 7943 c-2 -2 -14 -6 -27 -8 -66 -13 -85 -18 -98 -29 -8 -6 -16
-9 -18 -7 -7 6 -113 -41 -113 -51 0 -4 -6 -8 -13 -8 -27 0 -143 -103 -202
-180 -52 -68 -112 -195 -129 -273 -10 -43 -15 -103 -21 -232 -2 -66 -7 -130
-9 -141 -2 -12 -7 -38 -10 -59 -22 -139 -126 -318 -197 -340 -11 -4 -19 -11
-19 -16 0 -6 -4 -8 -9 -4 -5 3 -15 -1 -23 -8 -10 -10 -64 -31 -110 -43 -5 -1
-9 -2 -10 -4 -4 -2 -36 -9 -83 -16 -22 -3 -51 -8 -65 -10 -14 -2 -83 -6 -155
-9 -71 -3 -145 -10 -164 -15 -19 -5 -38 -7 -43 -4 -4 3 -8 1 -8 -3 0 -5 -10
-9 -21 -10 -12 -1 -65 -23 -117 -49 -79 -39 -112 -63 -182 -133 -50 -50 -96
-106 -109 -133 -13 -27 -27 -48 -32 -48 -5 0 -8 -3 -7 -7 2 -10 -10 -49 -27
-88 -23 -51 -35 -125 -39 -238 -1 -43 2 -81 6 -83 5 -3 6 -9 4 -12 -13 -22 55
-217 95 -274 11 -14 19 -29 19 -32 0 -16 106 -126 165 -172 49 -38 178 -102
231 -115 21 -5 48 -12 59 -15 37 -10 190 -13 245 -5 82 13 99 18 170 48 157
65 288 184 363 328 29 56 69 155 63 155 -3 0 0 15 5 33 5 17 12 73 15 122 6
112 13 221 18 260 6 53 48 195 57 195 5 0 8 3 7 8 -5 22 42 92 95 141 52 48
163 100 244 115 15 3 39 7 52 10 83 19 340 25 426 11 22 -4 47 -7 55 -7 8 0
33 -5 55 -10 22 -6 51 -12 64 -15 47 -8 167 -74 209 -114 53 -52 114 -163 126
-232 1 -7 5 -21 9 -32 13 -39 26 -175 31 -315 2 -52 6 -102 9 -110 3 -8 8 -29
10 -45 7 -48 57 -165 95 -223 71 -109 186 -208 302 -263 45 -22 99 -42 119
-46 9 -1 39 -7 66 -12 70 -13 264 -5 292 12 5 3 23 8 39 11 37 7 145 59 201
97 53 37 153 133 153 148 0 6 5 11 10 11 6 0 10 6 10 14 0 8 4 16 9 18 28 11
104 197 118 293 7 47 7 153 0 210 -7 59 -40 175 -49 175 -4 0 -8 7 -8 15 0 17
-12 38 -68 123 -20 28 -39 52 -44 52 -4 0 -8 6 -9 13 -2 38 -245 195 -329 212
-101 22 -140 26 -255 30 -72 3 -142 8 -155 10 -14 3 -41 8 -60 11 -19 4 -39 7
-45 8 -75 14 -196 75 -247 123 -45 43 -49 49 -82 118 -59 121 -73 190 -81 385
-5 127 -13 204 -25 236 -5 13 -8 24 -5 24 12 0 -69 168 -108 223 -50 70 -173
187 -196 187 -5 0 -11 3 -13 8 -8 19 -177 87 -246 98 -33 6 -231 11 -236 7z"/>
<path d="M660 6498 c-167 -18 -293 -76 -427 -200 -28 -26 -50 -48 -47 -48 3 0
0 -6 -6 -12 -42 -50 -58 -73 -77 -110 -40 -79 -56 -123 -69 -180 -3 -13 -8
-34 -11 -48 -5 -23 -6 -185 -1 -237 1 -13 6 -23 11 -23 4 0 5 -4 2 -10 -10
-15 40 -145 84 -219 22 -37 66 -94 98 -127 56 -58 171 -144 198 -148 7 -1 19
-6 26 -12 8 -6 34 -16 59 -23 25 -7 52 -16 60 -20 8 -4 25 -7 38 -6 12 1 22
-1 22 -5 0 -4 55 -6 123 -4 116 2 131 4 167 16 8 3 40 13 70 23 60 20 126 54
180 94 70 50 202 200 199 225 0 5 3 12 9 15 15 10 60 132 75 203 13 63 15 229
3 273 -46 175 -88 256 -197 372 -38 40 -159 133 -174 133 -2 0 -28 11 -57 24
-114 51 -225 68 -358 54z"/>
<path d="M9290 6493 c-110 -17 -260 -81 -330 -139 -54 -45 -136 -136 -158
-174 -14 -25 -29 -47 -32 -50 -11 -10 -60 -136 -71 -185 -6 -27 -13 -81 -15
-120 -2 -38 -6 -110 -9 -160 -3 -49 -7 -101 -10 -115 -3 -14 -7 -36 -10 -50
-24 -125 -69 -216 -143 -288 -49 -47 -88 -69 -177 -100 -105 -36 -191 -48
-380 -53 -193 -5 -359 -72 -496 -202 -47 -45 -121 -146 -151 -207 -19 -39 -59
-156 -57 -167 1 -5 0 -10 -1 -13 -11 -29 -14 -168 -5 -235 35 -256 214 -476
470 -576 83 -33 206 -48 320 -39 22 2 44 6 50 9 5 2 24 6 42 8 37 4 170 58
194 79 8 8 21 14 27 14 7 0 12 5 12 10 0 6 6 10 13 10 19 0 141 121 174 172
15 24 30 45 33 48 3 3 19 34 34 69 50 113 58 157 71 396 5 90 7 105 20 180 4
22 8 45 9 50 5 32 50 135 59 135 6 0 7 3 4 6 -9 9 29 63 75 106 36 33 131 87
161 92 7 1 17 5 23 8 6 4 24 10 40 12 16 3 39 8 52 11 12 3 32 7 45 10 12 3
69 7 127 10 133 7 220 14 245 20 67 15 128 35 141 45 8 7 14 10 14 6 0 -3 23
8 50 24 28 17 52 30 54 30 7 0 78 63 119 105 66 67 143 190 153 244 3 14 8 29
12 35 7 13 8 15 21 76 22 99 8 301 -25 380 -28 66 -79 165 -94 184 -52 64
-109 121 -154 153 -28 21 -52 41 -54 45 -2 5 -8 8 -12 8 -5 0 -37 13 -72 29
-131 60 -263 77 -408 54z"/>
<path d="M2033 5044 c-89 -19 -210 -72 -272 -119 -58 -44 -142 -132 -182 -192
-27 -40 -49 -75 -49 -78 0 -3 -7 -22 -15 -42 -40 -96 -49 -148 -49 -278 0 -71
4 -139 8 -150 5 -11 11 -29 13 -40 5 -29 44 -126 62 -155 9 -14 21 -32 26 -41
37 -59 104 -135 161 -179 41 -33 122 -80 155 -91 19 -7 39 -15 44 -19 23 -18
167 -41 245 -41 82 0 99 2 165 18 17 4 35 7 40 8 27 3 132 53 193 92 67 42
164 139 209 209 29 44 79 155 89 199 37 153 33 285 -11 420 -45 139 -151 283
-265 360 -25 17 -46 33 -48 38 -2 4 -8 7 -14 7 -6 0 -35 12 -64 26 -29 14 -70
30 -91 35 -21 5 -47 12 -58 15 -42 12 -232 11 -292 -2z"/>
<path d="M4950 5049 c-25 -5 -54 -10 -65 -12 -11 -2 -30 -9 -43 -16 -12 -6
-22 -9 -22 -6 0 3 -35 -13 -77 -35 -113 -60 -195 -130 -264 -228 -36 -51 -93
-172 -105 -222 -11 -49 -11 -50 -13 -52 -3 -4 -9 -91 -15 -213 -3 -60 -8 -122
-11 -136 -2 -14 -6 -39 -8 -55 -2 -17 -7 -36 -11 -43 -4 -7 -6 -15 -3 -17 5
-5 -34 -107 -56 -147 -26 -48 -80 -108 -120 -135 -45 -30 -131 -69 -169 -76
-13 -3 -23 -5 -23 -6 0 -10 -161 -29 -305 -35 -126 -5 -137 -7 -218 -30 -69
-21 -173 -70 -208 -100 -6 -5 -24 -19 -40 -30 -34 -25 -104 -99 -124 -131 -8
-13 -18 -24 -22 -24 -5 0 -8 -5 -8 -10 0 -6 -10 -27 -23 -48 -22 -34 -71 -155
-72 -177 -1 -5 -4 -30 -8 -55 -42 -251 51 -500 249 -670 89 -77 218 -136 344
-158 48 -9 200 -8 236 1 12 3 37 8 56 11 52 8 154 54 222 99 194 130 310 335
322 572 6 113 13 221 18 260 10 83 54 210 98 280 16 25 100 104 111 105 5 0
21 8 35 19 25 17 81 39 120 46 9 2 17 4 17 5 0 3 64 15 131 25 22 3 94 8 160
10 65 3 130 7 144 10 14 3 41 8 60 12 49 9 167 60 215 93 22 15 42 27 45 26
13 -3 150 146 171 186 6 12 15 25 19 28 6 4 50 93 55 113 2 4 4 10 5 15 1 4 2
10 1 15 0 4 3 7 7 7 4 0 8 8 8 18 1 9 4 31 8 47 18 73 18 213 2 295 -17 83
-81 240 -97 240 -5 0 -9 6 -9 13 0 7 -14 29 -31 48 -17 19 -36 41 -42 49 -12
14 -73 68 -113 100 -55 43 -193 101 -274 117 -49 9 -216 10 -260 2z"/>
<path d="M2078 2165 c-2 -2 -15 -6 -28 -8 -14 -3 -42 -8 -62 -12 -21 -4 -38
-12 -38 -18 0 -6 -3 -8 -6 -4 -10 10 -112 -40 -178 -87 -64 -46 -166 -147
-166 -164 0 -6 -3 -12 -7 -14 -14 -6 -53 -67 -53 -82 0 -8 -4 -17 -9 -21 -9
-5 -38 -82 -46 -123 -2 -12 -7 -27 -10 -33 -4 -6 -9 -61 -11 -123 -3 -102 10
-202 33 -256 3 -8 7 -18 7 -21 2 -15 52 -114 59 -117 4 -2 7 -10 7 -18 0 -8 5
-14 10 -14 6 0 10 -4 10 -10 0 -25 126 -150 195 -194 58 -37 139 -76 158 -76
7 0 17 -4 23 -9 15 -14 129 -32 211 -33 65 0 116 6 208 27 40 9 131 52 195 93
60 39 186 163 195 193 4 10 11 19 16 19 5 0 9 6 9 14 0 8 6 21 13 28 15 17 57
125 73 193 12 48 19 165 13 217 -9 78 -31 178 -41 178 -4 0 -7 3 -5 8 6 21
-64 148 -118 211 -49 58 -114 115 -163 144 -21 12 -39 24 -42 27 -4 5 -117 53
-130 56 -3 0 -25 6 -50 14 -40 12 -263 24 -272 15z"/>
</g>
</svg>
